{"glyphs":{"0":{"ha":788,"x_min":97,"x_max":690,"o":"m 468 1103 q 542 1088 503 1103 q 617 1049 581 1072 l 615 1049 q 671 980 651 1022 q 690 882 690 938 l 690 222 q 671 123 690 164 q 615 54 651 82 q 542 13 579 28 q 468 -1 504 -1 l 322 -1 q 248 13 286 -1 q 174 54 210 28 q 117 123 138 82 q 97 222 97 164 l 97 882 q 117 980 97 938 q 174 1049 138 1022 l 172 1049 q 247 1088 208 1072 q 322 1103 286 1103 l 468 1103 m 432 139 q 505 168 483 139 q 526 233 526 197 l 526 869 q 505 933 526 904 q 432 963 483 963 l 356 963 q 283 933 304 963 q 261 869 261 904 l 261 233 q 283 168 261 197 q 356 139 304 139 l 432 139 z "},"1":{"ha":788,"x_min":111,"x_max":511,"o":"m 147 850 q 113 896 114 850 q 147 943 111 943 q 200 949 169 943 q 268 964 231 954 q 329 1006 303 976 q 367 1076 356 1036 q 394 1113 375 1099 q 446 1125 414 1126 q 511 1057 511 1122 l 511 43 q 429 -22 511 -22 q 347 43 347 -22 l 347 850 l 147 850 z "},"2":{"ha":788,"x_min":101,"x_max":717,"o":"m 471 1103 q 544 1088 504 1103 q 619 1049 583 1072 l 618 1049 q 674 980 654 1022 q 693 882 693 938 l 693 746 q 638 610 693 674 q 479 499 582 547 q 319 397 374 450 q 264 290 264 344 l 264 139 l 660 139 q 714 71 713 139 q 660 -1 717 -1 l 188 -1 q 118 24 135 -1 q 101 83 101 50 l 101 303 q 156 456 101 390 q 314 569 210 522 q 473 661 417 613 q 529 757 529 710 l 529 869 q 508 933 529 904 q 435 963 486 963 l 358 963 q 285 933 307 963 q 264 869 264 904 l 264 814 q 182 749 264 749 q 101 814 101 749 l 101 882 q 121 980 101 938 q 175 1049 140 1022 l 174 1049 q 249 1088 210 1072 q 325 1103 289 1103 l 471 1103 z "},"3":{"ha":788,"x_min":97,"x_max":690,"o":"m 322 -1 q 248 13 286 -1 q 174 54 210 28 q 117 123 138 82 q 97 222 97 164 l 97 317 q 179 382 97 382 q 261 317 261 382 l 261 233 q 283 168 261 197 q 356 139 304 139 l 432 139 q 505 168 483 139 q 526 233 526 197 l 526 401 q 506 466 526 436 q 432 496 485 496 l 333 496 q 281 564 281 496 q 333 635 281 635 l 432 635 q 508 663 489 635 q 526 728 526 692 l 526 869 q 505 933 526 904 q 432 963 483 963 l 356 963 q 283 933 304 963 q 261 869 261 904 l 261 814 q 179 749 261 749 q 97 814 97 749 l 97 882 q 117 980 97 938 q 174 1049 138 1022 l 172 1049 q 247 1088 208 1072 q 322 1103 286 1103 l 468 1103 q 542 1088 503 1103 q 617 1049 581 1072 l 615 1049 q 671 980 651 1022 q 690 882 690 938 l 690 717 q 665 610 690 650 q 649 586 657 599 q 635 567 640 574 l 654 533 l 668 518 q 690 413 690 483 l 690 222 q 671 123 690 164 q 615 54 651 82 q 542 13 579 28 q 468 -1 504 -1 l 322 -1 z "},"4":{"ha":788,"x_min":33,"x_max":742,"o":"m 124 201 q 55 222 76 203 q 33 274 33 240 q 34 294 33 283 q 38 313 35 306 l 238 1035 q 339 1092 254 1107 q 395 1062 378 1083 q 403 1006 413 1040 l 404 1007 l 219 340 l 460 340 l 460 1043 q 540 1110 460 1110 q 624 1043 624 1110 l 624 340 l 686 340 q 740 271 742 340 q 686 201 738 201 l 624 201 l 624 43 q 540 -22 624 -22 q 460 43 460 -22 l 460 201 l 124 201 z "},"5":{"ha":788,"x_min":92,"x_max":697,"o":"m 314 -1 q 240 13 278 -1 q 165 54 201 28 q 92 222 92 108 l 92 317 q 174 382 92 382 q 254 317 254 382 l 254 233 q 276 168 254 197 q 349 139 297 139 l 439 139 q 512 168 490 139 q 533 233 533 197 l 533 451 q 513 516 533 486 q 439 546 492 546 l 192 546 q 127 564 150 546 q 104 626 104 582 l 104 1019 q 107 1043 104 1031 q 115 1072 110 1056 l 115 1069 q 192 1103 132 1103 l 636 1103 q 690 1033 688 1103 q 636 963 693 963 l 269 963 l 269 685 l 475 685 q 622 631 547 685 q 697 463 697 581 l 697 222 q 678 123 697 164 q 622 54 658 82 q 548 13 586 28 q 475 -1 510 -1 l 314 -1 z "},"6":{"ha":788,"x_min":103,"x_max":696,"o":"m 532 450 q 510 515 532 485 q 438 544 489 544 l 361 544 q 288 515 310 544 q 267 450 267 485 l 267 233 q 288 168 267 197 q 361 139 310 139 l 438 139 q 510 168 489 139 q 532 233 532 197 l 532 450 m 267 665 q 313 678 293 674 q 340 683 332 683 l 474 683 q 548 668 510 683 q 622 628 586 653 l 621 628 q 676 560 657 603 q 696 461 696 517 l 696 222 q 676 123 696 164 q 621 54 657 82 q 547 13 585 28 q 474 -1 510 -1 l 328 -1 q 178 53 256 -1 l 179 53 q 103 222 103 106 l 103 882 q 123 978 103 938 q 179 1047 143 1019 l 178 1047 q 253 1088 214 1072 q 328 1103 292 1103 l 474 1103 q 547 1088 508 1103 q 622 1049 586 1072 l 621 1049 q 676 980 657 1022 q 696 882 696 938 l 696 814 q 614 749 696 749 q 532 814 532 749 l 532 869 q 510 933 532 904 q 438 963 489 963 l 361 963 q 288 933 310 963 q 267 869 267 904 l 267 665 z "},"7":{"ha":788,"x_min":47,"x_max":740,"o":"m 719 967 q 565 707 625 831 q 481 476 506 583 q 441 262 457 374 q 418 43 425 150 q 391 -11 415 6 q 325 -25 367 -28 q 243 43 236 -19 q 265 248 250 144 q 304 456 281 351 q 391 684 331 556 q 547 963 451 813 l 100 963 q 47 1033 50 963 q 100 1103 47 1103 l 642 1103 q 738 1053 731 1103 q 736 1007 740 1031 q 719 967 732 983 z "},"8":{"ha":788,"x_min":85,"x_max":718,"o":"m 85 413 q 97 476 86 450 q 126 519 107 501 l 178 567 l 135 611 q 104 717 104 646 l 104 882 q 125 978 106 936 q 181 1049 144 1021 l 179 1049 q 254 1088 215 1072 q 329 1103 293 1103 l 475 1103 q 549 1088 510 1103 q 624 1049 588 1072 l 622 1049 q 678 980 658 1022 q 697 882 697 938 l 697 717 q 667 611 697 649 l 625 565 l 676 518 q 718 413 718 485 l 718 222 q 643 54 718 110 q 569 13 607 28 q 494 -1 531 -1 l 307 -1 q 233 13 271 -1 q 158 54 194 28 q 85 222 85 108 l 85 413 m 268 728 q 289 663 268 692 q 363 635 310 635 l 439 635 q 513 663 492 635 q 533 728 533 692 l 533 869 q 512 933 533 904 q 439 963 490 963 l 363 963 q 290 933 311 963 q 268 869 268 904 l 268 728 m 249 233 q 269 168 249 197 q 342 139 290 139 l 460 139 q 532 168 511 139 q 553 233 553 197 l 553 401 q 549 435 553 418 q 534 466 544 453 q 506 488 524 479 q 460 496 488 496 l 342 496 q 296 488 314 496 q 267 466 278 479 q 253 435 257 453 q 249 401 249 418 l 249 233 z "},"9":{"ha":788,"x_min":103,"x_max":696,"o":"m 696 222 q 676 123 696 164 q 621 56 657 82 l 622 56 q 548 15 586 31 q 474 -1 510 -1 l 328 -1 q 253 13 292 -1 q 179 54 215 28 q 123 123 143 82 q 103 222 103 164 l 103 288 q 185 356 103 356 q 267 288 267 356 l 267 233 q 288 168 267 197 q 361 139 310 139 l 438 139 q 510 168 489 139 q 532 233 532 197 l 532 436 q 458 419 479 419 l 328 419 q 253 434 292 419 q 179 474 215 449 q 123 543 143 501 q 103 642 103 585 l 103 882 q 123 980 103 938 q 179 1049 143 1022 l 178 1049 q 253 1088 214 1072 q 328 1103 292 1103 l 474 1103 q 622 1050 546 1103 l 621 1050 q 696 882 696 997 l 696 222 m 532 869 q 510 933 532 904 q 438 963 489 963 l 361 963 q 288 933 310 963 q 267 869 267 904 l 267 653 q 288 589 267 618 q 361 560 310 560 l 438 560 q 510 589 489 560 q 532 653 532 618 l 532 869 z "},"!":{"ha":454,"x_min":117,"x_max":342,"o":"m 311 363 q 228 297 311 297 q 147 363 147 297 l 147 1043 q 228 1110 147 1110 q 311 1043 311 1110 l 311 363 m 342 113 q 309 31 342 64 q 229 -1 276 -1 q 149 31 182 -1 q 117 113 117 64 q 149 192 117 160 q 229 224 182 224 q 309 192 276 224 q 342 113 342 160 z "},"\"":{"ha":460,"x_min":88,"x_max":385,"o":"m 190 799 q 139 756 190 756 q 88 799 88 756 l 88 1128 q 139 1167 88 1167 q 190 1128 190 1167 l 190 799 m 385 799 q 333 756 385 756 q 282 799 282 756 l 282 1128 q 333 1167 282 1167 q 385 1128 385 1167 l 385 799 z "},"#":{"ha":1079,"x_min":29,"x_max":1051,"o":"m 261 15 q 189 -21 247 -32 q 153 39 132 -10 l 254 346 l 89 346 q 32 400 33 346 q 89 457 29 457 l 293 457 l 361 664 l 172 664 q 117 719 119 664 q 172 775 115 775 l 400 775 l 503 1083 q 531 1115 513 1103 q 572 1121 549 1126 q 611 1063 626 1107 l 515 775 l 715 775 l 818 1083 l 818 1082 q 892 1121 840 1133 l 890 1121 q 928 1063 942 1106 l 832 775 l 999 775 q 1051 719 1051 775 q 999 664 1051 664 l 793 664 l 724 457 l 931 457 q 982 400 982 457 q 931 346 982 346 l 688 346 l 576 15 q 506 -21 565 -29 q 468 39 451 -11 l 569 346 l 371 346 l 261 15 m 408 457 l 608 457 l 676 664 l 476 664 l 408 457 z "},"$":{"ha":838,"x_min":99,"x_max":750,"o":"m 394 1138 q 426 1165 394 1164 q 460 1138 460 1167 l 460 1075 l 528 1075 q 602 1060 564 1075 q 676 1021 640 1044 l 675 1021 q 731 953 711 994 q 750 853 750 911 l 750 772 q 667 706 750 706 q 586 772 586 706 l 586 842 q 565 907 586 878 q 492 936 543 936 l 460 936 l 460 635 l 528 635 q 602 619 564 635 q 676 579 640 604 l 675 579 q 731 511 711 554 q 750 413 750 468 l 750 250 q 675 82 750 136 q 528 28 600 28 l 460 28 l 460 -43 q 426 -72 460 -75 q 394 -43 394 -72 l 394 28 l 321 28 q 247 42 285 28 q 172 82 208 56 q 99 250 99 136 l 99 314 q 179 379 99 379 q 263 314 263 379 l 263 261 q 283 197 263 226 q 356 168 304 168 l 394 168 l 394 496 l 321 496 q 172 549 249 496 q 99 717 99 606 l 99 853 q 172 1021 99 967 l 171 1021 q 246 1060 207 1044 q 321 1075 285 1075 l 394 1075 l 394 1138 m 460 496 l 460 168 l 492 168 q 565 197 543 168 q 586 261 586 226 l 586 401 q 565 466 586 436 q 492 496 543 496 l 460 496 m 263 728 q 283 663 263 692 q 356 635 304 635 l 394 635 l 394 936 l 356 936 q 283 907 304 936 q 263 842 263 878 l 263 728 z "},"%":{"ha":1179,"x_min":58,"x_max":1136,"o":"m 1136 264 q 1118 165 1136 214 q 1072 76 1100 115 q 997 18 1040 39 q 899 -3 953 -3 q 731 74 793 -3 q 681 159 699 113 q 661 264 663 206 q 729 456 661 379 q 899 532 797 532 q 1071 456 1008 532 q 1120 369 1104 417 q 1136 264 1136 321 m 347 -14 q 325 -34 339 -28 q 296 -33 311 -40 q 278 8 263 -21 l 278 7 q 417 278 346 139 q 562 557 489 417 q 706 836 635 697 q 846 1107 778 975 q 901 1136 871 1147 q 923 1117 917 1129 q 922 1094 929 1106 l 347 -14 m 535 819 q 517 721 535 769 q 471 632 499 672 q 395 574 439 594 q 297 553 351 553 q 202 572 244 553 q 129 629 160 590 q 78 715 97 668 q 58 819 60 763 q 128 1011 58 933 q 297 1089 197 1089 q 469 1011 407 1089 q 535 819 535 933 m 1007 264 q 978 371 1007 331 q 899 411 950 411 q 818 368 844 411 q 792 264 792 325 q 818 162 792 204 q 899 119 844 119 q 978 156 950 119 q 1007 264 1007 192 m 404 819 q 376 926 404 886 q 297 967 347 967 q 217 924 243 967 q 190 819 190 881 q 217 717 190 761 q 297 674 243 674 q 376 710 347 674 q 404 819 404 747 z "},"&":{"ha":914,"x_min":85,"x_max":903,"o":"m 339 513 q 290 482 311 499 q 261 449 268 465 l 261 450 q 251 412 254 431 q 249 376 249 393 l 249 233 q 269 168 249 197 q 342 139 290 139 l 547 139 q 594 149 574 139 q 628 176 614 160 l 339 513 m 885 115 q 899 92 894 104 q 903 72 903 81 q 892 42 903 58 q 869 13 882 25 q 814 -12 838 -12 q 767 13 788 -12 l 749 32 l 732 47 q 653 10 692 22 q 582 -1 615 -1 l 307 -1 q 233 13 271 -1 q 158 54 194 28 q 85 222 85 108 l 85 386 q 136 533 85 483 q 187 579 158 557 q 250 619 215 601 l 208 667 l 182 700 q 143 778 149 735 q 141 806 142 794 q 140 821 140 818 l 140 882 q 214 1049 140 994 l 213 1049 q 288 1088 249 1072 q 363 1103 326 1103 l 514 1103 q 587 1088 547 1103 q 663 1049 626 1072 l 661 1049 q 717 980 697 1022 q 736 882 736 938 l 736 807 q 653 742 736 742 q 572 807 572 742 l 572 869 q 551 933 572 904 q 478 963 529 963 l 397 963 q 324 933 346 963 q 303 869 303 904 l 303 825 q 310 783 303 794 q 351 735 326 763 q 403 676 372 711 q 476 592 435 640 l 642 401 l 642 489 q 722 543 642 543 q 806 489 806 543 l 806 210 l 885 115 z "},"'":{"ha":239,"x_min":68,"x_max":169,"o":"m 169 785 q 119 739 169 739 q 68 785 68 739 l 68 1128 q 119 1169 68 1169 q 169 1128 169 1169 l 169 785 z "},"(":{"ha":514,"x_min":132,"x_max":451,"o":"m 340 1128 q 419 1172 390 1188 q 431 1114 451 1153 q 330 828 358 979 q 301 490 301 676 q 333 153 301 308 q 431 -136 364 -3 q 419 -193 449 -175 l 421 -193 q 385 -190 406 -201 q 340 -151 364 -178 q 250 -8 292 -86 q 185 151 208 69 q 144 321 157 236 q 132 490 132 406 q 184 830 132 665 q 340 1128 236 994 z "},")":{"ha":514,"x_min":68,"x_max":389,"o":"m 389 490 q 336 151 389 322 q 270 -8 311 68 q 178 -151 229 -85 q 100 -193 131 -212 q 81 -170 85 -183 q 89 -136 78 -157 q 188 152 160 0 q 217 490 217 304 q 189 828 217 676 q 89 1114 161 979 q 100 1172 68 1154 q 135 1169 115 1182 q 178 1128 154 1157 q 336 830 283 994 q 389 490 389 665 z "},"*":{"ha":694,"x_min":72,"x_max":622,"o":"m 426 872 q 494 784 458 832 q 563 694 531 736 l 468 624 l 350 810 l 224 626 q 177 660 196 646 q 132 693 158 674 l 269 869 q 170 900 225 883 q 72 929 115 917 l 108 1042 l 294 972 l 294 1183 l 400 1183 l 400 972 q 492 1007 440 988 q 588 1043 543 1026 q 606 983 599 1011 q 622 928 613 956 l 426 872 z "},"+":{"ha":1157,"x_min":139,"x_max":1019,"o":"m 638 492 l 638 125 q 576 71 638 68 q 525 121 525 72 l 525 488 l 186 492 q 140 546 143 492 q 150 586 139 571 q 186 601 161 601 l 525 597 l 525 947 q 538 985 525 971 q 578 1000 550 1000 q 638 951 638 1000 l 638 601 l 971 601 q 1007 586 994 601 q 1019 546 1019 571 q 971 492 1019 492 l 638 492 z "},",":{"ha":394,"x_min":79,"x_max":318,"o":"m 101 -110 q 171 -63 146 -86 q 199 -1 196 -40 q 119 39 151 7 q 88 114 88 71 q 119 192 88 160 q 199 225 151 225 q 276 194 244 225 q 311 114 308 163 q 261 -64 318 -10 q 206 -113 235 -93 q 153 -142 178 -133 q 113 -150 132 -150 q 102 -147 108 -150 q 92 -142 96 -144 q 101 -110 79 -122 z "},"-":{"ha":464,"x_min":29,"x_max":439,"o":"m 93 479 q 29 549 29 479 q 47 602 31 585 q 93 619 64 619 l 374 619 q 436 549 436 619 q 374 479 439 479 l 93 479 z "},".":{"ha":394,"x_min":88,"x_max":310,"o":"m 310 114 q 278 34 310 67 q 199 1 246 1 q 119 34 151 1 q 88 114 88 67 q 119 192 88 160 q 199 225 151 225 q 278 192 246 225 q 310 114 310 160 z "},"/":{"ha":514,"x_min":36,"x_max":481,"o":"m 153 -157 l 36 -157 q 201 491 121 172 q 364 1138 281 810 l 481 1138 l 153 -157 z "},":":{"ha":426,"x_min":103,"x_max":326,"o":"m 326 113 q 293 31 326 64 q 214 -1 260 -1 q 135 31 167 -1 q 103 113 103 64 q 135 192 103 160 q 214 224 167 224 q 293 192 260 224 q 326 113 326 160 m 326 724 q 293 644 326 676 q 214 611 260 611 q 135 644 167 611 q 103 724 103 676 q 135 803 103 771 q 214 836 167 836 q 293 803 260 836 q 326 724 326 771 z "},";":{"ha":426,"x_min":96,"x_max":335,"o":"m 118 -110 q 187 -62 163 -86 q 215 -1 211 -39 q 136 39 168 7 q 104 114 104 71 q 136 192 104 160 q 215 225 168 225 q 292 194 260 225 q 329 114 325 163 q 279 -64 335 -6 q 223 -114 251 -94 q 169 -142 194 -133 l 171 -140 q 129 -150 143 -150 q 119 -147 125 -150 q 108 -142 113 -144 q 118 -110 96 -122 m 326 724 q 293 644 326 676 q 214 611 260 611 q 135 644 167 611 q 103 724 103 676 q 135 803 103 771 q 214 836 167 836 q 293 803 260 836 q 326 724 326 771 z "},"<":{"ha":1157,"x_min":193,"x_max":964,"o":"m 193 478 l 193 600 q 578 765 390 683 q 964 932 767 847 l 964 808 l 335 539 q 409 507 367 525 q 521 458 451 489 q 697 382 590 428 q 964 268 803 336 l 964 144 l 193 478 z "},"=":{"ha":1157,"x_min":186,"x_max":971,"o":"m 186 638 l 186 749 l 971 749 l 971 638 l 186 638 m 186 329 l 186 442 l 971 442 l 971 329 l 186 329 z "},">":{"ha":1157,"x_min":193,"x_max":964,"o":"m 193 144 l 193 268 l 825 538 q 670 603 750 569 q 510 672 590 638 q 349 742 429 707 q 193 808 268 776 l 193 932 q 389 847 293 889 q 579 765 485 806 q 769 683 674 724 q 964 600 865 642 l 964 478 l 193 144 z "},"?":{"ha":751,"x_min":71,"x_max":676,"o":"m 454 1103 q 527 1088 488 1103 q 603 1049 567 1072 l 601 1049 q 657 980 638 1022 q 676 882 676 938 l 676 815 q 551 606 676 686 q 426 444 426 526 l 426 338 q 343 275 426 278 q 263 338 263 275 l 263 442 q 295 576 263 521 q 386 661 328 632 q 480 731 447 689 q 513 826 513 774 l 513 869 q 491 933 513 904 q 418 963 469 963 l 328 963 q 256 933 276 963 q 235 869 235 904 l 235 814 q 151 749 235 749 q 71 814 71 749 l 71 882 q 144 1049 71 994 l 143 1049 q 218 1088 179 1072 q 293 1103 257 1103 l 454 1103 m 457 113 q 424 31 457 64 q 344 -1 392 -1 q 265 31 297 -1 q 232 113 232 64 q 265 192 232 160 q 344 224 297 224 q 424 192 392 224 q 457 113 457 160 z "},"@":{"ha":1389,"x_min":50,"x_max":1347,"o":"m 1347 619 q 1303 400 1347 500 q 1171 224 1258 300 q 1067 161 1126 183 q 940 139 1008 139 q 852 158 892 139 q 783 221 813 176 q 688 161 738 182 q 593 140 638 140 q 422 202 481 140 q 360 394 363 264 q 385 556 360 482 q 457 689 410 631 q 626 800 524 774 q 701 811 667 811 q 755 803 725 811 q 807 785 785 794 l 801 786 q 817 771 806 783 q 856 724 828 758 l 889 735 q 888 753 888 743 q 888 769 888 760 q 890 786 888 779 q 976 822 914 842 q 1022 799 1008 814 q 1032 764 1035 783 l 932 350 l 933 351 q 928 329 929 338 q 928 318 928 321 q 937 289 928 301 q 976 281 946 276 q 1025 294 1000 283 q 1078 331 1050 306 q 1165 463 1136 388 q 1193 622 1193 539 q 1163 772 1193 706 q 1072 893 1133 839 q 756 1000 949 1000 q 466 924 592 1000 q 261 708 340 847 q 219 584 236 656 q 203 447 203 513 q 338 107 203 236 q 704 -24 472 -24 q 919 11 821 -24 q 1118 124 1018 46 q 1147 135 1131 135 q 1172 127 1158 135 q 1199 108 1185 119 q 1215 65 1215 88 q 1188 15 1215 38 l 1189 15 q 951 -116 1068 -74 q 707 -158 833 -158 q 328 -61 481 -158 q 195 49 251 -12 q 104 186 139 111 q 64 308 78 244 q 50 446 50 371 q 86 674 50 565 q 193 875 122 783 q 440 1074 296 1004 q 761 1143 583 1143 q 937 1122 853 1143 q 1092 1061 1021 1101 q 1215 964 1161 1021 q 1300 840 1268 907 q 1334 737 1321 793 q 1347 619 1347 681 m 625 269 q 719 312 678 269 q 779 421 761 354 l 814 575 q 801 617 808 599 q 781 651 793 636 q 688 676 746 682 q 586 599 628 668 q 547 505 561 557 q 532 392 532 453 q 554 303 532 336 q 625 269 576 269 z "},"A":{"ha":953,"x_min":-7,"x_max":958,"o":"m 476 967 l 172 33 l 172 35 q 149 1 164 14 q 114 -12 135 -12 q 92 -10 103 -12 q 71 -6 82 -8 l 72 -6 q 14 83 -7 19 l 331 1046 q 355 1083 338 1068 q 396 1101 372 1099 q 442 1108 419 1106 q 476 1110 464 1110 q 511 1108 489 1110 q 557 1103 533 1106 q 595 1082 576 1100 q 624 1046 614 1064 q 781 565 701 807 q 939 83 861 322 q 881 -6 958 19 q 860 -10 869 -8 q 840 -12 851 -12 q 805 1 821 -12 q 782 35 789 14 l 782 33 l 476 967 m 581 333 q 549 258 581 289 q 474 226 518 226 q 399 258 429 226 q 368 333 368 289 q 399 409 368 378 q 474 440 429 440 q 549 409 518 440 q 581 333 581 378 z "},"B":{"ha":950,"x_min":111,"x_max":853,"o":"m 688 410 q 664 472 688 442 q 581 506 640 501 q 486 458 542 458 q 406 492 439 458 q 372 574 372 525 q 406 656 372 622 q 486 689 439 689 q 535 675 511 689 q 579 642 560 661 q 626 651 610 643 q 651 672 643 660 q 660 699 658 683 q 661 729 661 714 l 661 869 q 640 933 661 904 q 567 963 618 963 l 276 963 l 275 46 q 249 3 275 18 q 193 -11 224 -11 q 111 56 111 -11 l 111 1019 q 137 1086 111 1069 q 199 1103 163 1103 l 601 1103 q 678 1089 638 1103 q 756 1051 719 1075 l 754 1051 q 808 982 790 1025 q 825 882 825 939 l 825 725 q 801 634 825 669 q 751 578 778 599 q 786 555 769 567 q 814 529 803 543 q 842 483 832 510 q 853 421 853 457 l 853 222 q 764 54 853 108 q 680 13 719 26 q 601 -1 640 -1 l 396 -1 q 359 18 372 -1 q 346 69 346 38 q 404 139 346 139 l 594 139 q 667 168 646 139 q 688 233 688 197 l 688 410 z "},"C":{"ha":950,"x_min":110,"x_max":860,"o":"m 860 222 q 785 54 860 110 q 710 13 749 28 q 636 -1 672 -1 l 333 -1 q 259 13 297 -1 q 185 54 221 28 q 129 123 149 82 q 110 222 110 164 l 110 882 q 129 980 110 938 q 185 1049 149 1022 l 183 1049 q 258 1088 219 1072 q 333 1103 297 1103 l 636 1103 q 711 1088 672 1103 q 786 1049 750 1072 l 785 1049 q 840 980 821 1022 q 860 882 860 938 l 860 786 q 776 719 860 719 q 694 786 694 719 l 694 869 q 674 933 694 904 q 601 963 653 963 l 368 963 q 296 933 317 963 q 275 869 275 904 l 275 233 q 296 168 275 197 q 368 139 317 139 l 601 139 q 674 168 653 139 q 694 233 694 197 l 694 314 q 776 379 694 379 q 860 314 860 379 l 860 222 z "},"D":{"ha":958,"x_min":111,"x_max":860,"o":"m 601 139 q 674 168 653 139 q 694 233 694 197 l 694 869 q 674 933 694 904 q 601 963 653 963 l 276 963 l 275 57 q 251 8 275 26 q 193 -10 228 -10 q 111 57 111 -10 l 111 1019 q 137 1086 111 1069 q 199 1103 163 1103 l 636 1103 q 711 1088 672 1103 q 786 1049 750 1072 l 785 1049 q 840 980 821 1022 q 860 882 860 938 l 860 222 q 785 54 860 110 q 710 13 749 28 q 636 -1 672 -1 l 403 -1 q 366 18 379 -1 q 353 69 353 38 q 413 139 353 139 l 601 139 z "},"E":{"ha":800,"x_min":113,"x_max":764,"o":"m 200 -1 q 131 25 149 -1 q 113 83 113 51 l 113 1019 q 131 1077 113 1051 q 200 1103 149 1103 l 683 1103 q 738 1033 735 1103 q 683 963 740 963 l 276 963 l 276 139 l 708 139 q 761 71 760 139 q 708 -1 764 -1 l 200 -1 m 632 574 q 598 492 632 525 q 515 458 564 458 q 435 492 468 458 q 401 574 401 525 q 435 656 401 622 q 515 689 468 689 q 598 656 564 689 q 632 574 632 622 z "},"F":{"ha":765,"x_min":113,"x_max":728,"o":"m 276 58 q 194 -8 276 -8 q 113 58 113 -8 l 113 1019 q 131 1077 113 1051 q 200 1103 149 1103 l 672 1103 q 725 1033 722 1103 q 672 963 728 963 l 276 963 l 276 58 m 632 574 q 623 528 632 550 q 598 492 614 507 q 561 467 582 476 q 515 458 540 458 q 435 492 468 458 q 401 574 401 525 q 435 656 401 622 q 515 689 468 689 q 561 680 540 689 q 598 655 582 671 q 623 618 614 639 q 632 574 632 597 z "},"G":{"ha":950,"x_min":111,"x_max":847,"o":"m 682 501 q 765 569 682 569 q 847 504 847 569 l 847 222 q 772 54 847 110 q 698 13 736 28 q 624 -1 660 -1 l 335 -1 q 260 13 299 -1 q 186 54 222 28 q 131 123 150 82 q 111 222 111 164 l 111 882 q 131 981 111 939 q 186 1049 151 1022 l 185 1049 q 260 1088 221 1072 q 335 1103 299 1103 l 610 1103 q 685 1088 646 1103 q 760 1049 724 1072 l 758 1049 q 832 882 832 994 l 832 786 q 750 719 832 719 q 668 786 668 719 l 668 869 q 647 933 668 904 q 575 963 626 963 l 371 963 q 297 933 318 963 q 276 869 276 904 l 276 233 q 281 199 276 215 q 297 169 286 182 q 326 147 308 156 q 371 139 344 139 l 589 139 q 661 168 640 139 q 682 233 682 197 l 682 501 m 617 517 q 608 472 617 493 q 583 435 599 450 q 546 410 567 419 q 500 401 525 401 q 419 435 453 401 q 386 517 386 468 q 419 597 386 564 q 500 631 453 631 q 546 622 525 631 q 583 597 567 613 q 608 561 599 582 q 617 517 617 540 z "},"H":{"ha":956,"x_min":111,"x_max":864,"o":"m 699 1043 q 781 1110 699 1110 q 864 1043 864 1110 l 864 58 q 781 -8 864 -8 q 699 58 699 -8 l 699 1043 m 276 58 q 193 -8 276 -8 q 111 58 111 -8 l 111 1043 q 193 1110 111 1110 q 276 1043 276 1110 l 276 58 m 601 574 q 568 492 601 525 q 486 458 535 458 q 406 492 439 458 q 372 574 372 525 q 406 656 372 622 q 486 689 439 689 q 568 656 535 689 q 601 574 601 622 z "},"I":{"ha":393,"x_min":117,"x_max":282,"o":"m 282 58 q 199 -8 282 -8 q 117 58 117 -8 l 117 1043 q 199 1110 117 1110 q 282 1043 282 1110 l 282 58 z "},"J":{"ha":750,"x_min":58,"x_max":638,"o":"m 638 222 q 563 54 638 110 q 488 13 526 28 q 414 -1 450 -1 l 281 -1 q 206 13 244 -1 q 132 54 168 28 q 58 222 58 108 l 58 314 q 139 379 58 379 q 222 314 222 379 l 222 233 q 243 168 222 197 q 315 139 264 139 l 379 139 q 451 168 431 139 q 472 233 472 197 l 472 1043 q 554 1110 472 1110 q 638 1043 638 1110 l 638 222 z "},"K":{"ha":904,"x_min":110,"x_max":900,"o":"m 699 1086 q 746 1111 719 1111 q 806 1085 775 1111 q 831 1054 821 1069 q 842 1024 842 1039 q 824 981 842 999 l 638 764 l 275 338 l 275 58 q 192 -8 275 -8 q 110 58 110 -8 l 110 1043 q 192 1110 110 1110 q 275 1043 275 1110 l 275 589 l 699 1086 m 501 426 q 488 474 488 446 q 522 540 488 515 l 521 540 q 576 560 549 560 q 621 529 603 560 l 889 138 l 888 139 q 900 97 900 119 q 864 33 900 61 l 865 33 q 836 18 850 24 q 811 13 822 13 q 788 21 800 13 q 765 42 776 29 l 501 426 z "},"L":{"ha":806,"x_min":111,"x_max":792,"o":"m 199 -1 q 129 25 147 -1 q 111 83 111 51 l 111 1043 q 192 1110 111 1110 q 275 1043 275 1110 l 275 139 l 739 139 q 789 71 789 139 q 739 -1 792 -1 l 199 -1 z "},"M":{"ha":1193,"x_min":103,"x_max":1108,"o":"m 963 1110 q 1060 1089 1007 1110 q 1108 1015 1108 1069 l 1108 58 q 1026 -8 1108 -8 q 944 58 944 -8 l 944 772 l 904 776 l 849 596 l 682 40 q 607 -7 667 -8 q 561 7 581 -6 q 535 43 542 19 l 435 367 q 374 562 404 463 q 307 782 343 661 l 267 776 l 267 58 q 185 -8 267 -8 q 103 58 103 -8 l 103 1015 q 151 1089 103 1068 q 250 1108 203 1110 q 293 1103 271 1108 q 335 1087 315 1097 q 369 1060 354 1076 q 393 1024 385 1044 l 611 281 q 661 458 635 363 q 715 653 688 554 q 770 848 743 751 q 821 1028 797 944 q 844 1063 829 1047 q 879 1088 860 1078 q 920 1104 899 1099 q 963 1110 942 1110 z "},"N":{"ha":986,"x_min":111,"x_max":890,"o":"m 726 1043 q 808 1110 726 1110 q 890 1043 890 1110 l 890 85 q 839 14 890 36 l 840 14 q 793 -1 818 4 q 744 -7 768 -7 q 707 -3 726 -7 q 670 8 688 0 q 638 28 653 15 q 615 61 624 42 l 314 813 l 276 808 l 276 58 q 193 -8 276 -8 q 111 58 111 -8 l 111 1015 q 161 1092 111 1072 q 258 1110 207 1110 q 331 1095 294 1110 q 388 1040 368 1081 l 688 288 l 726 292 l 726 1043 z "},"O":{"ha":958,"x_min":110,"x_max":860,"o":"m 636 1103 q 711 1088 672 1103 q 786 1049 750 1072 l 785 1049 q 840 980 821 1022 q 860 882 860 938 l 860 222 q 785 54 860 110 q 710 13 749 28 q 636 -1 672 -1 l 333 -1 q 259 13 297 -1 q 185 54 221 28 q 129 123 149 82 q 110 222 110 164 l 110 882 q 129 980 110 938 q 185 1049 149 1022 l 183 1049 q 258 1088 219 1072 q 333 1103 297 1103 l 636 1103 m 601 139 q 674 168 653 139 q 694 233 694 197 l 694 869 q 674 933 694 904 q 601 963 653 963 l 368 963 q 296 933 317 963 q 275 869 275 904 l 275 233 q 296 168 275 197 q 368 139 317 139 l 601 139 z "},"P":{"ha":926,"x_min":113,"x_max":826,"o":"m 413 408 q 376 427 389 408 q 363 478 363 446 q 421 549 363 549 l 568 549 q 641 578 619 549 q 663 642 663 607 l 663 869 q 641 933 663 904 q 568 963 619 963 l 276 963 l 276 56 q 193 -11 276 -11 q 113 56 113 -11 l 113 1019 q 138 1086 113 1069 q 199 1103 163 1103 l 604 1103 q 678 1088 639 1103 q 753 1049 717 1072 l 751 1049 q 807 980 788 1022 q 826 882 826 938 l 826 631 q 751 463 826 518 q 678 422 715 436 q 604 408 640 408 l 413 408 z "},"Q":{"ha":974,"x_min":111,"x_max":929,"o":"m 597 139 q 667 159 635 139 q 699 226 699 179 l 696 869 q 675 933 696 904 q 601 963 654 963 l 368 963 q 295 933 317 963 q 274 869 274 904 l 274 233 q 295 168 274 197 q 368 139 317 139 l 597 139 m 608 322 q 575 240 608 274 q 493 207 542 207 q 413 240 446 207 q 379 322 379 274 q 413 403 379 369 q 493 436 446 436 q 575 403 542 436 q 608 322 608 369 m 915 11 q 929 -24 929 -3 q 924 -46 929 -35 q 906 -68 918 -57 q 861 -94 881 -94 q 828 -76 846 -94 l 732 19 q 638 -1 678 -1 l 335 -1 q 260 13 299 -1 q 186 54 222 28 q 111 222 111 110 l 111 882 q 131 980 111 938 q 186 1049 150 1022 l 185 1049 q 259 1088 219 1072 q 335 1103 299 1103 l 638 1103 q 711 1088 672 1103 q 786 1049 750 1072 l 785 1049 q 840 980 821 1022 q 860 882 860 938 l 860 222 q 851 158 860 189 q 826 101 842 128 l 915 11 z "},"R":{"ha":936,"x_min":111,"x_max":918,"o":"m 504 457 l 397 457 q 360 476 374 457 q 347 526 347 494 q 406 597 347 597 l 568 597 q 640 626 619 597 q 661 690 661 656 l 661 869 q 640 933 661 904 q 568 963 619 963 l 275 963 l 275 57 q 193 -10 275 -10 q 111 57 111 -10 l 111 1019 q 137 1086 111 1069 q 199 1103 163 1103 l 603 1103 q 678 1088 639 1103 q 753 1049 717 1072 l 751 1049 q 807 980 788 1022 q 826 882 826 938 l 826 679 q 751 511 826 567 q 719 490 736 500 q 683 471 701 481 l 906 104 q 914 86 910 97 q 918 68 918 75 q 871 4 918 35 l 871 6 q 817 -14 839 -14 q 765 18 785 -14 l 767 17 l 504 457 z "},"S":{"ha":968,"x_min":111,"x_max":861,"o":"m 638 635 q 713 619 674 635 q 788 579 751 604 l 786 579 q 842 511 822 554 q 861 413 861 468 l 861 222 q 786 54 861 110 q 712 13 750 28 q 638 -1 674 -1 l 335 -1 q 260 13 299 -1 q 186 54 222 28 q 111 222 111 110 l 111 314 q 193 379 111 379 q 276 314 276 379 l 276 233 q 297 168 276 197 q 369 139 318 139 l 603 139 q 675 168 654 139 q 696 233 696 197 l 696 401 q 675 466 696 436 q 603 496 654 496 l 335 496 q 186 549 263 496 q 111 717 111 607 l 111 882 q 131 980 111 938 q 186 1049 150 1022 l 185 1049 q 260 1088 221 1072 q 335 1103 299 1103 l 638 1103 q 713 1088 674 1103 q 788 1049 751 1072 l 786 1049 q 842 980 822 1022 q 861 882 861 938 l 861 800 q 778 735 861 735 q 696 800 696 735 l 696 869 q 675 933 696 904 q 603 963 654 963 l 369 963 q 297 933 318 963 q 276 869 276 904 l 276 728 q 297 663 276 692 q 369 635 318 635 l 638 635 z "},"T":{"ha":788,"x_min":21,"x_max":778,"o":"m 482 56 q 399 -11 482 -11 q 317 56 317 -11 l 317 963 l 74 963 q 21 1033 24 963 q 74 1103 21 1103 l 725 1103 q 775 1033 778 1103 q 725 963 775 963 l 482 963 l 482 56 z "},"U":{"ha":961,"x_min":110,"x_max":860,"o":"m 860 222 q 785 54 860 110 q 710 13 749 28 q 636 -1 672 -1 l 333 -1 q 259 13 297 -1 q 185 54 221 28 q 129 123 149 82 q 110 222 110 164 l 110 1043 q 192 1110 110 1110 q 275 1043 275 1110 l 275 233 q 296 168 275 197 q 368 139 317 139 l 601 139 q 674 168 653 139 q 694 233 694 197 l 694 1043 q 776 1110 694 1110 q 860 1043 860 1110 l 860 222 z "},"V":{"ha":863,"x_min":22,"x_max":858,"o":"m 438 -7 q 378 2 410 -7 q 333 36 347 11 q 267 258 301 144 q 197 482 232 372 q 114 751 158 611 q 31 1018 69 890 q 40 1072 22 1049 q 92 1106 58 1094 q 128 1111 113 1111 q 189 1064 175 1111 l 292 735 q 324 625 306 685 q 363 503 343 565 q 401 378 382 440 q 438 264 421 317 q 495 453 464 351 q 559 661 526 556 q 624 870 592 767 q 683 1064 656 974 q 743 1111 699 1111 q 782 1106 760 1111 q 842 1018 858 1085 q 690 528 767 775 q 539 36 614 281 q 498 1 528 8 q 438 -7 468 -7 z "},"W":{"ha":1276,"x_min":28,"x_max":1271,"o":"m 1100 1057 l 1099 1056 q 1131 1100 1107 1086 q 1196 1107 1156 1114 q 1253 1082 1236 1100 q 1261 1032 1271 1064 l 1011 36 l 1011 38 q 980 1 1004 14 q 929 -11 956 -11 q 872 -2 899 -11 q 838 35 844 7 l 839 33 l 668 711 l 631 711 l 461 35 q 426 0 454 11 q 369 -11 399 -11 q 312 -1 333 -11 q 283 36 290 10 l 285 35 l 35 1032 q 47 1080 28 1060 q 103 1107 67 1100 q 197 1056 181 1119 l 196 1057 l 258 806 q 283 703 271 756 q 311 592 296 651 q 344 464 326 533 q 385 308 363 394 l 563 1058 q 594 1099 569 1089 q 650 1108 619 1108 q 704 1098 678 1108 q 738 1056 731 1088 l 921 313 l 1100 1057 z "},"X":{"ha":854,"x_min":38,"x_max":831,"o":"m 679 1078 q 702 1103 690 1093 q 733 1113 714 1113 q 778 1100 753 1113 q 831 1036 831 1075 q 828 1016 831 1026 q 821 999 826 1006 l 821 1000 l 553 544 l 814 103 q 821 69 821 86 q 776 6 821 29 q 721 -11 743 -11 q 671 21 693 -11 l 432 425 q 375 328 406 379 q 313 223 344 276 q 251 118 282 169 q 193 21 219 67 q 171 -3 182 6 q 143 -11 160 -11 q 89 6 119 -11 q 42 69 42 32 q 44 87 42 79 q 51 104 47 94 l 51 103 q 183 325 115 213 q 315 549 250 438 l 50 1000 q 42 1019 46 1008 q 38 1038 38 1031 q 93 1100 38 1075 q 138 1113 115 1113 q 168 1103 156 1113 q 192 1078 181 1093 l 436 667 l 679 1078 z "},"Y":{"ha":864,"x_min":33,"x_max":836,"o":"m 517 56 q 435 -11 517 -11 q 353 56 353 -11 l 353 425 l 42 1017 q 33 1054 33 1035 q 81 1114 33 1094 l 79 1114 q 128 1125 110 1125 q 183 1089 164 1125 l 436 614 q 496 727 464 667 q 560 850 528 788 q 625 974 593 913 q 686 1089 657 1035 q 710 1115 697 1106 q 743 1125 724 1125 q 789 1114 763 1125 l 788 1114 q 836 1053 836 1093 q 835 1035 836 1044 q 828 1017 833 1026 q 797 956 815 992 q 744 855 778 919 q 656 687 710 790 q 517 421 601 583 l 517 56 z "},"Z":{"ha":835,"x_min":25,"x_max":806,"o":"m 96 963 q 44 1033 47 963 q 96 1103 44 1103 l 706 1103 q 776 1088 751 1103 q 804 1049 801 1074 q 803 1003 806 1025 q 793 971 801 982 l 246 139 l 749 139 q 800 71 800 139 q 749 -1 803 -1 l 126 -1 q 28 54 35 -1 q 28 98 25 78 q 39 129 31 118 q 91 210 64 168 q 151 301 118 251 q 226 414 185 351 q 319 556 267 476 q 438 736 372 636 q 588 963 504 836 l 96 963 z "},"[":{"ha":531,"x_min":168,"x_max":492,"o":"m 447 -64 q 489 -124 488 -64 q 447 -185 492 -185 l 256 -185 q 188 -160 207 -185 q 168 -103 168 -135 l 168 1083 q 188 1140 168 1115 q 256 1165 207 1165 l 447 1165 q 489 1104 492 1165 q 447 1044 488 1044 l 322 1044 l 322 -64 l 447 -64 z "},"\\":{"ha":500,"x_min":25,"x_max":469,"o":"m 25 1138 l 142 1138 q 305 491 225 810 q 469 -157 385 172 l 353 -157 l 25 1138 z "},"]":{"ha":531,"x_min":42,"x_max":364,"o":"m 364 -103 q 346 -160 364 -135 q 278 -185 328 -185 l 86 -185 q 44 -124 42 -185 q 86 -64 46 -64 l 210 -64 l 210 1044 l 86 1044 q 44 1104 46 1044 q 86 1165 42 1165 l 278 1165 q 346 1140 328 1165 q 364 1083 364 1115 l 364 -103 z "},"^":{"ha":1389,"x_min":343,"x_max":1043,"o":"m 1032 772 q 1043 742 1043 757 q 1029 717 1043 722 q 996 710 1014 707 q 960 732 978 713 l 696 1001 l 429 732 q 356 711 392 694 q 343 739 343 724 q 347 756 343 746 q 356 772 350 765 q 479 938 417 853 q 601 1101 542 1022 q 692 1147 639 1144 q 743 1136 719 1149 q 786 1101 767 1124 l 1032 772 z "},"_":{"ha":694,"x_min":15,"x_max":679,"o":"m 15 -226 l 15 -111 l 679 -111 l 679 -226 l 15 -226 z "},"a":{"ha":847,"x_min":83,"x_max":767,"o":"m 308 0 q 226 12 265 0 q 151 46 188 24 l 151 44 q 83 203 83 88 l 83 271 q 103 370 83 328 q 160 438 124 413 l 158 438 q 232 473 193 461 q 307 485 271 485 l 614 485 l 614 614 q 592 677 614 649 q 519 706 571 706 l 357 706 q 284 680 304 706 q 264 619 264 654 l 264 608 q 186 536 264 536 q 108 608 108 536 l 108 621 q 128 717 108 678 q 183 782 149 756 l 182 782 q 258 821 218 806 q 333 836 297 836 l 544 836 q 619 821 579 836 q 693 782 658 806 l 692 782 q 747 713 728 756 q 767 615 767 671 l 767 58 q 690 -8 767 -8 q 662 -7 675 -8 q 638 1 649 -6 q 622 19 628 7 q 615 50 615 31 l 614 354 l 333 354 q 286 347 303 354 q 260 325 269 340 q 244 288 249 301 q 239 258 239 275 l 239 204 q 260 149 239 168 q 335 131 282 131 l 490 131 q 542 65 542 131 q 529 19 542 38 q 490 0 517 0 l 308 0 z "},"b":{"ha":839,"x_min":99,"x_max":767,"o":"m 250 58 q 226 8 250 25 q 175 -8 203 -8 q 99 58 99 -8 l 99 1044 q 175 1111 99 1111 q 251 1044 251 1111 l 251 836 l 544 836 q 692 783 615 836 q 767 617 767 731 l 767 203 q 699 44 767 88 q 543 0 631 0 l 379 0 q 326 65 329 0 q 379 131 326 131 l 518 131 q 592 149 569 131 q 614 204 614 168 l 614 604 q 592 674 614 640 l 593 672 q 519 706 575 706 l 251 706 l 250 58 z "},"c":{"ha":842,"x_min":99,"x_max":767,"o":"m 767 221 q 692 53 767 107 q 544 0 618 0 l 311 0 q 168 53 238 0 q 117 123 135 81 q 99 221 99 165 l 99 617 q 168 783 99 729 q 240 823 203 808 q 311 838 276 838 l 544 838 q 618 824 578 838 q 693 789 658 811 q 747 724 726 765 q 767 625 767 682 l 767 556 q 690 489 767 489 q 614 556 614 489 l 614 615 q 592 678 614 650 q 519 707 571 707 l 346 707 q 273 678 294 707 q 251 615 251 650 l 251 222 q 273 160 251 189 q 346 131 294 131 l 519 131 q 592 160 571 131 q 614 222 614 189 l 614 286 q 690 351 614 351 q 767 286 767 351 l 767 221 z "},"d":{"ha":851,"x_min":99,"x_max":767,"o":"m 614 706 l 346 706 q 271 672 289 706 q 251 604 251 643 l 251 204 q 274 149 251 168 q 347 131 296 131 l 490 131 q 540 65 540 131 q 528 19 540 38 q 490 0 517 0 l 322 0 q 167 44 235 0 q 99 203 99 86 l 99 617 q 117 715 99 674 q 174 783 135 757 q 321 836 247 836 l 614 836 l 614 1044 q 690 1111 614 1111 q 767 1044 767 1111 l 767 58 q 690 -8 767 -8 q 638 2 661 -8 q 614 49 614 13 l 614 706 z "},"e":{"ha":844,"x_min":99,"x_max":767,"o":"m 251 222 q 273 160 251 189 q 346 131 294 131 l 519 131 q 592 156 571 131 q 614 215 614 182 l 614 231 q 690 296 614 296 q 767 231 767 296 l 767 214 q 748 118 767 156 q 692 53 729 81 q 544 0 618 0 l 311 0 q 168 53 238 0 q 117 123 135 81 q 99 221 99 165 l 99 617 q 168 783 99 729 q 240 823 203 808 q 311 838 276 838 l 544 838 q 618 824 578 838 q 693 789 658 811 q 747 724 726 765 q 767 625 767 682 l 767 438 q 748 381 767 406 q 679 356 729 356 l 379 356 q 326 421 329 356 q 379 486 326 486 l 615 486 l 614 615 q 592 678 614 650 q 519 707 571 707 l 346 707 q 273 678 294 707 q 251 615 251 650 l 251 222 z "},"f":{"ha":467,"x_min":18,"x_max":450,"o":"m 292 58 q 214 -8 292 -8 q 138 58 138 -8 l 138 706 l 71 706 q 18 771 21 706 q 71 836 18 836 l 138 836 l 138 903 q 153 999 138 960 q 206 1060 169 1039 l 206 1058 q 280 1093 242 1081 q 361 1106 318 1106 l 394 1106 q 446 1040 446 1106 q 394 975 449 975 l 372 975 q 330 970 346 975 q 306 956 314 965 q 294 932 297 946 q 292 901 292 918 l 292 836 l 396 836 q 447 771 450 836 q 396 706 447 706 l 292 706 l 292 58 z "},"g":{"ha":854,"x_min":99,"x_max":767,"o":"m 322 97 q 248 110 286 97 q 174 146 210 122 q 99 310 99 194 l 99 624 q 119 724 99 682 q 174 789 139 765 q 247 824 210 811 q 321 836 285 836 l 554 836 q 626 821 589 836 q 696 782 664 806 q 747 713 728 756 q 767 615 767 669 l 767 26 q 748 -73 767 -32 q 696 -142 729 -114 q 627 -183 664 -168 q 554 -197 590 -197 l 321 -197 q 172 -154 247 -197 q 116 -97 133 -132 q 99 -17 99 -62 l 99 0 q 117 44 99 28 q 174 61 135 61 q 251 0 251 53 l 251 -15 q 273 -49 251 -31 q 346 -67 294 -67 l 519 -67 q 592 -37 571 -67 q 614 28 614 -8 l 614 614 q 592 677 614 649 q 519 706 571 706 l 346 706 q 273 677 294 706 q 251 614 251 649 l 251 321 q 273 256 251 286 q 346 226 294 226 l 490 226 q 540 163 540 226 q 528 115 540 133 q 490 97 517 97 l 322 97 z "},"h":{"ha":851,"x_min":99,"x_max":767,"o":"m 251 58 q 175 -8 251 -8 q 99 58 99 -8 l 99 1044 q 175 1111 99 1111 q 251 1044 251 1111 l 251 836 l 544 836 q 692 783 615 836 q 767 617 767 731 l 767 58 q 690 -8 767 -8 q 614 58 614 -8 l 614 604 q 592 674 614 640 l 593 672 q 519 706 575 706 l 251 706 l 251 58 z "},"i":{"ha":350,"x_min":72,"x_max":285,"o":"m 256 58 q 179 -8 256 -8 q 101 58 101 -8 l 101 775 q 179 842 101 842 q 256 775 256 842 l 256 58 m 285 1017 q 254 942 285 972 q 179 911 224 911 q 103 942 135 911 q 72 1017 72 972 q 103 1093 72 1063 q 179 1124 135 1124 q 254 1093 224 1124 q 285 1017 285 1063 z "},"j":{"ha":376,"x_min":-32,"x_max":303,"o":"m 279 -32 q 211 -192 279 -147 l 211 -190 q 137 -223 175 -211 q 54 -235 99 -235 l 21 -235 q -31 -171 -31 -235 q -18 -122 -32 -139 q 21 -106 -4 -106 l 43 -106 q 109 -85 93 -106 q 125 -32 125 -65 l 125 776 q 201 843 125 843 q 279 776 279 843 l 279 -32 m 303 1017 q 272 942 303 972 q 196 911 240 911 q 121 942 151 911 q 90 1017 90 972 q 121 1093 90 1063 q 196 1124 151 1124 q 272 1093 240 1124 q 303 1017 303 1063 z "},"k":{"ha":740,"x_min":99,"x_max":725,"o":"m 251 232 l 251 56 q 175 -10 251 -10 q 99 56 99 -10 l 99 1044 q 175 1111 99 1111 q 251 1044 251 1111 l 251 456 q 328 545 286 497 q 413 642 371 593 q 497 740 456 692 q 575 829 539 788 l 575 828 q 625 857 600 857 q 652 851 639 857 q 681 833 665 844 l 679 833 q 713 778 713 806 q 708 756 713 768 q 694 736 704 744 l 251 232 m 715 93 q 725 56 725 75 q 683 1 725 19 q 633 -15 656 -15 q 604 -5 618 -15 q 582 21 590 6 l 443 289 q 431 331 431 310 q 467 389 431 365 q 487 401 476 396 q 510 410 497 407 q 539 404 525 413 q 563 382 553 396 l 715 93 z "},"l":{"ha":350,"x_min":103,"x_max":257,"o":"m 257 54 q 181 -11 257 -11 q 103 54 103 -11 l 103 1050 q 181 1115 103 1115 q 257 1050 257 1115 l 257 54 z "},"m":{"ha":1186,"x_min":97,"x_max":1115,"o":"m 529 604 q 524 640 529 622 q 510 672 518 657 q 435 706 492 706 l 346 706 q 269 672 289 706 q 253 604 253 640 l 253 54 q 176 -11 253 -11 q 97 54 97 -11 l 97 617 q 172 783 97 731 q 321 836 249 836 l 461 836 q 532 824 493 836 q 607 785 571 811 q 680 824 642 811 q 753 836 718 836 l 892 836 q 1039 783 965 836 q 1115 617 1115 732 l 1115 54 q 1038 -11 1115 -11 q 960 54 960 -11 l 960 604 q 956 640 960 622 q 940 674 951 658 l 942 672 q 914 698 931 690 q 865 706 897 706 l 778 706 q 701 672 719 706 q 683 604 683 642 l 683 54 q 607 -11 683 -11 q 529 54 529 -11 l 529 604 z "},"n":{"ha":847,"x_min":99,"x_max":767,"o":"m 251 58 q 175 -8 251 -8 q 99 58 99 -8 l 99 617 q 117 715 99 674 q 174 783 135 757 q 321 836 247 836 l 544 836 q 692 783 615 836 q 767 617 767 731 l 767 58 q 690 -8 767 -8 q 614 58 614 -8 l 614 604 q 592 674 614 640 l 593 672 q 519 706 575 706 l 346 706 q 271 672 289 706 q 251 604 251 643 l 251 58 z "},"o":{"ha":842,"x_min":99,"x_max":765,"o":"m 543 836 q 617 821 579 836 q 692 782 656 806 l 690 782 q 746 713 726 756 q 765 615 765 671 l 765 221 q 690 53 765 107 q 543 0 617 0 l 321 0 q 247 13 285 0 q 174 53 210 25 q 99 221 99 106 l 99 615 q 118 713 99 671 q 174 782 138 756 l 172 782 q 246 821 207 806 q 321 836 285 836 l 543 836 m 518 131 q 591 160 569 131 q 613 222 613 189 l 613 614 q 591 677 613 649 q 518 706 569 706 l 346 706 q 273 677 294 706 q 251 614 251 649 l 251 222 q 273 160 251 189 q 346 131 294 131 l 518 131 z "},"p":{"ha":842,"x_min":99,"x_max":767,"o":"m 379 0 q 326 65 329 0 q 379 131 326 131 l 519 131 q 592 160 571 131 q 614 222 614 189 l 614 614 q 592 678 614 649 q 518 706 571 708 l 251 706 l 251 -129 q 175 -194 251 -194 q 99 -128 99 -194 l 99 754 q 124 819 99 803 q 185 836 149 836 l 544 836 q 617 824 581 836 q 693 789 654 811 q 747 723 726 765 q 767 624 767 681 l 767 213 q 693 50 767 99 q 544 0 615 0 l 379 0 z "},"q":{"ha":844,"x_min":99,"x_max":767,"o":"m 322 0 q 244 8 286 0 q 167 40 203 17 q 113 109 128 64 q 99 213 99 154 l 99 624 q 119 724 99 682 q 174 789 139 765 q 247 824 210 811 q 321 836 285 836 l 544 836 q 617 824 581 836 q 693 789 654 811 q 747 723 726 765 q 767 624 767 681 l 767 -132 q 690 -199 767 -199 q 614 -133 614 -199 l 614 614 q 592 677 614 649 q 519 706 571 706 l 346 706 q 273 677 294 706 q 251 614 251 649 l 251 222 q 273 160 251 189 q 346 131 294 131 l 490 131 q 540 65 540 131 q 528 19 540 38 q 490 0 517 0 l 322 0 z "},"r":{"ha":547,"x_min":93,"x_max":531,"o":"m 249 58 q 172 -8 249 -8 q 93 58 93 -8 l 93 633 q 161 792 93 747 q 318 836 229 836 l 476 836 q 528 771 528 836 q 476 706 531 706 l 329 706 q 264 686 279 706 q 249 632 249 667 l 249 58 z "},"s":{"ha":854,"x_min":92,"x_max":772,"o":"m 550 486 q 624 470 585 486 q 699 431 664 454 l 697 431 q 753 363 733 404 q 772 263 772 321 l 772 221 q 697 53 772 107 q 624 13 661 25 q 550 0 586 0 l 314 0 q 240 13 278 0 q 167 53 203 25 q 92 221 92 106 l 92 238 q 168 296 92 297 q 246 238 246 296 l 246 222 q 267 160 246 189 q 340 131 288 131 l 524 131 q 597 160 576 131 q 618 222 618 189 l 618 261 q 613 296 618 279 q 597 326 608 313 q 568 347 586 339 q 524 356 550 356 l 321 356 q 172 406 250 356 q 99 568 99 453 l 99 615 q 118 713 99 671 q 174 782 138 756 l 172 782 q 246 821 207 806 q 321 836 285 836 l 543 836 q 617 821 579 836 q 692 782 656 806 l 690 782 q 746 713 726 756 q 765 615 765 671 l 765 603 q 746 560 765 574 q 689 546 726 547 q 613 603 613 544 l 613 614 q 591 677 613 649 q 518 706 569 706 l 346 706 q 273 677 294 706 q 251 614 251 649 l 251 581 q 273 515 251 544 q 346 486 294 486 l 550 486 z "},"t":{"ha":471,"x_min":18,"x_max":451,"o":"m 281 706 l 281 200 q 296 144 281 164 q 361 125 311 125 l 397 125 q 449 61 451 125 q 397 -4 449 -4 l 351 -4 q 268 8 307 -4 q 193 42 229 19 l 193 40 q 125 199 125 85 l 125 706 l 71 706 q 18 771 21 706 q 71 836 18 836 l 125 836 l 125 985 q 204 1051 125 1051 q 281 985 281 1051 l 281 836 l 396 836 q 447 771 450 836 q 396 706 447 706 l 281 706 z "},"u":{"ha":842,"x_min":99,"x_max":767,"o":"m 767 221 q 747 122 767 165 q 692 53 728 79 l 693 53 q 619 15 658 29 q 544 0 581 0 l 321 0 q 247 15 286 0 q 172 53 207 29 l 174 53 q 118 122 138 79 q 99 221 99 165 l 99 778 q 175 844 99 844 q 251 778 251 844 l 251 232 q 271 164 251 193 q 346 131 289 131 l 519 131 q 593 164 575 131 l 592 163 q 614 232 614 196 l 614 778 q 690 844 614 844 q 767 778 767 844 l 767 221 z "},"v":{"ha":767,"x_min":19,"x_max":751,"o":"m 382 -8 q 375 -8 379 -8 q 367 -7 371 -7 q 347 -7 360 -7 q 324 -6 335 -7 q 283 8 300 -4 q 260 36 267 19 l 26 753 q 34 805 19 782 q 81 839 49 828 q 100 843 90 842 q 117 844 110 844 q 176 797 160 844 l 278 482 l 385 151 l 593 797 q 649 846 608 846 q 688 839 664 846 q 738 806 724 829 q 742 753 751 783 l 510 36 q 444 -6 497 -3 q 438 -6 442 -6 q 432 -7 435 -7 q 413 -8 421 -8 q 397 -8 404 -8 l 382 -8 z "},"w":{"ha":997,"x_min":10,"x_max":1004,"o":"m 390 43 l 392 44 q 354 3 382 13 q 299 -7 326 -7 q 244 3 272 -7 q 207 44 215 13 l 208 43 l 26 763 q 81 840 10 821 q 168 793 149 858 l 168 794 l 281 342 l 318 342 l 431 794 q 462 833 438 824 q 507 842 486 842 q 553 831 531 842 q 585 794 576 821 q 608 701 597 744 q 628 618 618 658 q 647 539 638 578 q 667 458 656 500 l 697 340 l 735 340 q 791 567 763 453 q 847 794 819 682 l 846 793 q 933 840 865 858 q 988 763 1004 824 l 807 43 l 808 44 q 772 3 800 13 q 715 -7 743 -7 q 661 3 689 -7 q 624 44 633 13 l 625 43 l 526 433 l 489 433 l 390 43 z "},"x":{"ha":699,"x_min":14,"x_max":688,"o":"m 444 425 l 678 96 q 688 65 688 82 q 646 7 688 36 q 596 -11 619 -11 q 567 -1 582 -11 q 540 24 553 8 l 350 292 q 305 228 329 263 q 256 158 281 193 q 206 88 231 122 q 161 24 182 53 q 104 -11 135 -11 q 54 7 78 -11 q 24 34 35 21 q 14 64 14 47 q 25 96 14 81 l 256 425 q 147 579 204 499 q 39 735 90 660 q 28 756 33 744 q 24 775 24 768 q 63 829 24 804 l 61 829 q 87 841 75 836 q 110 846 99 846 q 175 806 147 846 l 350 557 l 525 806 q 590 846 554 846 q 614 841 603 846 q 639 829 625 836 l 638 829 q 678 775 678 804 q 661 735 678 758 l 444 425 z "},"y":{"ha":688,"x_min":13,"x_max":676,"o":"m 143 -194 q 92 -129 94 -194 q 143 -64 92 -64 l 204 -64 q 268 -35 253 -64 l 288 17 l 294 39 l 24 749 l 24 747 q 28 804 13 781 q 78 839 44 828 q 118 846 103 846 q 168 799 158 846 l 278 525 l 371 297 l 519 796 q 578 846 532 846 q 614 839 589 846 q 662 807 647 829 q 668 754 676 785 q 541 326 606 542 q 414 -100 476 111 q 392 -131 407 -115 q 354 -162 378 -147 q 296 -185 331 -176 q 215 -194 261 -194 l 143 -194 z "},"z":{"ha":694,"x_min":25,"x_max":678,"o":"m 89 706 q 36 771 39 706 q 89 836 36 836 l 571 836 q 641 822 615 836 q 669 782 667 807 q 669 738 671 760 q 658 704 667 715 l 232 131 l 625 131 q 675 65 675 131 q 664 16 678 32 q 625 0 650 0 l 126 0 q 29 53 36 0 q 39 132 25 101 l 467 706 l 89 706 z "},"{":{"ha":694,"x_min":85,"x_max":633,"o":"m 519 -187 q 349 -149 396 -187 l 350 -149 q 301 14 301 -107 l 301 233 q 293 323 301 286 q 265 383 285 360 q 213 416 246 406 q 132 426 181 426 q 88 486 90 426 q 132 549 85 549 q 263 592 224 549 q 301 742 301 636 l 301 961 q 363 1131 301 1090 q 424 1155 383 1147 q 519 1163 464 1163 l 585 1163 q 626 1103 626 1163 q 583 1044 628 1044 l 539 1044 q 456 1026 492 1044 q 442 994 449 1015 q 435 942 435 972 l 435 701 q 395 569 435 622 q 289 486 356 515 q 395 408 356 460 q 435 274 435 356 l 435 33 q 442 -25 435 -4 q 463 -54 450 -46 q 539 -69 489 -69 l 585 -69 q 632 -128 632 -69 q 585 -187 633 -187 l 519 -187 z "},"|":{"ha":694,"x_min":292,"x_max":404,"o":"m 292 -226 l 292 1203 l 404 1203 l 404 -226 l 292 -226 z "},"}":{"ha":694,"x_min":64,"x_max":614,"o":"m 563 426 q 481 416 514 426 q 429 383 449 406 q 402 323 410 360 q 394 233 394 286 l 394 14 q 382 -88 394 -49 q 346 -149 369 -128 l 347 -149 q 175 -187 297 -187 l 110 -187 q 64 -128 64 -187 q 110 -69 64 -69 l 156 -69 q 201 -65 183 -69 q 232 -54 219 -61 q 253 -25 246 -46 q 260 33 260 -4 l 260 274 q 299 408 260 357 q 407 486 338 460 q 300 567 340 514 q 260 701 260 619 l 260 942 q 232 1029 260 1013 q 201 1040 219 1036 q 156 1044 183 1044 l 110 1044 q 67 1103 67 1044 q 110 1163 68 1163 l 175 1163 q 342 1125 292 1163 q 394 961 394 1088 l 394 742 q 433 592 394 636 q 563 549 471 549 q 607 486 614 549 q 563 426 606 426 z "},"가":{"ha":1354,"x_min":17,"x_max":1328,"o":"m 1328 649 q 1297 573 1328 604 q 1221 542 1265 542 q 1145 573 1176 542 q 1114 649 1114 604 q 1145 724 1114 693 q 1221 756 1176 756 q 1297 724 1265 756 q 1328 649 1328 693 m 1068 31 q 985 -36 1068 -36 q 903 31 903 -36 l 903 1078 q 985 1144 903 1144 q 1068 1078 1068 1144 l 1068 31 m 153 101 q 45 136 74 72 q 72 224 17 200 q 394 441 225 289 q 563 790 563 593 l 563 960 q 561 969 563 965 q 550 974 560 974 l 121 974 q 69 1044 69 974 q 121 1114 68 1114 l 640 1114 q 709 1088 690 1114 q 728 1031 728 1063 l 728 747 q 588 405 728 601 q 153 101 447 208 z "},"각":{"ha":1389,"x_min":17,"x_max":1328,"o":"m 1321 -19 q 1238 -86 1321 -86 q 1156 -19 1156 -86 l 1156 271 q 1154 281 1156 276 q 1143 285 1153 285 l 532 285 q 480 355 481 285 q 532 425 479 425 l 1233 425 q 1302 399 1283 425 q 1321 342 1321 374 l 1321 -19 m 1328 818 q 1297 742 1328 774 q 1221 711 1265 711 q 1145 742 1176 711 q 1114 818 1114 774 q 1145 894 1114 863 q 1221 925 1176 925 q 1297 894 1265 925 q 1328 818 1328 863 m 1068 521 q 985 454 1068 454 q 903 521 903 454 l 903 1078 q 985 1144 903 1144 q 1068 1078 1068 1144 l 1068 521 m 728 853 q 593 563 728 732 q 153 290 458 393 q 45 328 74 264 q 72 413 17 393 q 395 595 228 468 q 563 868 563 722 l 563 960 q 561 969 563 965 q 550 974 560 974 l 121 974 q 69 1044 69 974 q 121 1114 68 1114 l 640 1114 q 709 1088 690 1114 q 728 1031 728 1063 l 728 853 z "},"간":{"ha":1389,"x_min":17,"x_max":1328,"o":"m 585 -68 q 516 -42 535 -68 q 497 15 497 -17 l 497 358 q 580 425 497 425 q 663 358 663 425 l 663 86 q 664 76 663 81 q 675 72 665 72 l 1272 72 q 1324 2 1324 72 q 1272 -68 1325 -68 l 585 -68 m 728 853 q 593 563 728 732 q 153 290 458 393 q 45 328 74 264 q 72 413 17 393 q 395 595 228 468 q 563 868 563 722 l 563 960 q 561 969 563 965 q 550 974 560 974 l 121 974 q 69 1044 69 974 q 121 1114 68 1114 l 640 1114 q 709 1088 690 1114 q 728 1031 728 1063 l 728 853 m 1328 760 q 1297 684 1328 715 q 1221 653 1265 653 q 1145 684 1176 653 q 1114 760 1114 715 q 1145 835 1114 804 q 1221 867 1176 867 q 1297 835 1265 867 q 1328 760 1328 804 m 1068 358 q 985 292 1068 292 q 903 358 903 292 l 903 1078 q 985 1144 903 1144 q 1068 1078 1068 1144 l 1068 358 z "},"갇":{"ha":1389,"x_min":17,"x_max":1358,"o":"m 583 -68 q 515 -42 533 -68 q 496 15 496 -17 l 496 342 q 515 399 496 374 q 583 425 533 425 l 1271 425 q 1325 355 1324 425 q 1271 285 1326 285 l 674 285 q 663 281 664 285 q 661 271 661 276 l 661 86 q 663 76 661 81 q 674 72 664 72 l 1303 72 q 1357 2 1356 72 q 1303 -68 1358 -68 l 583 -68 m 728 853 q 593 563 728 732 q 153 290 458 393 q 45 328 74 264 q 72 413 17 393 q 395 595 228 468 q 563 868 563 722 l 563 960 q 561 969 563 965 q 550 974 560 974 l 121 974 q 69 1044 69 974 q 121 1114 68 1114 l 640 1114 q 709 1088 690 1114 q 728 1031 728 1063 l 728 853 m 1068 521 q 985 454 1068 454 q 903 521 903 454 l 903 1078 q 985 1144 903 1144 q 1068 1078 1068 1144 l 1068 521 m 1328 818 q 1297 742 1328 774 q 1221 711 1265 711 q 1145 742 1176 711 q 1114 818 1114 774 q 1145 894 1114 863 q 1221 925 1176 925 q 1297 894 1265 925 q 1328 818 1328 863 z "},"갈":{"ha":1389,"x_min":17,"x_max":1357,"o":"m 1328 843 q 1297 767 1328 799 q 1221 736 1265 736 q 1145 767 1176 736 q 1114 843 1114 799 q 1145 919 1114 888 q 1221 950 1176 950 q 1297 919 1265 950 q 1328 843 1328 888 m 1068 581 q 985 514 1068 514 q 903 581 903 514 l 903 1079 q 985 1146 903 1146 q 1068 1079 1068 1146 l 1068 581 m 1321 208 q 1302 151 1321 176 q 1233 125 1283 125 l 674 125 q 663 121 664 125 q 661 111 661 117 l 661 54 q 663 44 661 49 q 674 40 664 40 l 1304 40 q 1356 -30 1357 40 q 1304 -100 1356 -100 l 583 -100 q 515 -74 533 -100 q 496 -17 496 -49 l 496 182 q 515 240 496 214 q 583 265 533 265 l 1143 265 q 1154 269 1153 265 q 1156 279 1156 274 l 1156 336 q 1154 346 1156 342 q 1143 350 1153 350 l 547 350 q 495 420 496 350 q 547 490 494 490 l 1233 490 q 1302 465 1283 490 q 1321 407 1321 439 l 1321 208 m 728 853 q 593 563 728 732 q 153 290 458 393 q 45 328 74 264 q 72 413 17 393 q 395 595 228 468 q 563 868 563 722 l 563 960 q 561 969 563 965 q 550 974 560 974 l 121 974 q 69 1044 69 974 q 121 1114 68 1114 l 640 1114 q 709 1088 690 1114 q 728 1031 728 1063 l 728 853 z "},"갉":{"ha":1389,"x_min":17,"x_max":1328,"o":"m 801 208 q 783 151 801 176 q 714 125 764 125 l 460 125 q 449 121 450 125 q 447 111 447 117 l 447 54 q 449 44 447 49 q 460 40 450 40 l 799 40 q 851 -30 851 40 q 799 -100 850 -100 l 369 -100 q 301 -74 319 -100 q 282 -17 282 -49 l 282 182 q 301 240 282 214 q 369 265 319 265 l 624 265 q 635 269 633 265 q 636 279 636 274 l 636 336 q 635 346 636 342 q 624 350 633 350 l 326 350 q 274 419 275 350 q 153 374 217 394 q 45 412 74 347 q 72 496 17 476 q 395 658 228 551 q 563 910 563 764 l 563 960 q 561 969 563 965 q 550 974 560 974 l 121 974 q 69 1044 69 974 q 121 1114 68 1114 l 640 1114 q 709 1088 690 1114 q 728 1031 728 1063 l 728 894 q 593 625 728 774 q 419 490 526 551 l 714 490 q 783 465 764 490 q 801 407 801 439 l 801 208 m 1321 -39 q 1238 -106 1321 -106 q 1156 -39 1156 -106 l 1156 336 q 1154 346 1156 342 q 1143 350 1153 350 l 871 350 q 819 420 819 350 q 871 490 818 490 l 1233 490 q 1302 465 1283 490 q 1321 407 1321 439 l 1321 -39 m 1068 581 q 985 514 1068 514 q 903 581 903 514 l 903 1079 q 985 1146 903 1146 q 1068 1079 1068 1146 l 1068 581 m 1328 843 q 1297 767 1328 799 q 1221 736 1265 736 q 1145 767 1176 736 q 1114 843 1114 799 q 1145 919 1114 888 q 1221 950 1176 950 q 1297 919 1265 950 q 1328 843 1328 888 z "},"갊":{"ha":1389,"x_min":17,"x_max":1328,"o":"m 774 208 q 755 151 774 176 q 686 125 736 125 l 460 125 q 449 121 450 125 q 447 111 447 117 l 447 54 q 449 44 447 49 q 460 40 450 40 l 757 40 q 809 -30 810 40 q 757 -100 808 -100 l 369 -100 q 301 -74 319 -100 q 282 -17 282 -49 l 282 182 q 301 240 282 214 q 369 265 319 265 l 596 265 q 607 269 606 265 q 608 279 608 274 l 608 336 q 607 346 608 342 q 596 350 606 350 l 326 350 q 274 419 275 350 q 153 374 217 394 q 45 412 74 347 q 72 496 17 476 q 395 658 228 551 q 563 910 563 764 l 563 960 q 561 969 563 965 q 550 974 560 974 l 121 974 q 69 1044 69 974 q 121 1114 68 1114 l 640 1114 q 709 1088 690 1114 q 728 1031 728 1063 l 728 894 q 593 625 728 774 q 419 490 526 551 l 686 490 q 755 465 736 490 q 774 407 774 439 l 774 208 m 1321 -17 q 1302 -74 1321 -49 q 1233 -100 1283 -100 l 917 -100 q 848 -74 867 -100 q 829 -17 829 -49 l 829 407 q 848 465 829 439 q 917 490 867 490 l 1233 490 q 1302 465 1283 490 q 1321 407 1321 439 l 1321 -17 m 1068 581 q 985 514 1068 514 q 903 581 903 514 l 903 1079 q 985 1146 903 1146 q 1068 1079 1068 1146 l 1068 581 m 1156 336 q 1154 346 1156 342 q 1143 350 1153 350 l 1007 350 q 996 346 997 350 q 994 336 994 342 l 994 54 q 996 44 994 49 q 1007 40 997 40 l 1143 40 q 1154 44 1153 40 q 1156 54 1156 49 l 1156 336 m 1328 843 q 1297 767 1328 799 q 1221 736 1265 736 q 1145 767 1176 736 q 1114 843 1114 799 q 1145 919 1114 888 q 1221 950 1176 950 q 1297 919 1265 950 q 1328 843 1328 888 z "},"감":{"ha":1389,"x_min":17,"x_max":1328,"o":"m 1068 521 q 985 454 1068 454 q 903 521 903 454 l 903 1078 q 985 1144 903 1144 q 1068 1078 1068 1144 l 1068 521 m 1321 15 q 1302 -42 1321 -17 q 1233 -68 1283 -68 l 583 -68 q 515 -42 533 -68 q 496 15 496 -17 l 496 342 q 515 399 496 374 q 583 425 533 425 l 1233 425 q 1302 399 1283 425 q 1321 342 1321 374 l 1321 15 m 1156 271 q 1154 281 1156 276 q 1143 285 1153 285 l 674 285 q 663 281 664 285 q 661 271 661 276 l 661 86 q 663 76 661 81 q 674 72 664 72 l 1143 72 q 1154 76 1153 72 q 1156 86 1156 81 l 1156 271 m 728 853 q 593 563 728 732 q 153 290 458 393 q 45 328 74 264 q 72 413 17 393 q 395 595 228 468 q 563 868 563 722 l 563 960 q 561 969 563 965 q 550 974 560 974 l 121 974 q 69 1044 69 974 q 121 1114 68 1114 l 640 1114 q 709 1088 690 1114 q 728 1031 728 1063 l 728 853 m 1328 818 q 1297 742 1328 774 q 1221 711 1265 711 q 1145 742 1176 711 q 1114 818 1114 774 q 1145 894 1114 863 q 1221 925 1176 925 q 1297 894 1265 925 q 1328 818 1328 863 z "},"갑":{"ha":1389,"x_min":17,"x_max":1328,"o":"m 1321 -1 q 1301 -59 1319 -33 q 1233 -85 1283 -85 l 583 -85 q 515 -59 533 -85 q 496 -1 496 -33 l 496 400 q 578 467 496 467 q 661 400 661 467 l 661 69 q 663 60 661 64 q 674 56 664 56 l 1143 56 q 1154 60 1153 56 q 1156 69 1156 64 l 1156 179 l 735 179 q 683 249 683 179 q 735 319 682 319 l 1156 319 l 1156 400 q 1238 467 1156 467 q 1321 400 1321 467 l 1321 -1 m 728 853 q 591 566 728 732 q 153 290 454 400 q 46 328 75 263 q 72 413 17 393 q 395 595 228 468 q 563 868 563 722 l 563 960 q 561 969 563 965 q 550 974 560 974 l 121 974 q 69 1044 69 974 q 121 1114 68 1114 l 640 1114 q 709 1088 690 1114 q 728 1031 728 1063 l 728 853 m 1068 496 q 985 429 1068 429 q 903 496 903 429 l 903 1078 q 985 1144 903 1144 q 1068 1078 1068 1144 l 1068 496 m 1328 804 q 1297 728 1328 760 q 1221 697 1265 697 q 1145 728 1176 697 q 1114 804 1114 760 q 1145 880 1114 849 q 1221 911 1176 911 q 1297 880 1265 911 q 1328 804 1328 849 z "},"값":{"ha":1389,"x_min":17,"x_max":1372,"o":"m 1332 35 q 1299 -67 1372 -37 q 1196 -44 1225 -96 l 1029 247 l 864 -44 q 761 -67 835 -96 q 739 -56 749 -61 q 686 -68 721 -68 l 369 -68 q 301 -42 319 -68 q 282 15 282 -17 l 282 417 l 282 422 q 153 374 221 396 q 45 412 74 347 q 72 496 17 476 q 395 658 228 551 q 563 910 563 764 l 563 960 q 561 969 563 965 q 550 974 560 974 l 121 974 q 69 1044 69 974 q 121 1114 68 1114 l 640 1114 q 709 1088 690 1114 q 728 1031 728 1063 l 728 894 q 593 625 728 774 q 400 479 521 546 q 447 417 447 467 l 447 307 q 493 336 458 336 l 608 336 l 608 417 q 691 483 608 483 q 774 417 774 483 l 774 117 l 958 446 q 1029 486 985 494 q 1101 446 1074 494 l 1332 35 m 1068 554 q 985 488 1068 488 q 903 554 903 488 l 903 1078 q 985 1144 903 1144 q 1068 1078 1068 1144 l 1068 554 m 1328 804 q 1297 728 1328 760 q 1221 697 1265 697 q 1145 728 1176 697 q 1114 804 1114 760 q 1145 880 1114 849 q 1221 911 1176 911 q 1297 880 1265 911 q 1328 804 1328 849 m 493 196 q 447 225 460 196 l 447 86 q 449 76 447 81 q 460 72 450 72 l 596 72 q 607 76 606 72 q 608 86 608 81 l 608 196 l 493 196 z "},"갓":{"ha":1389,"x_min":17,"x_max":1328,"o":"m 1328 815 q 1297 740 1328 771 q 1221 708 1265 708 q 1145 740 1176 708 q 1114 815 1114 771 q 1145 891 1114 860 q 1221 922 1176 922 q 1297 891 1265 922 q 1328 815 1328 860 m 1068 475 q 985 408 1068 408 q 903 475 903 408 l 903 1078 q 985 1144 903 1144 q 1068 1078 1068 1144 l 1068 475 m 728 853 q 593 563 728 732 q 153 290 458 393 q 45 328 74 264 q 72 413 17 393 q 395 595 228 468 q 563 868 563 722 l 563 960 q 561 969 563 965 q 550 974 560 974 l 121 974 q 69 1044 69 974 q 121 1114 68 1114 l 640 1114 q 709 1088 690 1114 q 728 1031 728 1063 l 728 853 m 457 -64 q 341 -62 406 -114 q 331 39 276 -11 l 721 415 q 756 436 736 431 q 794 442 775 442 q 834 436 814 442 q 869 415 854 431 l 1260 39 q 1249 -63 1313 -12 q 1133 -64 1186 -114 l 796 271 l 457 -64 z "},"갔":{"ha":1389,"x_min":17,"x_max":1356,"o":"m 1328 832 q 1297 756 1328 788 q 1221 725 1265 725 q 1145 756 1176 725 q 1114 832 1114 788 q 1145 908 1114 876 q 1221 939 1176 939 q 1297 908 1265 939 q 1328 832 1328 876 m 1068 554 q 985 488 1068 488 q 903 554 903 488 l 903 1078 q 985 1144 903 1144 q 1068 1078 1068 1144 l 1068 554 m 728 894 q 593 625 728 774 q 153 374 458 476 q 45 412 74 347 q 72 496 17 476 q 395 658 228 551 q 563 910 563 764 l 563 960 q 561 969 563 965 q 550 974 560 974 l 121 974 q 69 1044 69 974 q 121 1114 68 1114 l 640 1114 q 709 1088 690 1114 q 728 1031 728 1063 l 728 894 m 782 -86 q 741 -81 760 -87 q 711 -56 722 -74 l 546 244 l 379 -56 q 276 -78 350 -107 q 243 24 203 -49 l 467 428 q 500 463 481 453 q 544 472 519 472 q 590 463 571 472 q 624 428 610 453 l 779 147 l 935 428 q 968 463 949 453 q 1013 472 988 472 q 1058 463 1039 472 q 1092 428 1078 453 l 1315 24 q 1282 -78 1356 -49 q 1179 -56 1208 -107 l 1014 244 l 847 -56 q 819 -81 838 -74 q 782 -86 801 -87 z "},"강":{"ha":1389,"x_min":17,"x_max":1328,"o":"m 1068 547 q 985 481 1068 481 q 903 547 903 481 l 903 1078 q 985 1144 903 1144 q 1068 1078 1068 1144 l 1068 547 m 728 853 q 593 563 728 732 q 153 290 458 393 q 45 328 74 264 q 72 413 17 393 q 395 595 228 468 q 563 868 563 722 l 563 960 q 561 969 563 965 q 550 974 560 974 l 121 974 q 69 1044 69 974 q 121 1114 68 1114 l 640 1114 q 709 1088 690 1114 q 728 1031 728 1063 l 728 853 m 1328 832 q 1297 756 1328 788 q 1221 725 1265 725 q 1145 756 1176 725 q 1114 832 1114 788 q 1145 908 1114 876 q 1221 939 1176 939 q 1297 908 1265 939 q 1328 832 1328 876 m 1289 157 q 1193 -48 1289 38 q 960 -133 1097 -133 q 724 -49 821 -133 q 628 157 628 36 q 724 363 628 278 q 960 447 821 447 q 1193 362 1097 447 q 1289 157 1289 276 m 1124 157 q 1076 263 1124 219 q 960 306 1028 306 q 844 263 892 306 q 796 157 796 219 q 844 51 796 94 q 960 8 892 8 q 1076 51 1028 8 q 1124 157 1124 94 z "},"갖":{"ha":1389,"x_min":17,"x_max":1328,"o":"m 457 301 q 404 371 406 301 q 408 408 404 393 q 153 290 300 340 q 45 328 74 264 q 72 413 17 393 q 395 595 228 468 q 563 868 563 722 l 563 960 q 561 969 563 965 q 550 974 560 974 l 121 974 q 69 1044 69 974 q 121 1114 68 1114 l 640 1114 q 709 1088 690 1114 q 728 1031 728 1063 l 728 853 q 589 563 728 732 q 458 442 536 497 l 803 442 q 828 444 815 446 q 857 442 842 447 l 1226 442 q 1280 372 1281 442 q 1226 301 1279 301 l 1007 301 l 1260 39 q 1250 -62 1314 -11 q 1133 -64 1186 -114 l 829 257 l 526 -64 q 410 -62 475 -114 q 400 39 346 -11 l 653 301 l 457 301 m 1068 538 q 985 471 1068 471 q 903 538 903 471 l 903 1078 q 985 1144 903 1144 q 1068 1078 1068 1144 l 1068 538 m 1328 818 q 1297 742 1328 774 q 1221 711 1265 711 q 1145 742 1176 711 q 1114 818 1114 774 q 1145 894 1114 863 q 1221 925 1176 925 q 1297 894 1265 925 q 1328 818 1328 863 z "},"갗":{"ha":1389,"x_min":17,"x_max":1357,"o":"m 404 274 q 351 343 353 274 q 354 375 351 361 q 153 290 265 328 q 45 328 74 264 q 72 413 17 393 q 395 595 228 468 q 563 868 563 722 l 563 960 q 561 969 563 965 q 550 974 560 974 l 121 974 q 69 1044 69 974 q 121 1114 68 1114 l 640 1114 q 709 1088 690 1114 q 728 1031 728 1063 l 728 853 q 593 563 728 732 q 422 414 528 481 l 747 414 l 747 494 q 830 561 747 561 q 913 494 913 561 l 913 414 l 1256 414 q 1309 344 1310 414 q 1256 274 1308 274 l 1021 274 l 1304 39 q 1298 -60 1357 -4 q 1178 -64 1239 -115 l 832 229 l 485 -64 q 365 -60 424 -115 q 358 39 307 -4 l 642 274 l 404 274 m 1068 582 q 985 515 1068 515 q 903 582 903 515 l 903 1078 q 985 1144 903 1144 q 1068 1078 1068 1144 l 1068 582 m 1328 832 q 1297 756 1328 788 q 1221 725 1265 725 q 1145 756 1176 725 q 1114 832 1114 788 q 1145 908 1114 876 q 1221 939 1176 939 q 1297 908 1265 939 q 1328 832 1328 876 z "},"같":{"ha":1389,"x_min":17,"x_max":1358,"o":"m 583 -100 q 515 -74 533 -100 q 496 -17 496 -49 l 496 399 q 515 456 496 431 q 583 482 533 482 l 1271 482 q 1325 412 1324 482 q 1271 342 1326 342 l 674 342 q 663 338 664 342 q 661 328 661 333 l 661 267 l 1268 267 q 1320 197 1321 267 q 1268 126 1319 126 l 661 126 l 661 54 q 663 44 661 49 q 674 40 664 40 l 1303 40 q 1357 -30 1356 40 q 1303 -100 1358 -100 l 583 -100 m 728 853 q 593 563 728 732 q 153 290 458 393 q 45 328 74 264 q 72 413 17 393 q 395 595 228 468 q 563 868 563 722 l 563 960 q 561 969 563 965 q 550 974 560 974 l 121 974 q 69 1044 69 974 q 121 1114 68 1114 l 640 1114 q 709 1088 690 1114 q 728 1031 728 1063 l 728 853 m 1068 581 q 985 514 1068 514 q 903 581 903 514 l 903 1079 q 985 1146 903 1146 q 1068 1079 1068 1146 l 1068 581 m 1328 843 q 1297 767 1328 799 q 1221 736 1265 736 q 1145 767 1176 736 q 1114 843 1114 799 q 1145 919 1114 888 q 1221 950 1176 950 q 1297 919 1265 950 q 1328 843 1328 888 z "},"갚":{"ha":1389,"x_min":17,"x_max":1336,"o":"m 443 318 q 390 388 392 318 l 390 394 q 153 290 289 336 q 45 328 74 264 q 72 413 17 393 q 395 595 228 468 q 563 868 563 722 l 563 960 q 561 969 563 965 q 550 974 560 974 l 121 974 q 69 1044 69 974 q 121 1114 68 1114 l 640 1114 q 709 1088 690 1114 q 728 1031 728 1063 l 728 853 q 593 563 728 732 q 486 458 549 507 l 1240 458 q 1294 388 1294 458 q 1240 318 1293 318 l 443 318 m 401 -85 q 349 -15 350 -85 q 401 56 349 56 l 563 56 l 563 239 q 645 306 563 306 q 728 239 728 306 l 728 56 l 958 56 l 958 239 q 1041 306 958 306 q 1124 239 1124 306 l 1124 56 l 1282 56 q 1335 -15 1336 56 q 1282 -85 1335 -85 l 401 -85 m 1068 540 q 985 474 1068 474 q 903 540 903 474 l 903 1078 q 985 1144 903 1144 q 1068 1078 1068 1144 l 1068 540 m 1328 818 q 1297 742 1328 774 q 1221 711 1265 711 q 1145 742 1176 711 q 1114 818 1114 774 q 1145 894 1114 863 q 1221 925 1176 925 q 1297 894 1265 925 q 1328 818 1328 863 z "},"갛":{"ha":1389,"x_min":17,"x_max":1328,"o":"m 471 269 q 419 340 419 269 q 471 410 418 410 l 789 410 l 789 490 q 871 557 789 557 q 907 553 892 557 q 903 582 903 565 l 903 1078 q 985 1144 903 1144 q 1068 1078 1068 1144 l 1068 582 q 985 515 1068 515 q 949 519 965 515 q 954 490 954 507 l 954 410 l 1268 410 q 1322 340 1322 410 q 1268 269 1321 269 l 1113 269 q 1161 126 1161 207 q 1076 -56 1161 21 q 872 -133 992 -133 q 665 -57 750 -133 q 581 126 581 19 q 628 269 581 206 l 471 269 m 728 853 q 593 563 728 732 q 153 290 458 393 q 45 328 74 264 q 72 413 17 393 q 395 595 228 468 q 563 868 563 722 l 563 960 q 561 969 563 965 q 550 974 560 974 l 121 974 q 69 1044 69 974 q 121 1114 68 1114 l 640 1114 q 709 1088 690 1114 q 728 1031 728 1063 l 728 853 m 996 126 q 959 211 996 176 q 872 246 922 246 q 784 211 821 246 q 747 126 747 176 q 784 42 747 76 q 872 7 821 7 q 959 42 922 7 q 996 126 996 76 m 1328 832 q 1297 756 1328 788 q 1221 725 1265 725 q 1145 756 1176 725 q 1114 832 1114 788 q 1145 908 1114 876 q 1221 939 1176 939 q 1297 908 1265 939 q 1328 832 1328 876 z "},"개":{"ha":1354,"x_min":17,"x_max":1222,"o":"m 942 31 q 859 -36 942 -36 q 776 31 776 -36 l 776 1078 q 859 1144 776 1144 q 942 1078 942 1144 l 942 692 l 1024 692 q 1057 681 1044 692 l 1057 1078 q 1140 1144 1057 1144 q 1222 1078 1222 1144 l 1222 31 q 1140 -36 1222 -36 q 1057 31 1057 -36 l 1057 563 q 1024 551 1044 551 l 942 551 l 942 31 m 153 101 q 47 135 76 69 q 72 224 17 200 q 358 442 225 289 q 492 790 492 594 l 492 960 q 490 969 492 965 q 479 974 489 974 l 121 974 q 69 1044 69 974 q 121 1114 68 1114 l 569 1114 q 638 1088 619 1114 q 657 1031 657 1063 l 657 761 q 549 431 657 642 q 153 101 442 221 z "},"객":{"ha":1389,"x_min":17,"x_max":1321,"o":"m 942 525 q 859 458 942 458 q 776 525 776 458 l 776 1078 q 859 1144 776 1144 q 942 1078 942 1144 l 942 872 l 1024 872 q 1057 861 1044 872 l 1057 1078 q 1140 1144 1057 1144 q 1222 1078 1222 1144 l 1222 525 q 1140 458 1222 458 q 1057 525 1057 458 l 1057 743 q 1024 732 1044 732 l 942 732 l 942 525 m 656 867 q 558 583 656 765 q 153 290 461 401 q 47 328 76 263 q 72 413 17 393 q 359 593 228 468 q 490 868 490 718 l 490 960 q 489 969 490 965 q 478 974 488 974 l 121 974 q 69 1044 69 974 q 121 1114 68 1114 l 568 1114 q 637 1088 618 1114 q 656 1031 656 1063 l 656 867 m 1321 -17 q 1238 -83 1321 -83 q 1156 -17 1156 -83 l 1156 271 q 1154 281 1156 276 q 1143 285 1153 285 l 518 285 q 466 355 467 285 q 518 425 465 425 l 1233 425 q 1302 399 1283 425 q 1321 342 1321 374 l 1321 -17 z "},"갠":{"ha":1389,"x_min":17,"x_max":1325,"o":"m 942 360 q 859 293 942 293 q 776 360 776 293 l 776 1078 q 859 1144 776 1144 q 942 1078 942 1144 l 942 817 l 1024 817 q 1057 806 1044 817 l 1057 1078 q 1140 1144 1057 1144 q 1222 1078 1222 1144 l 1222 360 q 1140 293 1222 293 q 1057 360 1057 293 l 1057 688 q 1024 676 1044 676 l 942 676 l 942 360 m 656 867 q 558 578 656 754 q 153 290 461 401 q 47 328 76 263 q 72 413 17 393 q 359 593 228 468 q 490 868 490 718 l 490 960 q 489 969 490 965 q 478 974 488 974 l 121 974 q 69 1044 69 974 q 121 1114 68 1114 l 568 1114 q 637 1088 618 1114 q 656 1031 656 1063 l 656 867 m 585 -68 q 516 -42 535 -68 q 497 15 497 -17 l 497 358 q 580 425 497 425 q 663 358 663 425 l 663 86 q 664 76 663 81 q 675 72 665 72 l 1272 72 q 1324 2 1324 72 q 1272 -68 1325 -68 l 585 -68 z "},"갤":{"ha":1389,"x_min":17,"x_max":1357,"o":"m 1321 208 q 1302 151 1321 176 q 1233 125 1283 125 l 674 125 q 663 121 664 125 q 661 111 661 117 l 661 54 q 663 44 661 49 q 674 40 664 40 l 1304 40 q 1356 -30 1357 40 q 1304 -100 1356 -100 l 583 -100 q 515 -74 533 -100 q 496 -17 496 -49 l 496 182 q 515 240 496 214 q 583 265 533 265 l 1143 265 q 1154 269 1153 265 q 1156 279 1156 274 l 1156 336 q 1154 346 1156 342 q 1143 350 1153 350 l 540 350 q 488 420 489 350 q 540 490 488 490 l 1233 490 q 1302 465 1283 490 q 1321 407 1321 439 l 1321 208 m 656 867 q 558 579 656 754 q 153 290 461 404 q 47 328 76 263 q 72 413 17 393 q 359 593 228 468 q 490 868 490 718 l 490 960 q 489 969 490 965 q 478 974 488 974 l 121 974 q 69 1044 69 974 q 121 1114 68 1114 l 568 1114 q 637 1088 618 1114 q 656 1031 656 1063 l 656 867 m 942 588 q 859 521 942 521 q 776 588 776 521 l 776 1078 q 859 1144 776 1144 q 942 1078 942 1144 l 942 906 l 1024 906 q 1057 894 1044 906 l 1057 1078 q 1140 1144 1057 1144 q 1222 1078 1222 1144 l 1222 588 q 1140 521 1222 521 q 1057 588 1057 521 l 1057 776 q 1024 765 1044 765 l 942 765 l 942 588 z "},"갬":{"ha":1389,"x_min":17,"x_max":1321,"o":"m 1321 15 q 1302 -42 1321 -17 q 1233 -68 1283 -68 l 583 -68 q 515 -42 533 -68 q 496 15 496 -17 l 496 342 q 515 399 496 374 q 583 425 533 425 l 1233 425 q 1302 399 1283 425 q 1321 342 1321 374 l 1321 15 m 942 524 q 859 457 942 457 q 776 524 776 457 l 776 1078 q 859 1144 776 1144 q 942 1078 942 1144 l 942 872 l 1024 872 q 1057 861 1044 872 l 1057 1078 q 1140 1144 1057 1144 q 1222 1078 1222 1144 l 1222 524 q 1140 457 1222 457 q 1057 524 1057 457 l 1057 743 q 1024 732 1044 732 l 942 732 l 942 524 m 656 867 q 558 578 656 754 q 153 290 461 401 q 47 328 76 263 q 72 413 17 393 q 359 593 228 468 q 490 868 490 718 l 490 960 q 489 969 490 965 q 478 974 488 974 l 121 974 q 69 1044 69 974 q 121 1114 68 1114 l 568 1114 q 637 1088 618 1114 q 656 1031 656 1063 l 656 867 m 1156 271 q 1154 281 1156 276 q 1143 285 1153 285 l 674 285 q 663 281 664 285 q 661 271 661 276 l 661 86 q 663 76 661 81 q 674 72 664 72 l 1143 72 q 1154 76 1153 72 q 1156 86 1156 81 l 1156 271 z "},"갭":{"ha":1389,"x_min":17,"x_max":1321,"o":"m 1321 -1 q 1301 -59 1319 -33 q 1233 -85 1283 -85 l 583 -85 q 515 -59 533 -85 q 496 -1 496 -33 l 496 400 q 578 467 496 467 q 661 400 661 467 l 661 69 q 663 60 661 64 q 674 56 664 56 l 1143 56 q 1154 60 1153 56 q 1156 69 1156 64 l 1156 179 l 735 179 q 683 249 683 179 q 735 319 682 319 l 1156 319 l 1156 400 q 1238 467 1156 467 q 1321 400 1321 467 l 1321 -1 m 942 549 q 859 482 942 482 q 776 549 776 482 l 776 1078 q 859 1144 776 1144 q 942 1078 942 1144 l 942 886 l 1024 886 q 1057 875 1044 886 l 1057 1078 q 1140 1144 1057 1144 q 1222 1078 1222 1144 l 1222 549 q 1140 482 1222 482 q 1057 549 1057 482 l 1057 757 q 1024 746 1044 746 l 942 746 l 942 549 m 656 867 q 558 581 656 757 q 153 290 461 404 q 47 328 76 263 q 72 413 17 393 q 359 593 228 468 q 490 868 490 718 l 490 960 q 489 969 490 965 q 478 974 488 974 l 121 974 q 69 1044 69 974 q 121 1114 68 1114 l 568 1114 q 637 1088 618 1114 q 656 1031 656 1063 l 656 867 z "},"갯":{"ha":1389,"x_min":17,"x_max":1368,"o":"m 942 517 q 859 450 942 450 q 776 517 776 450 l 776 1078 q 859 1144 776 1144 q 942 1078 942 1144 l 942 886 l 1024 886 q 1057 875 1044 886 l 1057 1078 q 1140 1144 1057 1144 q 1222 1078 1222 1144 l 1222 461 q 1140 394 1222 394 q 1057 461 1057 394 l 1057 757 q 1024 746 1044 746 l 942 746 l 942 517 m 656 867 q 558 577 656 753 q 153 290 461 401 q 47 328 76 263 q 72 413 17 393 q 359 593 228 468 q 490 868 490 718 l 490 960 q 489 969 490 965 q 478 974 488 974 l 121 974 q 69 1044 69 974 q 121 1114 68 1114 l 568 1114 q 637 1088 618 1114 q 656 1031 656 1063 l 656 867 m 513 -64 q 397 -62 461 -114 q 386 39 332 -11 l 776 415 q 811 436 792 431 q 850 442 831 442 q 890 436 869 442 q 925 415 910 431 l 1315 39 q 1305 -63 1368 -12 q 1189 -64 1242 -114 l 851 271 l 513 -64 z "},"갰":{"ha":1389,"x_min":17,"x_max":1397,"o":"m 824 -83 q 783 -78 801 -85 q 753 -53 764 -71 l 588 247 l 421 -53 q 318 -75 392 -104 q 285 26 244 -46 l 508 431 q 542 465 522 456 q 586 475 561 475 q 632 465 613 475 q 665 431 651 456 l 821 150 l 976 431 q 1010 465 990 456 q 1054 475 1029 475 q 1100 465 1081 475 q 1133 431 1119 456 l 1357 26 q 1324 -75 1397 -46 q 1221 -53 1250 -104 l 1056 247 l 889 -53 q 861 -78 879 -71 q 824 -83 843 -85 m 942 565 q 859 499 942 499 q 776 565 776 499 l 776 1078 q 859 1144 776 1144 q 942 1078 942 1144 l 942 900 l 1024 900 q 1057 889 1044 900 l 1057 1078 q 1140 1144 1057 1144 q 1222 1078 1222 1144 l 1222 565 q 1140 499 1222 499 q 1057 565 1057 499 l 1057 771 q 1024 760 1044 760 l 942 760 l 942 565 m 656 867 q 558 581 656 753 q 153 290 461 410 q 47 327 76 261 q 72 413 17 393 q 359 593 228 468 q 490 868 490 718 l 490 960 q 489 969 490 965 q 478 974 488 974 l 121 974 q 69 1044 69 974 q 121 1114 68 1114 l 568 1114 q 637 1088 618 1114 q 656 1031 656 1063 l 656 867 z "},"갱":{"ha":1389,"x_min":17,"x_max":1289,"o":"m 1289 157 q 1193 -48 1289 38 q 960 -133 1097 -133 q 724 -49 821 -133 q 628 157 628 36 q 724 363 628 278 q 960 447 821 447 q 1193 362 1097 447 q 1289 157 1289 276 m 942 536 q 859 469 942 469 q 776 536 776 469 l 776 1078 q 859 1144 776 1144 q 942 1078 942 1144 l 942 900 l 1024 900 q 1057 889 1044 900 l 1057 1078 q 1140 1144 1057 1144 q 1222 1078 1222 1144 l 1222 522 q 1140 456 1222 456 q 1057 522 1057 456 l 1057 771 q 1024 760 1044 760 l 942 760 l 942 536 m 656 867 q 558 581 656 761 q 153 290 461 401 q 47 328 76 263 q 72 413 17 393 q 359 593 228 468 q 490 868 490 718 l 490 960 q 489 969 490 965 q 478 974 488 974 l 121 974 q 69 1044 69 974 q 121 1114 68 1114 l 568 1114 q 637 1088 618 1114 q 656 1031 656 1063 l 656 867 m 1124 157 q 1076 263 1124 219 q 960 306 1028 306 q 844 263 892 306 q 796 157 796 219 q 844 51 796 94 q 960 8 892 8 q 1076 51 1028 8 q 1124 157 1124 94 z "},"갸":{"ha":1354,"x_min":17,"x_max":1328,"o":"m 1328 399 q 1297 323 1328 354 q 1221 292 1265 292 q 1145 323 1176 292 q 1114 399 1114 354 q 1145 474 1114 443 q 1221 506 1176 506 q 1297 474 1265 506 q 1328 399 1328 443 m 1068 31 q 985 -36 1068 -36 q 903 31 903 -36 l 903 1078 q 985 1144 903 1144 q 1068 1078 1068 1144 l 1068 31 m 153 101 q 45 136 74 72 q 72 224 17 200 q 404 441 225 289 q 583 790 583 593 l 583 960 q 582 969 583 965 q 571 974 581 974 l 121 974 q 69 1044 69 974 q 121 1114 68 1114 l 661 1114 q 730 1088 711 1114 q 749 1031 749 1063 l 749 747 q 598 405 749 601 q 153 101 447 208 m 1328 801 q 1297 726 1328 757 q 1221 694 1265 694 q 1145 726 1176 694 q 1114 801 1114 757 q 1145 877 1114 846 q 1221 908 1176 908 q 1297 877 1265 908 q 1328 801 1328 846 z "},"갹":{"ha":1389,"x_min":17,"x_max":1328,"o":"m 1321 -19 q 1238 -86 1321 -86 q 1156 -19 1156 -86 l 1156 271 q 1154 281 1156 276 q 1143 285 1153 285 l 532 285 q 480 355 481 285 q 532 425 479 425 l 1233 425 q 1302 399 1283 425 q 1321 342 1321 374 l 1321 -19 m 1068 521 q 985 454 1068 454 q 903 521 903 454 l 903 1078 q 985 1144 903 1144 q 1068 1078 1068 1144 l 1068 521 m 749 853 q 603 563 749 732 q 153 290 458 393 q 45 328 74 264 q 72 413 17 393 q 406 595 228 468 q 583 868 583 722 l 583 960 q 582 969 583 965 q 571 974 581 974 l 121 974 q 69 1044 69 974 q 121 1114 68 1114 l 661 1114 q 730 1088 711 1114 q 749 1031 749 1063 l 749 853 m 1328 663 q 1297 587 1328 618 q 1221 556 1265 556 q 1145 587 1176 556 q 1114 663 1114 618 q 1145 738 1114 707 q 1221 769 1176 769 q 1297 738 1265 769 q 1328 663 1328 707 m 1328 940 q 1297 865 1328 896 q 1221 833 1265 833 q 1145 865 1176 833 q 1114 940 1114 896 q 1145 1016 1114 985 q 1221 1047 1176 1047 q 1297 1016 1265 1047 q 1328 940 1328 985 z "},"갼":{"ha":1389,"x_min":17,"x_max":1328,"o":"m 585 -68 q 516 -42 535 -68 q 497 15 497 -17 l 497 358 q 580 425 497 425 q 663 358 663 425 l 663 86 q 664 76 663 81 q 675 72 665 72 l 1272 72 q 1324 2 1324 72 q 1272 -68 1325 -68 l 585 -68 m 749 853 q 603 563 749 732 q 153 290 458 393 q 45 328 74 264 q 72 413 17 393 q 406 595 228 468 q 583 868 583 722 l 583 960 q 582 969 583 965 q 571 974 581 974 l 121 974 q 69 1044 69 974 q 121 1114 68 1114 l 661 1114 q 730 1088 711 1114 q 749 1031 749 1063 l 749 853 m 1068 358 q 985 292 1068 292 q 903 358 903 292 l 903 1078 q 985 1144 903 1144 q 1068 1078 1068 1144 l 1068 358 m 1328 579 q 1297 503 1328 535 q 1221 472 1265 472 q 1145 503 1176 472 q 1114 579 1114 535 q 1145 655 1114 624 q 1221 686 1176 686 q 1297 655 1265 686 q 1328 579 1328 624 m 1328 899 q 1297 823 1328 854 q 1221 792 1265 792 q 1145 823 1176 792 q 1114 899 1114 854 q 1145 974 1114 943 q 1221 1006 1176 1006 q 1297 974 1265 1006 q 1328 899 1328 943 z "},"걀":{"ha":1389,"x_min":17,"x_max":1357,"o":"m 749 853 q 603 563 749 732 q 529 489 571 524 q 540 490 535 490 l 1233 490 q 1302 465 1283 490 q 1321 407 1321 439 l 1321 208 q 1302 151 1321 176 q 1233 125 1283 125 l 674 125 q 663 121 664 125 q 661 111 661 117 l 661 54 q 663 44 661 49 q 674 40 664 40 l 1304 40 q 1356 -30 1357 40 q 1304 -100 1356 -100 l 583 -100 q 515 -74 533 -100 q 496 -17 496 -49 l 496 182 q 515 240 496 214 q 583 265 533 265 l 1143 265 q 1154 269 1153 265 q 1156 279 1156 274 l 1156 336 q 1154 346 1156 342 q 1143 350 1153 350 l 540 350 q 488 419 489 350 q 494 461 488 444 q 153 290 361 360 q 45 328 74 264 q 72 413 17 393 q 406 595 228 468 q 583 868 583 722 l 583 960 q 582 969 583 965 q 571 974 581 974 l 121 974 q 69 1044 69 974 q 121 1114 68 1114 l 661 1114 q 730 1088 711 1114 q 749 1031 749 1063 l 749 853 m 1068 581 q 985 514 1068 514 q 903 581 903 514 l 903 1079 q 985 1146 903 1146 q 1068 1079 1068 1146 l 1068 581 m 1328 718 q 1297 642 1328 674 q 1221 611 1265 611 q 1145 642 1176 611 q 1114 718 1114 674 q 1145 794 1114 763 q 1221 825 1176 825 q 1297 794 1265 825 q 1328 718 1328 763 m 1328 968 q 1297 892 1328 924 q 1221 861 1265 861 q 1145 892 1176 861 q 1114 968 1114 924 q 1145 1044 1114 1013 q 1221 1075 1176 1075 q 1297 1044 1265 1075 q 1328 968 1328 1013 z "},"걋":{"ha":1389,"x_min":17,"x_max":1328,"o":"m 1068 489 q 985 422 1068 422 q 903 489 903 422 l 903 1078 q 985 1144 903 1144 q 1068 1078 1068 1144 l 1068 489 m 749 853 q 603 563 749 732 q 153 290 458 393 q 45 328 74 264 q 72 413 17 393 q 406 595 228 468 q 583 868 583 722 l 583 960 q 582 969 583 965 q 571 974 581 974 l 121 974 q 69 1044 69 974 q 121 1114 68 1114 l 661 1114 q 730 1088 711 1114 q 749 1031 749 1063 l 749 853 m 457 -64 q 341 -62 406 -114 q 331 39 276 -11 l 721 415 q 756 436 736 431 q 794 442 775 442 q 834 436 814 442 q 869 415 854 431 l 1260 39 q 1249 -63 1313 -12 q 1133 -64 1186 -114 l 796 271 l 457 -64 m 1328 621 q 1297 545 1328 576 q 1221 514 1265 514 q 1145 545 1176 514 q 1114 621 1114 576 q 1145 697 1114 665 q 1221 728 1176 728 q 1297 697 1265 728 q 1328 621 1328 665 m 1328 926 q 1297 851 1328 882 q 1221 819 1265 819 q 1145 851 1176 819 q 1114 926 1114 882 q 1145 1002 1114 971 q 1221 1033 1176 1033 q 1297 1002 1265 1033 q 1328 926 1328 971 z "},"걍":{"ha":1389,"x_min":17,"x_max":1328,"o":"m 1068 540 q 985 474 1068 474 q 903 540 903 474 l 903 1078 q 985 1144 903 1144 q 1068 1078 1068 1144 l 1068 540 m 749 853 q 603 563 749 732 q 153 290 458 393 q 45 328 74 264 q 72 413 17 393 q 406 595 228 468 q 583 868 583 722 l 583 960 q 582 969 583 965 q 571 974 581 974 l 121 974 q 69 1044 69 974 q 121 1114 68 1114 l 661 1114 q 730 1088 711 1114 q 749 1031 749 1063 l 749 853 m 1289 157 q 1193 -48 1289 38 q 960 -133 1097 -133 q 724 -49 821 -133 q 628 157 628 36 q 724 363 628 278 q 960 447 821 447 q 1193 362 1097 447 q 1289 157 1289 276 m 1124 157 q 1076 263 1124 219 q 960 306 1028 306 q 844 263 892 306 q 796 157 796 219 q 844 51 796 94 q 960 8 892 8 q 1076 51 1028 8 q 1124 157 1124 94 m 1328 663 q 1297 587 1328 618 q 1221 556 1265 556 q 1145 587 1176 556 q 1114 663 1114 618 q 1145 738 1114 707 q 1221 769 1176 769 q 1297 738 1265 769 q 1328 663 1328 707 m 1328 954 q 1297 878 1328 910 q 1221 847 1265 847 q 1145 878 1176 847 q 1114 954 1114 910 q 1145 1030 1114 999 q 1221 1061 1176 1061 q 1297 1030 1265 1061 q 1328 954 1328 999 z "},"걔":{"ha":1354,"x_min":17,"x_max":1222,"o":"m 935 31 q 852 -36 935 -36 q 769 31 769 -36 l 769 1078 q 852 1144 769 1144 q 935 1078 935 1144 l 935 858 l 1024 858 q 1057 847 1044 858 l 1057 1078 q 1140 1144 1057 1144 q 1222 1078 1222 1144 l 1222 31 q 1140 -36 1222 -36 q 1057 31 1057 -36 l 1057 368 q 1024 357 1044 357 l 935 357 l 935 31 m 153 101 q 47 135 76 69 q 72 224 17 200 q 358 442 225 289 q 492 790 492 594 l 492 960 q 490 969 492 965 q 479 974 489 974 l 121 974 q 69 1044 69 974 q 121 1114 68 1114 l 569 1114 q 638 1088 619 1114 q 657 1031 657 1063 l 657 761 q 549 431 657 642 q 153 101 442 221 m 935 718 l 935 497 l 1024 497 q 1057 486 1044 497 l 1057 729 q 1024 718 1044 718 l 935 718 z "},"걘":{"ha":1389,"x_min":17,"x_max":1325,"o":"m 942 360 q 859 293 942 293 q 776 360 776 293 l 776 1078 q 859 1144 776 1144 q 942 1078 942 1144 l 942 956 l 1024 956 q 1057 944 1044 956 l 1057 1078 q 1140 1144 1057 1144 q 1222 1078 1222 1144 l 1222 360 q 1140 293 1222 293 q 1057 360 1057 293 l 1057 535 q 1024 524 1044 524 l 942 524 l 942 360 m 656 867 q 558 578 656 754 q 153 290 461 401 q 47 328 76 263 q 72 413 17 393 q 359 593 228 468 q 490 868 490 718 l 490 960 q 489 969 490 965 q 478 974 488 974 l 121 974 q 69 1044 69 974 q 121 1114 68 1114 l 568 1114 q 637 1088 618 1114 q 656 1031 656 1063 l 656 867 m 585 -68 q 516 -42 535 -68 q 497 15 497 -17 l 497 358 q 580 425 497 425 q 663 358 663 425 l 663 86 q 664 76 663 81 q 675 72 665 72 l 1272 72 q 1324 2 1324 72 q 1272 -68 1325 -68 l 585 -68 m 942 815 l 942 664 l 1024 664 q 1057 653 1044 664 l 1057 826 q 1024 815 1044 815 l 942 815 z "},"걜":{"ha":1389,"x_min":17,"x_max":1357,"o":"m 1321 208 q 1302 151 1321 176 q 1233 125 1283 125 l 674 125 q 663 121 664 125 q 661 111 661 117 l 661 54 q 663 44 661 49 q 674 40 664 40 l 1304 40 q 1356 -30 1357 40 q 1304 -100 1356 -100 l 583 -100 q 515 -74 533 -100 q 496 -17 496 -49 l 496 182 q 515 240 496 214 q 583 265 533 265 l 1143 265 q 1154 269 1153 265 q 1156 279 1156 274 l 1156 336 q 1154 346 1156 342 q 1143 350 1153 350 l 540 350 q 488 420 489 350 q 540 490 488 490 l 1233 490 q 1302 465 1283 490 q 1321 407 1321 439 l 1321 208 m 942 588 q 859 521 942 521 q 776 588 776 521 l 776 1078 q 859 1144 776 1144 q 942 1078 942 1144 l 942 1011 l 1024 1011 q 1057 1000 1044 1011 l 1057 1078 q 1140 1144 1057 1144 q 1222 1078 1222 1144 l 1222 588 q 1140 521 1222 521 q 1057 588 1057 521 l 1057 660 q 1024 649 1044 649 l 942 649 l 942 588 m 656 867 q 558 579 656 754 q 153 290 461 404 q 47 328 76 263 q 72 413 17 393 q 359 593 228 468 q 490 868 490 718 l 490 960 q 489 969 490 965 q 478 974 488 974 l 121 974 q 69 1044 69 974 q 121 1114 68 1114 l 568 1114 q 637 1088 618 1114 q 656 1031 656 1063 l 656 867 m 942 871 l 942 789 l 1024 789 q 1057 778 1044 789 l 1057 882 q 1024 871 1044 871 l 942 871 z "},"거":{"ha":1321,"x_min":17,"x_max":1156,"o":"m 957 635 q 926 559 957 590 q 850 528 894 528 q 774 559 806 528 q 743 635 743 590 q 774 710 743 679 q 850 742 806 742 q 926 710 894 742 q 957 635 957 679 m 153 101 q 46 135 75 71 q 72 224 17 200 q 385 441 225 289 q 544 790 544 593 l 544 960 q 543 969 544 965 q 532 974 542 974 l 121 974 q 69 1044 69 974 q 121 1114 68 1114 l 622 1114 q 691 1088 672 1114 q 710 1031 710 1063 l 710 761 q 578 415 710 615 q 153 101 447 215 m 1156 31 q 1073 -36 1156 -36 q 990 31 990 -36 l 990 1078 q 1073 1144 990 1144 q 1156 1078 1156 1144 l 1156 31 z "},"걱":{"ha":1321,"x_min":17,"x_max":1254,"o":"m 1254 -19 q 1172 -86 1254 -86 q 1089 -19 1089 -86 l 1089 271 q 1088 281 1089 276 q 1076 285 1086 285 l 465 285 q 413 355 414 285 q 465 425 413 425 l 1167 425 q 1235 399 1217 425 q 1254 342 1254 374 l 1254 -19 m 707 853 q 581 564 707 732 q 153 290 456 396 q 45 328 74 264 q 72 413 17 393 q 385 595 228 468 q 542 868 542 722 l 542 960 q 540 969 542 965 q 529 974 539 974 l 121 974 q 69 1044 69 974 q 121 1114 68 1114 l 619 1114 q 688 1088 669 1114 q 707 1031 707 1063 l 707 853 m 954 801 q 923 726 954 757 q 847 694 892 694 q 772 726 803 694 q 740 801 740 757 q 772 877 740 846 q 847 908 803 908 q 923 877 892 908 q 954 801 954 846 m 1156 522 q 1073 456 1156 456 q 990 522 990 456 l 990 1078 q 1073 1144 990 1144 q 1156 1078 1156 1144 l 1156 522 z "},"건":{"ha":1321,"x_min":17,"x_max":1272,"o":"m 518 -68 q 449 -42 468 -68 q 431 15 431 -17 l 431 358 q 513 425 431 425 q 596 358 596 425 l 596 86 q 597 76 596 81 q 608 72 599 72 l 1219 72 q 1272 2 1271 72 q 1219 -68 1272 -68 l 518 -68 m 707 853 q 583 563 707 732 q 153 290 458 393 q 45 328 74 264 q 72 413 17 393 q 385 595 228 468 q 542 868 542 722 l 542 960 q 540 969 542 965 q 529 974 539 974 l 121 974 q 69 1044 69 974 q 121 1114 68 1114 l 619 1114 q 688 1088 669 1114 q 707 1031 707 1063 l 707 853 m 1156 358 q 1073 292 1156 292 q 990 358 990 292 l 990 1078 q 1073 1144 990 1144 q 1156 1078 1156 1144 l 1156 358 m 957 760 q 926 684 957 715 q 850 653 894 653 q 774 684 806 653 q 743 760 743 715 q 774 835 743 804 q 850 867 806 867 q 926 835 894 867 q 957 760 957 804 z "},"걷":{"ha":1321,"x_min":17,"x_max":1292,"o":"m 518 -68 q 449 -42 468 -68 q 431 15 431 -17 l 431 342 q 449 399 431 374 q 518 425 468 425 l 1204 425 q 1258 355 1257 425 q 1204 285 1260 285 l 608 285 q 597 281 599 285 q 596 271 596 276 l 596 86 q 597 76 596 81 q 608 72 599 72 l 1236 72 q 1290 2 1289 72 q 1236 -68 1292 -68 l 518 -68 m 710 853 q 584 563 710 732 q 153 290 458 393 q 45 328 74 264 q 72 413 17 393 q 386 595 228 468 q 544 868 544 722 l 544 960 q 543 969 544 965 q 532 974 542 974 l 121 974 q 69 1044 69 974 q 121 1114 68 1114 l 622 1114 q 691 1088 672 1114 q 710 1031 710 1063 l 710 853 m 1156 521 q 1073 454 1156 454 q 990 521 990 454 l 990 1078 q 1073 1144 990 1144 q 1156 1078 1156 1144 l 1156 521 m 957 815 q 926 740 957 771 q 850 708 894 708 q 774 740 806 708 q 743 815 743 771 q 774 891 743 860 q 850 922 806 922 q 926 891 894 922 q 957 815 957 860 z "},"걸":{"ha":1321,"x_min":17,"x_max":1292,"o":"m 710 853 q 578 563 710 732 q 511 490 549 525 l 1168 490 q 1237 465 1218 490 q 1256 407 1256 439 l 1256 208 q 1237 151 1256 176 q 1168 125 1218 125 l 608 125 q 597 121 599 125 q 596 111 596 117 l 596 54 q 597 44 596 49 q 608 40 599 40 l 1239 40 q 1291 -30 1292 40 q 1239 -100 1290 -100 l 518 -100 q 449 -74 468 -100 q 431 -17 431 -49 l 431 182 q 449 240 431 214 q 518 265 468 265 l 1078 265 q 1089 269 1088 265 q 1090 279 1090 274 l 1090 336 q 1089 346 1090 342 q 1078 350 1088 350 l 475 350 q 422 419 424 350 q 153 290 311 346 q 45 328 74 263 q 72 413 17 393 q 386 595 228 468 q 544 868 544 722 l 544 960 q 543 969 544 965 q 532 974 542 974 l 121 974 q 69 1044 69 974 q 121 1114 68 1114 l 622 1114 q 691 1088 672 1114 q 710 1031 710 1063 l 710 853 m 1156 581 q 1073 514 1156 514 q 990 581 990 514 l 990 1079 q 1073 1146 990 1146 q 1156 1079 1156 1146 l 1156 581 m 957 843 q 926 767 957 799 q 850 736 894 736 q 774 767 806 736 q 743 843 743 799 q 774 919 743 888 q 850 950 806 950 q 926 919 894 950 q 957 843 957 888 z "},"걺":{"ha":1321,"x_min":17,"x_max":1256,"o":"m 708 208 q 690 151 708 176 q 621 125 671 125 l 394 125 q 383 121 385 125 q 382 111 382 117 l 382 54 q 383 44 382 49 q 394 40 385 40 l 692 40 q 744 -30 744 40 q 692 -100 743 -100 l 304 -100 q 235 -74 254 -100 q 217 -17 217 -49 l 217 182 q 235 240 217 214 q 304 265 254 265 l 531 265 q 542 269 540 265 q 543 279 543 274 l 543 336 q 542 346 543 342 q 531 350 540 350 l 261 350 q 211 394 219 350 q 153 374 183 383 q 45 412 74 347 q 72 496 17 476 q 385 658 228 551 q 542 910 542 764 l 542 960 q 540 969 542 965 q 529 974 539 974 l 121 974 q 69 1044 69 974 q 121 1114 68 1114 l 619 1114 q 688 1088 669 1114 q 707 1031 707 1063 l 707 894 q 582 625 707 774 q 417 490 521 551 l 621 490 q 690 465 671 490 q 708 407 708 439 l 708 208 m 1256 -17 q 1237 -74 1256 -49 q 1168 -100 1218 -100 l 851 -100 q 783 -74 801 -100 q 764 -17 764 -49 l 764 407 q 783 465 764 439 q 851 490 801 490 l 1168 490 q 1237 465 1218 490 q 1256 407 1256 439 l 1256 -17 m 1156 581 q 1073 514 1156 514 q 990 581 990 514 l 990 1079 q 1073 1146 990 1146 q 1156 1079 1156 1146 l 1156 581 m 1090 336 q 1089 346 1090 342 q 1078 350 1088 350 l 942 350 q 931 346 932 350 q 929 336 929 342 l 929 54 q 931 44 929 49 q 942 40 932 40 l 1078 40 q 1089 44 1088 40 q 1090 54 1090 49 l 1090 336 m 954 843 q 923 767 954 799 q 847 736 892 736 q 772 767 803 736 q 740 843 740 799 q 772 919 740 888 q 847 950 803 950 q 923 919 892 950 q 954 843 954 888 z "},"검":{"ha":1321,"x_min":17,"x_max":1256,"o":"m 1256 15 q 1237 -42 1256 -17 q 1168 -68 1218 -68 l 518 -68 q 449 -42 468 -68 q 431 15 431 -17 l 431 342 q 449 399 431 374 q 518 425 468 425 l 1168 425 q 1237 399 1218 425 q 1256 342 1256 374 l 1256 15 m 1090 271 q 1089 281 1090 276 q 1078 285 1088 285 l 608 285 q 597 281 599 285 q 596 271 596 276 l 596 86 q 597 76 596 81 q 608 72 599 72 l 1078 72 q 1089 76 1088 72 q 1090 86 1090 81 l 1090 271 m 710 853 q 578 562 710 732 q 153 290 447 392 q 45 328 74 264 q 72 413 17 393 q 386 595 228 468 q 544 868 544 722 l 544 960 q 543 969 544 965 q 532 974 542 974 l 121 974 q 69 1044 69 974 q 121 1114 68 1114 l 622 1114 q 691 1088 672 1114 q 710 1031 710 1063 l 710 853 m 1156 521 q 1073 454 1156 454 q 990 521 990 454 l 990 1078 q 1073 1144 990 1144 q 1156 1078 1156 1144 l 1156 521 m 957 801 q 926 726 957 757 q 850 694 894 694 q 774 726 806 694 q 743 801 743 757 q 774 877 743 846 q 850 908 806 908 q 926 877 894 908 q 957 801 957 846 z "},"겁":{"ha":1321,"x_min":17,"x_max":1256,"o":"m 1256 -1 q 1236 -59 1254 -33 q 1168 -85 1218 -85 l 518 -85 q 449 -59 468 -85 q 431 -1 431 -33 l 431 400 q 433 424 431 413 q 153 290 321 346 q 45 328 74 264 q 72 413 17 393 q 386 595 228 468 q 544 868 544 722 l 544 960 q 543 969 544 965 q 532 974 542 974 l 121 974 q 69 1044 69 974 q 121 1114 68 1114 l 622 1114 q 691 1088 672 1114 q 710 1031 710 1063 l 710 853 q 583 565 710 739 q 488 464 544 511 q 513 467 499 467 q 596 400 596 467 l 596 69 q 597 60 596 64 q 608 56 599 56 l 1078 56 q 1089 60 1088 56 q 1090 69 1090 64 l 1090 179 l 668 179 q 616 249 617 179 q 668 319 615 319 l 1090 319 l 1090 400 q 1173 467 1090 467 q 1256 400 1256 467 l 1256 -1 m 1156 556 q 1073 489 1156 489 q 990 556 990 489 l 990 1079 q 1073 1146 990 1146 q 1156 1079 1156 1146 l 1156 556 m 957 829 q 926 753 957 785 q 850 722 894 722 q 774 753 806 722 q 743 829 743 785 q 774 905 743 874 q 850 936 806 936 q 926 905 894 936 q 957 829 957 874 z "},"것":{"ha":1321,"x_min":17,"x_max":1343,"o":"m 710 853 q 584 569 710 744 q 153 290 458 393 q 45 328 74 264 q 72 413 17 393 q 386 595 228 468 q 544 868 544 722 l 544 960 q 543 969 544 965 q 532 974 542 974 l 121 974 q 69 1044 69 974 q 121 1114 68 1114 l 622 1114 q 691 1088 672 1114 q 710 1031 710 1063 l 710 853 m 488 -64 q 372 -62 436 -114 q 361 39 307 -11 l 751 415 q 786 436 767 431 q 825 442 806 442 q 865 436 844 442 q 900 415 885 431 l 1290 39 q 1280 -63 1343 -12 q 1164 -64 1217 -114 l 826 271 l 488 -64 m 957 788 q 926 712 957 743 q 850 681 894 681 q 774 712 806 681 q 743 788 743 743 q 774 863 743 832 q 850 894 806 894 q 926 863 894 894 q 957 788 957 832 m 1156 442 q 1073 375 1156 375 q 990 442 990 375 l 990 1078 q 1073 1144 990 1144 q 1156 1078 1156 1144 l 1156 442 z "},"겄":{"ha":1321,"x_min":17,"x_max":1339,"o":"m 710 894 q 584 628 710 781 q 153 374 458 476 q 45 412 74 347 q 72 496 17 476 q 386 658 228 551 q 544 910 544 764 l 544 960 q 543 969 544 965 q 532 974 542 974 l 121 974 q 69 1044 69 974 q 121 1114 68 1114 l 622 1114 q 691 1088 672 1114 q 710 1031 710 1063 l 710 894 m 1156 544 q 1073 478 1156 478 q 990 544 990 478 l 990 1079 q 1073 1146 990 1146 q 1156 1079 1156 1146 l 1156 544 m 957 829 q 926 753 957 785 q 850 722 894 722 q 774 753 806 722 q 743 829 743 785 q 774 905 743 874 q 850 936 806 936 q 926 905 894 936 q 957 829 957 874 m 765 -85 q 724 -79 743 -86 q 694 -54 706 -72 l 529 246 l 363 -54 q 260 -76 333 -106 q 226 25 186 -47 l 450 429 q 483 464 464 454 q 528 474 503 474 q 574 464 554 474 q 607 429 593 454 l 763 149 l 918 429 q 951 464 932 454 q 996 474 971 474 q 1042 464 1022 474 q 1075 429 1061 454 l 1299 25 q 1265 -76 1339 -47 q 1163 -54 1192 -106 l 997 246 l 831 -54 q 803 -79 821 -72 q 765 -85 785 -86 z "},"겅":{"ha":1321,"x_min":17,"x_max":1222,"o":"m 710 853 q 584 568 710 743 q 153 290 458 393 q 45 328 74 264 q 72 413 17 393 q 386 595 228 468 q 544 868 544 722 l 544 960 q 543 969 544 965 q 532 974 542 974 l 121 974 q 69 1044 69 974 q 121 1114 68 1114 l 622 1114 q 691 1088 672 1114 q 710 1031 710 1063 l 710 853 m 1222 157 q 1126 -48 1222 38 q 893 -133 1031 -133 q 658 -49 754 -133 q 561 157 561 36 q 658 363 561 278 q 893 447 754 447 q 1126 362 1031 447 q 1222 157 1222 276 m 1057 157 q 1009 263 1057 219 q 893 306 961 306 q 777 263 825 306 q 729 157 729 219 q 777 51 729 94 q 893 8 825 8 q 1009 51 961 8 q 1057 157 1057 94 m 1156 533 q 1073 467 1156 467 q 990 533 990 467 l 990 1078 q 1073 1144 990 1144 q 1156 1078 1156 1144 l 1156 533 m 957 815 q 926 740 957 771 q 850 708 894 708 q 774 740 806 708 q 743 815 743 771 q 774 891 743 860 q 850 922 806 922 q 926 891 894 922 q 957 815 957 860 z "},"겆":{"ha":1321,"x_min":17,"x_max":1328,"o":"m 443 318 q 390 388 392 318 l 390 393 q 153 290 288 335 q 45 328 74 264 q 72 413 17 393 q 406 595 228 468 q 583 868 583 722 l 583 960 q 582 969 583 965 q 571 974 581 974 l 121 974 q 69 1044 69 974 q 121 1114 68 1114 l 661 1114 q 730 1088 711 1114 q 749 1031 749 1063 l 749 853 q 603 563 749 732 q 490 458 556 507 l 1240 458 q 1294 388 1294 458 q 1240 318 1293 318 l 994 318 l 1274 39 q 1264 -62 1328 -11 q 1147 -64 1200 -114 l 829 258 l 513 -64 q 397 -62 461 -114 q 386 39 332 -11 l 665 318 l 443 318 m 1222 558 q 1140 492 1222 492 q 1057 558 1057 492 l 1057 1079 q 1140 1146 1057 1146 q 1222 1079 1222 1146 l 1222 558 m 1024 829 q 992 753 1024 785 q 917 722 961 722 q 841 753 872 722 q 810 829 810 785 q 841 905 810 874 q 917 936 872 936 q 992 905 961 936 q 1024 829 1024 874 z "},"겉":{"ha":1321,"x_min":17,"x_max":1293,"o":"m 710 853 q 583 568 710 743 q 504 479 550 521 q 518 481 511 481 l 1206 481 q 1260 410 1258 481 q 1206 340 1261 340 l 608 340 q 597 336 599 340 q 596 326 596 332 l 596 282 l 1203 282 q 1255 212 1256 282 q 1203 142 1254 142 l 596 142 l 596 86 q 597 76 596 81 q 608 72 599 72 l 1238 72 q 1292 2 1290 72 q 1238 -68 1293 -68 l 518 -68 q 449 -42 468 -68 q 431 15 431 -17 l 431 397 q 435 425 431 411 q 153 290 321 347 q 45 328 74 264 q 72 413 17 393 q 386 595 228 468 q 544 868 544 722 l 544 960 q 543 969 544 965 q 532 974 542 974 l 121 974 q 69 1044 69 974 q 121 1114 68 1114 l 622 1114 q 691 1088 672 1114 q 710 1031 710 1063 l 710 853 m 1156 581 q 1073 514 1156 514 q 990 581 990 514 l 990 1079 q 1073 1146 990 1146 q 1156 1079 1156 1146 l 1156 581 m 957 829 q 926 753 957 785 q 850 722 894 722 q 774 753 806 722 q 743 829 743 785 q 774 905 743 874 q 850 936 806 936 q 926 905 894 936 q 957 829 957 874 z "},"겊":{"ha":1321,"x_min":17,"x_max":1269,"o":"m 376 318 q 326 361 335 318 q 153 290 249 322 q 45 328 74 264 q 72 413 17 393 q 386 595 228 468 q 544 868 544 722 l 544 960 q 543 969 544 965 q 532 974 542 974 l 121 974 q 69 1044 69 974 q 121 1114 68 1114 l 622 1114 q 691 1088 672 1114 q 710 1031 710 1063 l 710 853 q 583 568 710 744 q 479 458 542 510 l 1174 458 q 1227 388 1228 458 q 1174 318 1226 318 l 376 318 m 335 -85 q 283 -15 283 -85 q 335 56 282 56 l 496 56 l 496 239 q 578 306 496 306 q 661 239 661 306 l 661 56 l 892 56 l 892 239 q 974 306 892 306 q 1057 239 1057 306 l 1057 56 l 1215 56 q 1269 -15 1269 56 q 1215 -85 1268 -85 l 335 -85 m 1156 558 q 1073 492 1156 492 q 990 558 990 492 l 990 1079 q 1073 1146 990 1146 q 1156 1079 1156 1146 l 1156 558 m 957 829 q 926 753 957 785 q 850 722 894 722 q 774 753 806 722 q 743 829 743 785 q 774 905 743 874 q 850 936 806 936 q 926 905 894 936 q 957 829 957 874 z "},"겋":{"ha":1321,"x_min":17,"x_max":1311,"o":"m 432 269 q 380 340 381 269 q 432 410 379 410 l 764 410 l 764 511 q 847 578 764 578 q 929 511 929 578 l 929 410 l 1257 410 q 1310 340 1311 410 q 1257 269 1310 269 l 1088 269 q 1136 126 1136 207 q 1051 -56 1136 21 q 847 -133 967 -133 q 640 -57 725 -133 q 556 126 556 19 q 603 269 556 206 l 432 269 m 710 853 q 584 574 710 756 q 153 290 458 393 q 45 328 74 264 q 72 413 17 393 q 386 595 228 468 q 544 868 544 722 l 544 960 q 543 969 544 965 q 532 974 542 974 l 121 974 q 69 1044 69 974 q 121 1114 68 1114 l 622 1114 q 691 1088 672 1114 q 710 1031 710 1063 l 710 853 m 1156 558 q 1073 492 1156 492 q 990 558 990 492 l 990 1079 q 1073 1146 990 1146 q 1156 1079 1156 1146 l 1156 558 m 971 126 q 934 211 971 176 q 847 246 897 246 q 759 211 796 246 q 722 126 722 176 q 759 42 722 76 q 847 7 796 7 q 934 42 897 7 q 971 126 971 76 m 957 843 q 926 767 957 799 q 850 736 894 736 q 774 767 806 736 q 743 843 743 799 q 774 919 743 888 q 850 950 806 950 q 926 919 894 950 q 957 843 957 888 z "},"게":{"ha":1354,"x_min":17,"x_max":1222,"o":"m 153 101 q 47 135 76 69 q 72 224 17 200 q 358 442 225 289 q 492 790 492 594 l 492 960 q 490 969 492 965 q 479 974 489 974 l 121 974 q 69 1044 69 974 q 121 1114 68 1114 l 569 1114 q 638 1088 619 1114 q 657 1031 657 1063 l 657 761 q 649 692 657 729 q 679 700 661 700 l 804 700 l 804 1078 q 887 1144 804 1144 q 969 1078 969 1144 l 969 31 q 887 -36 969 -36 q 804 31 804 -36 l 804 560 l 679 560 q 628 614 633 560 q 549 433 600 535 q 153 101 442 221 m 1222 31 q 1140 -36 1222 -36 q 1057 31 1057 -36 l 1057 1078 q 1140 1144 1057 1144 q 1222 1078 1222 1144 l 1222 31 z "},"겐":{"ha":1389,"x_min":17,"x_max":1325,"o":"m 656 867 q 651 818 656 844 q 679 825 663 825 l 804 825 l 804 1078 q 887 1144 804 1144 q 969 1078 969 1144 l 969 360 q 887 293 969 293 q 804 360 804 293 l 804 685 l 679 685 q 628 731 638 685 q 558 578 604 661 q 153 290 461 401 q 47 328 76 263 q 72 413 17 393 q 359 593 228 468 q 490 868 490 718 l 490 960 q 489 969 490 965 q 478 974 488 974 l 121 974 q 69 1044 69 974 q 121 1114 68 1114 l 568 1114 q 637 1088 618 1114 q 656 1031 656 1063 l 656 867 m 585 -68 q 516 -42 535 -68 q 497 15 497 -17 l 497 358 q 580 425 497 425 q 663 358 663 425 l 663 86 q 664 76 663 81 q 675 72 665 72 l 1272 72 q 1324 2 1324 72 q 1272 -68 1325 -68 l 585 -68 m 1222 360 q 1140 293 1222 293 q 1057 360 1057 293 l 1057 1078 q 1140 1144 1057 1144 q 1222 1078 1222 1144 l 1222 360 z "},"겔":{"ha":1389,"x_min":17,"x_max":1357,"o":"m 1321 208 q 1302 151 1321 176 q 1233 125 1283 125 l 674 125 q 663 121 664 125 q 661 111 661 117 l 661 54 q 663 44 661 49 q 674 40 664 40 l 1304 40 q 1356 -30 1357 40 q 1304 -100 1356 -100 l 583 -100 q 515 -74 533 -100 q 496 -17 496 -49 l 496 182 q 515 240 496 214 q 583 265 533 265 l 1143 265 q 1154 269 1153 265 q 1156 279 1156 274 l 1156 336 q 1154 346 1156 342 q 1143 350 1153 350 l 540 350 q 488 420 489 350 q 540 490 488 490 l 1233 490 q 1302 465 1283 490 q 1321 407 1321 439 l 1321 208 m 969 588 q 887 521 969 521 q 804 588 804 521 l 804 768 l 693 768 q 647 797 658 768 q 558 579 628 707 q 153 290 461 401 q 47 328 76 263 q 72 413 17 393 q 359 593 228 468 q 490 868 490 718 l 490 960 q 489 969 490 965 q 478 974 488 974 l 121 974 q 69 1044 69 974 q 121 1114 68 1114 l 568 1114 q 637 1088 618 1114 q 656 1031 656 1063 l 656 893 q 693 908 668 908 l 804 908 l 804 1078 q 887 1144 804 1144 q 969 1078 969 1144 l 969 588 m 1222 588 q 1140 521 1222 521 q 1057 588 1057 521 l 1057 1078 q 1140 1144 1057 1144 q 1222 1078 1222 1144 l 1222 588 z "},"겜":{"ha":1389,"x_min":17,"x_max":1321,"o":"m 1321 15 q 1302 -42 1321 -17 q 1233 -68 1283 -68 l 583 -68 q 515 -42 533 -68 q 496 15 496 -17 l 496 342 q 515 399 496 374 q 583 425 533 425 l 1233 425 q 1302 399 1283 425 q 1321 342 1321 374 l 1321 15 m 969 524 q 887 457 969 457 q 804 524 804 457 l 804 733 l 679 733 q 636 756 650 733 q 561 586 613 681 q 153 290 468 417 q 47 326 78 260 q 72 413 17 393 q 359 593 228 468 q 490 868 490 718 l 490 960 q 489 969 490 965 q 478 974 488 974 l 121 974 q 69 1044 69 974 q 121 1114 68 1114 l 568 1114 q 637 1088 618 1114 q 656 1031 656 1063 l 656 868 q 679 874 665 874 l 804 874 l 804 1078 q 887 1144 804 1144 q 969 1078 969 1144 l 969 524 m 1222 524 q 1140 457 1222 457 q 1057 524 1057 457 l 1057 1078 q 1140 1144 1057 1144 q 1222 1078 1222 1144 l 1222 524 m 1156 271 q 1154 281 1156 276 q 1143 285 1153 285 l 674 285 q 663 281 664 285 q 661 271 661 276 l 661 86 q 663 76 661 81 q 674 72 664 72 l 1143 72 q 1154 76 1153 72 q 1156 86 1156 81 l 1156 271 z "},"겝":{"ha":1389,"x_min":17,"x_max":1321,"o":"m 969 549 q 887 482 969 482 q 804 549 804 482 l 804 740 l 679 740 q 639 758 651 740 q 558 578 615 676 q 153 290 461 410 q 47 327 78 261 q 72 413 17 393 q 359 593 228 468 q 490 868 490 718 l 490 960 q 489 969 490 965 q 478 974 488 974 l 121 974 q 69 1044 69 974 q 121 1114 68 1114 l 568 1114 q 637 1088 618 1114 q 656 1031 656 1063 l 656 875 q 679 881 665 881 l 804 881 l 804 1078 q 887 1144 804 1144 q 969 1078 969 1144 l 969 549 m 1321 -1 q 1301 -59 1319 -33 q 1233 -85 1283 -85 l 583 -85 q 515 -59 533 -85 q 496 -1 496 -33 l 496 400 q 578 467 496 467 q 661 400 661 467 l 661 69 q 663 60 661 64 q 674 56 664 56 l 1143 56 q 1154 60 1153 56 q 1156 69 1156 64 l 1156 179 l 735 179 q 683 249 683 179 q 735 319 682 319 l 1156 319 l 1156 400 q 1238 467 1156 467 q 1321 400 1321 467 l 1321 -1 m 1222 549 q 1140 482 1222 482 q 1057 549 1057 482 l 1057 1078 q 1140 1144 1057 1144 q 1222 1078 1222 1144 l 1222 549 z "},"겟":{"ha":1389,"x_min":17,"x_max":1382,"o":"m 656 861 q 679 867 665 867 l 804 867 l 804 1078 q 887 1144 804 1144 q 969 1078 969 1144 l 969 517 q 887 450 969 450 q 804 517 804 450 l 804 726 l 679 726 q 635 751 649 726 q 561 588 611 678 q 153 290 468 417 q 47 326 78 260 q 72 413 17 393 q 359 593 228 468 q 490 868 490 718 l 490 960 q 489 969 490 965 q 478 974 488 974 l 121 974 q 69 1044 69 974 q 121 1114 68 1114 l 568 1114 q 637 1088 618 1114 q 656 1031 656 1063 l 656 867 l 656 861 m 526 -64 q 410 -62 475 -114 q 400 39 346 -11 l 790 415 q 825 436 806 431 q 864 442 844 442 q 903 436 883 442 q 939 415 924 431 l 1329 39 q 1319 -63 1382 -12 q 1203 -64 1256 -114 l 865 271 l 526 -64 m 1222 461 q 1140 394 1222 394 q 1057 461 1057 394 l 1057 1078 q 1140 1144 1057 1144 q 1222 1078 1222 1144 l 1222 461 z "},"겠":{"ha":1389,"x_min":17,"x_max":1397,"o":"m 969 551 q 887 485 969 485 q 804 551 804 485 l 804 740 l 679 740 q 638 761 650 740 q 558 581 613 683 q 153 290 461 401 q 47 328 76 263 q 72 413 17 393 q 359 593 228 468 q 490 868 490 718 l 490 960 q 489 969 490 965 q 478 974 488 974 l 121 974 q 69 1044 69 974 q 121 1114 68 1114 l 568 1114 q 637 1088 618 1114 q 656 1031 656 1063 l 656 875 q 679 881 665 881 l 804 881 l 804 1078 q 887 1144 804 1144 q 969 1078 969 1144 l 969 551 m 824 -85 q 783 -79 801 -86 q 753 -54 764 -72 l 588 246 l 421 -54 q 318 -76 392 -106 q 285 25 244 -47 l 508 429 q 542 464 522 454 q 586 474 561 474 q 632 464 613 474 q 665 429 651 454 l 821 149 l 976 429 q 1010 464 990 454 q 1054 474 1029 474 q 1100 464 1081 474 q 1133 429 1119 454 l 1357 25 q 1324 -76 1397 -47 q 1221 -54 1250 -106 l 1056 246 l 889 -54 q 861 -79 879 -72 q 824 -85 843 -86 m 1222 551 q 1140 485 1222 485 q 1057 551 1057 485 l 1057 1078 q 1140 1144 1057 1144 q 1222 1078 1222 1144 l 1222 551 z "},"겡":{"ha":1389,"x_min":17,"x_max":1289,"o":"m 969 536 q 887 469 969 469 q 804 536 804 469 l 804 740 l 679 740 q 638 761 650 740 q 558 585 613 685 q 153 290 461 408 q 47 327 76 261 q 72 413 17 393 q 359 593 228 468 q 490 868 490 718 l 490 960 q 489 969 490 965 q 478 974 488 974 l 121 974 q 69 1044 69 974 q 121 1114 68 1114 l 568 1114 q 637 1088 618 1114 q 656 1031 656 1063 l 656 875 q 679 881 665 881 l 804 881 l 804 1078 q 887 1144 804 1144 q 969 1078 969 1144 l 969 536 m 1289 157 q 1193 -48 1289 38 q 960 -133 1097 -133 q 724 -49 821 -133 q 628 157 628 36 q 724 363 628 278 q 960 447 821 447 q 1193 362 1097 447 q 1289 157 1289 276 m 1222 515 q 1140 449 1222 449 q 1057 515 1057 449 l 1057 1078 q 1140 1144 1057 1144 q 1222 1078 1222 1144 l 1222 515 m 1124 157 q 1076 263 1124 219 q 960 306 1028 306 q 844 263 892 306 q 796 157 796 219 q 844 51 796 94 q 960 8 892 8 q 1076 51 1028 8 q 1124 157 1124 94 z "},"겨":{"ha":1389,"x_min":17,"x_max":1156,"o":"m 957 815 q 926 740 957 771 q 850 708 894 708 q 774 740 806 708 q 743 815 743 771 q 774 891 743 860 q 850 922 806 922 q 926 891 894 922 q 957 815 957 860 m 1156 31 q 1073 -36 1156 -36 q 990 31 990 -36 l 990 1078 q 1073 1144 990 1144 q 1156 1078 1156 1144 l 1156 31 m 957 440 q 926 365 957 396 q 850 333 894 333 q 774 365 806 333 q 743 440 743 396 q 774 516 743 485 q 850 547 806 547 q 926 516 894 547 q 957 440 957 485 m 153 101 q 46 135 75 71 q 72 224 17 200 q 385 441 225 289 q 544 790 544 593 l 544 960 q 543 969 544 965 q 532 974 542 974 l 121 974 q 69 1044 69 974 q 121 1114 68 1114 l 622 1114 q 691 1088 672 1114 q 710 1031 710 1063 l 710 761 q 578 415 710 615 q 153 101 447 215 z "},"격":{"ha":1321,"x_min":17,"x_max":1254,"o":"m 1254 -19 q 1172 -86 1254 -86 q 1089 -19 1089 -86 l 1089 271 q 1088 281 1089 276 q 1076 285 1086 285 l 465 285 q 413 355 414 285 q 465 425 413 425 l 1167 425 q 1235 399 1217 425 q 1254 342 1254 374 l 1254 -19 m 707 853 q 581 564 707 732 q 153 290 456 396 q 45 328 74 264 q 72 413 17 393 q 385 595 228 468 q 542 868 542 722 l 542 960 q 540 969 542 965 q 529 974 539 974 l 121 974 q 69 1044 69 974 q 121 1114 68 1114 l 619 1114 q 688 1088 669 1114 q 707 1031 707 1063 l 707 853 m 954 919 q 923 844 954 875 q 847 813 892 813 q 772 844 803 813 q 740 919 740 875 q 772 995 740 964 q 847 1026 803 1026 q 923 995 892 1026 q 954 919 954 964 m 1156 522 q 1073 456 1156 456 q 990 522 990 456 l 990 1078 q 1073 1144 990 1144 q 1156 1078 1156 1144 l 1156 522 m 954 635 q 923 559 954 590 q 847 528 892 528 q 772 559 803 528 q 740 635 740 590 q 772 710 740 679 q 847 742 803 742 q 923 710 892 742 q 954 635 954 679 z "},"겪":{"ha":1389,"x_min":17,"x_max":1256,"o":"m 707 853 q 581 564 707 732 q 451 439 531 496 l 654 439 q 723 413 704 439 q 742 356 742 388 l 742 -19 q 659 -86 742 -86 q 576 -19 576 -86 l 576 285 q 575 294 576 290 q 564 299 574 299 l 311 299 q 264 333 275 299 q 153 290 211 311 q 45 328 74 264 q 72 413 17 393 q 385 595 228 468 q 542 868 542 722 l 542 960 q 540 969 542 965 q 529 974 539 974 l 121 974 q 69 1044 69 974 q 121 1114 68 1114 l 619 1114 q 688 1088 669 1114 q 707 1031 707 1063 l 707 853 m 1256 -19 q 1173 -86 1256 -86 q 1090 -19 1090 -86 l 1090 285 q 1089 294 1090 290 q 1078 299 1088 299 l 825 299 q 773 369 774 299 q 825 439 772 439 l 1168 439 q 1237 413 1218 439 q 1256 356 1256 388 l 1256 -19 m 1156 522 q 1073 456 1156 456 q 990 522 990 456 l 990 1078 q 1073 1144 990 1144 q 1156 1078 1156 1144 l 1156 522 m 954 919 q 923 844 954 875 q 847 813 892 813 q 772 844 803 813 q 740 919 740 875 q 772 995 740 964 q 847 1026 803 1026 q 923 995 892 1026 q 954 919 954 964 m 954 649 q 923 573 954 604 q 847 542 892 542 q 772 573 803 542 q 740 649 740 604 q 772 724 740 693 q 847 756 803 756 q 923 724 892 756 q 954 649 954 693 z "},"견":{"ha":1321,"x_min":17,"x_max":1272,"o":"m 518 -68 q 449 -42 468 -68 q 431 15 431 -17 l 431 358 q 513 425 431 425 q 596 358 596 425 l 596 86 q 597 76 596 81 q 608 72 599 72 l 1219 72 q 1272 2 1271 72 q 1219 -68 1272 -68 l 518 -68 m 707 853 q 583 563 707 732 q 153 290 458 393 q 45 328 74 264 q 72 413 17 393 q 385 595 228 468 q 542 868 542 722 l 542 960 q 540 969 542 965 q 529 974 539 974 l 121 974 q 69 1044 69 974 q 121 1114 68 1114 l 619 1114 q 688 1088 669 1114 q 707 1031 707 1063 l 707 853 m 1156 358 q 1073 292 1156 292 q 990 358 990 292 l 990 1078 q 1073 1144 990 1144 q 1156 1078 1156 1144 l 1156 358 m 954 878 q 923 802 954 833 q 847 771 892 771 q 772 802 803 771 q 740 878 740 833 q 772 953 740 922 q 847 985 803 985 q 923 953 892 985 q 954 878 954 922 m 954 565 q 923 490 954 521 q 847 458 892 458 q 772 490 803 458 q 740 565 740 521 q 772 641 740 610 q 847 672 803 672 q 923 641 892 672 q 954 565 954 610 z "},"겯":{"ha":1321,"x_min":17,"x_max":1292,"o":"m 518 -85 q 449 -59 468 -85 q 431 -1 431 -33 l 431 342 q 449 399 431 374 q 518 425 468 425 l 1204 425 q 1258 355 1257 425 q 1204 285 1260 285 l 608 285 q 597 281 599 285 q 596 271 596 276 l 596 69 q 597 60 596 64 q 608 56 599 56 l 1236 56 q 1290 -15 1289 56 q 1236 -85 1292 -85 l 518 -85 m 710 853 q 584 563 710 732 q 153 290 458 393 q 45 328 74 264 q 72 413 17 393 q 386 595 228 468 q 544 868 544 722 l 544 960 q 543 969 544 965 q 532 974 542 974 l 121 974 q 69 1044 69 974 q 121 1114 68 1114 l 622 1114 q 691 1088 672 1114 q 710 1031 710 1063 l 710 853 m 1156 521 q 1073 454 1156 454 q 990 521 990 454 l 990 1078 q 1073 1144 990 1144 q 1156 1078 1156 1144 l 1156 521 m 954 635 q 923 559 954 590 q 847 528 892 528 q 772 559 803 528 q 740 635 740 590 q 772 710 740 679 q 847 742 803 742 q 923 710 892 742 q 954 635 954 679 m 954 906 q 923 830 954 861 q 847 799 892 799 q 772 830 803 799 q 740 906 740 861 q 772 981 740 950 q 847 1013 803 1013 q 923 981 892 1013 q 954 906 954 950 z "},"결":{"ha":1321,"x_min":17,"x_max":1292,"o":"m 710 853 q 578 563 710 732 q 511 490 549 525 l 1168 490 q 1237 465 1218 490 q 1256 407 1256 439 l 1256 208 q 1237 151 1256 176 q 1168 125 1218 125 l 608 125 q 597 121 599 125 q 596 111 596 117 l 596 54 q 597 44 596 49 q 608 40 599 40 l 1239 40 q 1291 -30 1292 40 q 1239 -100 1290 -100 l 518 -100 q 449 -74 468 -100 q 431 -17 431 -49 l 431 182 q 449 240 431 214 q 518 265 468 265 l 1078 265 q 1089 269 1088 265 q 1090 279 1090 274 l 1090 336 q 1089 346 1090 342 q 1078 350 1088 350 l 475 350 q 422 419 424 350 q 153 290 311 346 q 45 328 74 263 q 72 413 17 393 q 386 595 228 468 q 544 868 544 722 l 544 960 q 543 969 544 965 q 532 974 542 974 l 121 974 q 69 1044 69 974 q 121 1114 68 1114 l 622 1114 q 691 1088 672 1114 q 710 1031 710 1063 l 710 853 m 1156 581 q 1073 514 1156 514 q 990 581 990 514 l 990 1079 q 1073 1146 990 1146 q 1156 1079 1156 1146 l 1156 581 m 958 947 q 927 872 958 903 q 851 840 896 840 q 776 872 807 840 q 744 947 744 903 q 776 1023 744 992 q 851 1054 807 1054 q 927 1023 896 1054 q 958 947 958 992 m 958 683 q 927 608 958 639 q 851 576 896 576 q 776 608 807 576 q 744 683 744 639 q 776 759 744 728 q 851 790 807 790 q 927 759 896 790 q 958 683 958 728 z "},"겸":{"ha":1321,"x_min":17,"x_max":1256,"o":"m 1256 1 q 1237 -56 1256 -31 q 1168 -82 1218 -82 l 518 -82 q 449 -56 468 -82 q 431 1 431 -31 l 431 342 q 449 399 431 374 q 518 425 468 425 l 1168 425 q 1237 399 1218 425 q 1256 342 1256 374 l 1256 1 m 1090 271 q 1089 281 1090 276 q 1078 285 1088 285 l 608 285 q 597 281 599 285 q 596 271 596 276 l 596 72 q 597 63 596 67 q 608 58 599 58 l 1078 58 q 1089 63 1088 58 q 1090 72 1090 67 l 1090 271 m 710 853 q 578 562 710 732 q 153 290 447 392 q 45 328 74 264 q 72 413 17 393 q 386 595 228 468 q 544 868 544 722 l 544 960 q 543 969 544 965 q 532 974 542 974 l 121 974 q 69 1044 69 974 q 121 1114 68 1114 l 622 1114 q 691 1088 672 1114 q 710 1031 710 1063 l 710 853 m 1156 521 q 1073 454 1156 454 q 990 521 990 454 l 990 1078 q 1073 1144 990 1144 q 1156 1078 1156 1144 l 1156 521 m 954 906 q 923 830 954 861 q 847 799 892 799 q 772 830 803 799 q 740 906 740 861 q 772 981 740 950 q 847 1013 803 1013 q 923 981 892 1013 q 954 906 954 950 m 954 635 q 923 559 954 590 q 847 528 892 528 q 772 559 803 528 q 740 635 740 590 q 772 710 740 679 q 847 742 803 742 q 923 710 892 742 q 954 635 954 679 z "},"겹":{"ha":1321,"x_min":17,"x_max":1256,"o":"m 1256 -1 q 1236 -59 1254 -33 q 1168 -85 1218 -85 l 518 -85 q 449 -59 468 -85 q 431 -1 431 -33 l 431 400 q 433 424 431 413 q 153 290 321 346 q 45 328 74 264 q 72 413 17 393 q 386 595 228 468 q 544 868 544 722 l 544 960 q 543 969 544 965 q 532 974 542 974 l 121 974 q 69 1044 69 974 q 121 1114 68 1114 l 622 1114 q 691 1088 672 1114 q 710 1031 710 1063 l 710 853 q 583 565 710 739 q 488 464 544 511 q 513 467 499 467 q 596 400 596 467 l 596 69 q 597 60 596 64 q 608 56 599 56 l 1078 56 q 1089 60 1088 56 q 1090 69 1090 64 l 1090 179 l 668 179 q 616 249 617 179 q 668 319 615 319 l 1090 319 l 1090 400 q 1173 467 1090 467 q 1256 400 1256 467 l 1256 -1 m 1156 542 q 1073 475 1156 475 q 990 542 990 475 l 990 1079 q 1073 1146 990 1146 q 1156 1079 1156 1146 l 1156 542 m 954 947 q 923 872 954 903 q 847 840 892 840 q 772 872 803 840 q 740 947 740 903 q 772 1023 740 992 q 847 1054 803 1054 q 923 1023 892 1054 q 954 947 954 992 m 954 676 q 923 601 954 632 q 847 569 892 569 q 772 601 803 569 q 740 676 740 632 q 772 752 740 721 q 847 783 803 783 q 923 752 892 783 q 954 676 954 721 z "},"겻":{"ha":1321,"x_min":17,"x_max":1343,"o":"m 710 853 q 584 569 710 744 q 153 290 458 393 q 45 328 74 264 q 72 413 17 393 q 386 595 228 468 q 544 868 544 722 l 544 960 q 543 969 544 965 q 532 974 542 974 l 121 974 q 69 1044 69 974 q 121 1114 68 1114 l 622 1114 q 691 1088 672 1114 q 710 1031 710 1063 l 710 853 m 488 -64 q 372 -62 436 -114 q 361 39 307 -11 l 751 415 q 786 436 767 431 q 825 442 806 442 q 865 436 844 442 q 900 415 885 431 l 1290 39 q 1280 -63 1343 -12 q 1164 -64 1217 -114 l 826 271 l 488 -64 m 1156 442 q 1073 375 1156 375 q 990 442 990 375 l 990 1078 q 1073 1144 990 1144 q 1156 1078 1156 1144 l 1156 442 m 954 919 q 923 844 954 875 q 847 813 892 813 q 772 844 803 813 q 740 919 740 875 q 772 995 740 964 q 847 1026 803 1026 q 923 995 892 1026 q 954 919 954 964 m 954 635 q 923 559 954 590 q 847 528 892 528 q 772 559 803 528 q 740 635 740 590 q 772 710 740 679 q 847 742 803 742 q 923 710 892 742 q 954 635 954 679 z "},"겼":{"ha":1321,"x_min":17,"x_max":1339,"o":"m 710 894 q 584 628 710 781 q 153 374 458 476 q 45 412 74 347 q 72 496 17 476 q 386 658 228 551 q 544 910 544 764 l 544 960 q 543 969 544 965 q 532 974 542 974 l 121 974 q 69 1044 69 974 q 121 1114 68 1114 l 622 1114 q 691 1088 672 1114 q 710 1031 710 1063 l 710 894 m 1156 544 q 1073 478 1156 478 q 990 544 990 478 l 990 1079 q 1073 1146 990 1146 q 1156 1079 1156 1146 l 1156 544 m 765 -86 q 724 -81 743 -87 q 694 -56 706 -74 l 529 244 l 363 -56 q 260 -78 333 -107 q 226 24 186 -49 l 450 428 q 483 463 464 453 q 528 472 503 472 q 574 463 554 472 q 607 428 593 453 l 763 147 l 918 428 q 951 463 932 453 q 996 472 971 472 q 1042 463 1022 472 q 1075 428 1061 453 l 1299 24 q 1265 -78 1339 -49 q 1163 -56 1192 -107 l 997 244 l 831 -56 q 803 -81 821 -74 q 765 -86 785 -87 m 954 933 q 923 858 954 889 q 847 826 892 826 q 772 858 803 826 q 740 933 740 889 q 772 1009 740 978 q 847 1040 803 1040 q 923 1009 892 1040 q 954 933 954 978 m 954 663 q 923 587 954 618 q 847 556 892 556 q 772 587 803 556 q 740 663 740 618 q 772 738 740 707 q 847 769 803 769 q 923 738 892 769 q 954 663 954 707 z "},"경":{"ha":1321,"x_min":17,"x_max":1222,"o":"m 710 853 q 584 568 710 743 q 153 290 458 393 q 45 328 74 264 q 72 413 17 393 q 386 595 228 468 q 544 868 544 722 l 544 960 q 543 969 544 965 q 532 974 542 974 l 121 974 q 69 1044 69 974 q 121 1114 68 1114 l 622 1114 q 691 1088 672 1114 q 710 1031 710 1063 l 710 853 m 1222 157 q 1126 -48 1222 38 q 893 -133 1031 -133 q 658 -49 754 -133 q 561 157 561 36 q 658 363 561 278 q 893 447 754 447 q 1126 362 1031 447 q 1222 157 1222 276 m 1057 157 q 1009 263 1057 219 q 893 306 961 306 q 777 263 825 306 q 729 157 729 219 q 777 51 729 94 q 893 8 825 8 q 1009 51 961 8 q 1057 157 1057 94 m 1156 519 q 1073 453 1156 453 q 990 519 990 453 l 990 1078 q 1073 1144 990 1144 q 1156 1078 1156 1144 l 1156 519 m 954 919 q 923 844 954 875 q 847 813 892 813 q 772 844 803 813 q 740 919 740 875 q 772 995 740 964 q 847 1026 803 1026 q 923 995 892 1026 q 954 919 954 964 m 954 635 q 923 559 954 590 q 847 528 892 528 q 772 559 803 528 q 740 635 740 590 q 772 710 740 679 q 847 742 803 742 q 923 710 892 742 q 954 635 954 679 z "},"곁":{"ha":1321,"x_min":17,"x_max":1293,"o":"m 710 853 q 583 568 710 743 q 504 479 550 521 q 518 481 511 481 l 1206 481 q 1260 410 1258 481 q 1206 340 1261 340 l 608 340 q 597 336 599 340 q 596 326 596 332 l 596 282 l 1203 282 q 1255 212 1256 282 q 1203 142 1254 142 l 596 142 l 596 86 q 597 76 596 81 q 608 72 599 72 l 1238 72 q 1292 2 1290 72 q 1238 -68 1293 -68 l 518 -68 q 449 -42 468 -68 q 431 15 431 -17 l 431 397 q 435 425 431 411 q 153 290 321 347 q 45 328 74 264 q 72 413 17 393 q 386 595 228 468 q 544 868 544 722 l 544 960 q 543 969 544 965 q 532 974 542 974 l 121 974 q 69 1044 69 974 q 121 1114 68 1114 l 622 1114 q 691 1088 672 1114 q 710 1031 710 1063 l 710 853 m 1156 581 q 1073 514 1156 514 q 990 581 990 514 l 990 1079 q 1073 1146 990 1146 q 1156 1079 1156 1146 l 1156 581 m 958 947 q 927 872 958 903 q 851 840 896 840 q 776 872 807 840 q 744 947 744 903 q 776 1023 744 992 q 851 1054 807 1054 q 927 1023 896 1054 q 958 947 958 992 m 958 683 q 927 608 958 639 q 851 576 896 576 q 776 608 807 576 q 744 683 744 639 q 776 759 744 728 q 851 790 807 790 q 927 759 896 790 q 958 683 958 728 z "},"계":{"ha":1354,"x_min":17,"x_max":1222,"o":"m 153 101 q 47 135 76 69 q 72 224 17 200 q 358 442 225 289 q 492 790 492 594 l 492 960 q 490 969 492 965 q 479 974 489 974 l 121 974 q 69 1044 69 974 q 121 1114 68 1114 l 569 1114 q 638 1088 619 1114 q 657 1031 657 1063 l 657 890 q 679 894 667 894 l 804 894 l 804 1078 q 887 1144 804 1144 q 969 1078 969 1144 l 969 31 q 887 -36 969 -36 q 804 31 804 -36 l 804 365 l 651 365 q 599 435 600 365 q 651 506 599 506 l 804 506 l 804 754 l 679 754 q 657 758 667 754 q 549 433 656 643 q 153 101 442 221 m 1222 31 q 1140 -36 1222 -36 q 1057 31 1057 -36 l 1057 1078 q 1140 1144 1057 1144 q 1222 1078 1222 1144 l 1222 31 z "},"곈":{"ha":1389,"x_min":17,"x_max":1325,"o":"m 969 360 q 887 293 969 293 q 804 360 804 293 l 804 518 l 672 518 q 620 588 621 518 q 672 658 619 658 l 804 658 l 804 810 l 686 810 q 651 821 664 810 q 558 578 638 721 q 153 290 461 401 q 47 328 76 263 q 72 413 17 393 q 359 593 228 468 q 490 868 490 718 l 490 960 q 489 969 490 965 q 478 974 488 974 l 121 974 q 69 1044 69 974 q 121 1114 68 1114 l 568 1114 q 637 1088 618 1114 q 656 1031 656 1063 l 656 942 q 686 950 667 950 l 804 950 l 804 1078 q 887 1144 804 1144 q 969 1078 969 1144 l 969 360 m 585 -68 q 516 -42 535 -68 q 497 15 497 -17 l 497 358 q 580 425 497 425 q 663 358 663 425 l 663 86 q 664 76 663 81 q 675 72 665 72 l 1272 72 q 1324 2 1324 72 q 1272 -68 1325 -68 l 585 -68 m 1222 360 q 1140 293 1222 293 q 1057 360 1057 293 l 1057 1078 q 1140 1144 1057 1144 q 1222 1078 1222 1144 l 1222 360 z "},"곌":{"ha":1389,"x_min":17,"x_max":1357,"o":"m 1321 208 q 1302 151 1321 176 q 1233 125 1283 125 l 674 125 q 663 121 664 125 q 661 111 661 117 l 661 54 q 663 44 661 49 q 674 40 664 40 l 1304 40 q 1356 -30 1357 40 q 1304 -100 1356 -100 l 583 -100 q 515 -74 533 -100 q 496 -17 496 -49 l 496 182 q 515 240 496 214 q 583 265 533 265 l 1143 265 q 1154 269 1153 265 q 1156 279 1156 274 l 1156 336 q 1154 346 1156 342 q 1143 350 1153 350 l 540 350 q 488 420 489 350 q 540 490 488 490 l 1233 490 q 1302 465 1283 490 q 1321 407 1321 439 l 1321 208 m 656 867 q 558 580 656 758 q 153 290 461 401 q 47 328 76 263 q 72 413 17 393 q 359 593 228 468 q 490 868 490 718 l 490 960 q 489 969 490 965 q 478 974 488 974 l 121 974 q 69 1044 69 974 q 121 1114 68 1114 l 568 1114 q 637 1088 618 1114 q 656 1031 656 1063 l 656 997 q 693 1013 668 1013 l 804 1013 l 804 1078 q 887 1144 804 1144 q 969 1078 969 1144 l 969 588 q 887 521 969 521 q 804 588 804 521 l 804 629 l 693 629 q 641 699 642 629 q 693 769 640 769 l 804 769 l 804 872 l 693 872 q 656 888 668 872 l 656 867 m 1222 588 q 1140 521 1222 521 q 1057 588 1057 521 l 1057 1078 q 1140 1144 1057 1144 q 1222 1078 1222 1144 l 1222 588 z "},"곕":{"ha":1389,"x_min":17,"x_max":1321,"o":"m 656 867 q 558 578 656 746 q 153 290 461 410 q 47 327 78 261 q 72 413 17 393 q 359 593 228 468 q 490 868 490 718 l 490 960 q 489 969 490 965 q 478 974 488 974 l 121 974 q 69 1044 69 974 q 121 1114 68 1114 l 568 1114 q 637 1088 618 1114 q 656 1031 656 1063 l 656 983 q 693 999 668 999 l 804 999 l 804 1078 q 887 1144 804 1144 q 969 1078 969 1144 l 969 549 q 887 482 969 482 q 804 549 804 482 l 804 615 l 693 615 q 641 685 642 615 q 693 756 640 756 l 804 756 l 804 858 l 693 858 q 656 874 668 858 l 656 867 m 1321 -1 q 1301 -59 1319 -33 q 1233 -85 1283 -85 l 583 -85 q 515 -59 533 -85 q 496 -1 496 -33 l 496 400 q 578 467 496 467 q 661 400 661 467 l 661 69 q 663 60 661 64 q 674 56 664 56 l 1143 56 q 1154 60 1153 56 q 1156 69 1156 64 l 1156 179 l 735 179 q 683 249 683 179 q 735 319 682 319 l 1156 319 l 1156 400 q 1238 467 1156 467 q 1321 400 1321 467 l 1321 -1 m 1222 549 q 1140 482 1222 482 q 1057 549 1057 482 l 1057 1078 q 1140 1144 1057 1144 q 1222 1078 1222 1144 l 1222 549 z "},"곗":{"ha":1389,"x_min":17,"x_max":1382,"o":"m 969 517 q 887 450 969 450 q 804 517 804 450 l 804 596 l 693 596 q 641 666 642 596 q 693 736 640 736 l 804 736 l 804 844 l 693 844 q 656 860 668 844 q 561 588 653 753 q 153 290 468 417 q 47 326 78 260 q 72 413 17 393 q 359 593 228 468 q 490 868 490 718 l 490 960 q 489 969 490 965 q 478 974 488 974 l 121 974 q 69 1044 69 974 q 121 1114 68 1114 l 568 1114 q 637 1088 618 1114 q 656 1031 656 1063 l 656 969 q 693 985 668 985 l 804 985 l 804 1078 q 887 1144 804 1144 q 969 1078 969 1144 l 969 517 m 526 -61 q 410 -60 475 -111 q 400 42 346 -8 l 790 418 q 825 439 806 433 q 864 444 844 444 q 903 439 883 444 q 939 418 924 433 l 1329 42 q 1319 -60 1382 -10 q 1203 -61 1256 -111 l 865 274 l 526 -61 m 1222 461 q 1140 394 1222 394 q 1057 461 1057 394 l 1057 1078 q 1140 1144 1057 1144 q 1222 1078 1222 1144 l 1222 461 z "},"고":{"ha":1090,"x_min":21,"x_max":978,"o":"m 597 181 q 578 123 597 149 q 510 97 560 97 l 74 97 q 22 167 21 97 q 74 238 22 238 l 419 238 q 431 242 429 238 q 432 251 432 246 l 432 658 q 515 725 432 725 q 597 658 597 725 l 597 181 m 978 243 q 895 176 978 176 q 813 243 813 176 l 813 960 q 811 969 813 965 q 800 974 810 974 l 178 974 q 126 1044 126 974 q 178 1114 125 1114 l 890 1114 q 959 1088 940 1114 q 978 1031 978 1063 l 978 243 z "},"곡":{"ha":1189,"x_min":21,"x_max":1092,"o":"m 611 586 q 592 528 611 554 q 524 503 574 503 l 74 503 q 22 573 21 503 q 74 643 22 643 l 433 643 q 444 647 443 643 q 446 657 446 651 l 446 819 q 528 886 446 886 q 611 819 611 886 l 611 586 m 992 590 q 909 524 992 524 q 826 590 826 524 l 826 960 q 825 969 826 965 q 814 974 824 974 l 178 974 q 126 1044 126 974 q 178 1114 125 1114 l 904 1114 q 973 1088 954 1114 q 992 1031 992 1063 l 992 590 m 1092 -17 q 1009 -83 1092 -83 q 926 -17 926 -83 l 926 257 q 925 267 926 263 q 914 271 924 271 l 313 271 q 260 341 261 271 q 313 411 260 411 l 1004 411 q 1073 385 1054 411 q 1092 328 1092 360 l 1092 -17 z "},"곤":{"ha":1189,"x_min":21,"x_max":1094,"o":"m 611 544 q 592 487 611 513 q 524 461 574 461 l 74 461 q 22 531 21 461 q 74 601 22 601 l 433 601 q 444 606 443 601 q 446 615 446 610 l 446 833 q 528 900 446 900 q 611 833 611 900 l 611 544 m 992 576 q 909 510 992 510 q 826 576 826 510 l 826 960 q 825 969 826 965 q 814 974 824 974 l 178 974 q 126 1044 126 974 q 178 1114 125 1114 l 904 1114 q 973 1088 954 1114 q 992 1031 992 1063 l 992 576 m 353 -68 q 284 -42 303 -68 q 265 15 265 -17 l 265 331 q 348 397 265 397 q 431 331 431 397 l 431 86 q 432 76 431 81 q 443 72 433 72 l 1040 72 q 1093 2 1094 72 q 1039 -68 1092 -68 l 353 -68 z "},"곧":{"ha":1189,"x_min":21,"x_max":1128,"o":"m 611 589 q 592 531 611 557 q 524 506 574 506 l 74 506 q 22 576 21 506 q 74 646 22 646 l 433 646 q 444 650 443 646 q 446 660 446 654 l 446 833 q 528 900 446 900 q 611 833 611 900 l 611 589 m 992 593 q 909 526 992 526 q 826 593 826 526 l 826 960 q 825 969 826 965 q 814 974 824 974 l 178 974 q 126 1044 126 974 q 178 1114 125 1114 l 904 1114 q 973 1088 954 1114 q 992 1031 992 1063 l 992 593 m 353 -82 q 284 -56 303 -82 q 265 1 265 -31 l 265 314 q 284 372 265 346 q 353 397 303 397 l 1040 397 q 1094 327 1093 397 q 1040 257 1096 257 l 443 257 q 432 253 433 257 q 431 243 431 249 l 431 72 q 432 63 431 67 q 443 58 433 58 l 1072 58 q 1126 -12 1125 58 q 1072 -82 1128 -82 l 353 -82 z "},"골":{"ha":1189,"x_min":21,"x_max":1126,"o":"m 611 617 q 592 559 611 585 q 524 533 574 533 l 74 533 q 22 603 21 533 q 74 674 22 674 l 433 674 q 444 678 443 674 q 446 688 446 682 l 446 847 q 528 914 446 914 q 611 847 611 914 l 611 617 m 992 621 q 909 554 992 554 q 826 621 826 554 l 826 960 q 825 969 826 965 q 814 974 824 974 l 178 974 q 126 1044 126 974 q 178 1114 125 1114 l 904 1114 q 973 1088 954 1114 q 992 1031 992 1063 l 992 621 m 1090 194 q 1072 137 1090 163 q 1003 111 1053 111 l 443 111 q 432 107 433 111 q 431 97 431 103 l 431 54 q 432 44 431 49 q 443 40 433 40 l 1074 40 q 1126 -30 1126 40 q 1074 -100 1125 -100 l 353 -100 q 284 -74 303 -100 q 265 -17 265 -49 l 265 168 q 284 226 265 200 q 353 251 303 251 l 913 251 q 924 256 922 251 q 925 265 925 260 l 925 308 q 924 318 925 314 q 913 322 922 322 l 317 322 q 265 392 265 322 q 317 463 264 463 l 1003 463 q 1072 437 1053 463 q 1090 379 1090 411 l 1090 194 z "},"곪":{"ha":1189,"x_min":21,"x_max":1124,"o":"m 611 624 q 592 566 611 592 q 524 540 574 540 l 74 540 q 22 610 21 540 q 74 681 22 681 l 433 681 q 444 685 443 681 q 446 694 446 689 l 446 854 q 528 921 446 921 q 611 854 611 921 l 611 624 m 992 621 q 909 554 992 554 q 826 621 826 554 l 826 960 q 825 969 826 965 q 814 974 824 974 l 178 974 q 126 1044 126 974 q 178 1114 125 1114 l 904 1114 q 973 1088 954 1114 q 992 1031 992 1063 l 992 621 m 610 188 q 591 130 610 156 q 522 104 572 104 l 318 104 q 307 100 308 104 q 306 90 306 96 l 306 40 q 307 31 306 35 q 318 26 308 26 l 593 26 q 645 -44 646 26 q 593 -114 644 -114 l 228 -114 q 159 -88 178 -114 q 140 -31 140 -62 l 140 161 q 159 219 140 193 q 228 244 178 244 l 432 244 q 443 249 442 244 q 444 258 444 253 l 444 308 q 443 318 444 314 q 432 322 442 322 l 185 322 q 133 392 133 322 q 185 463 132 463 l 522 463 q 591 437 572 463 q 610 379 610 411 l 610 188 m 1124 -31 q 1105 -88 1124 -62 q 1036 -114 1086 -114 l 753 -114 q 684 -88 703 -114 q 665 -31 665 -62 l 665 379 q 684 437 665 411 q 753 463 703 463 l 1036 463 q 1105 437 1086 463 q 1124 379 1124 411 l 1124 -31 m 958 308 q 957 318 958 314 q 946 322 956 322 l 843 322 q 832 318 833 322 q 831 308 831 314 l 831 40 q 832 31 831 35 q 843 26 833 26 l 946 26 q 957 31 956 26 q 958 40 958 35 l 958 308 z "},"곬":{"ha":1189,"x_min":21,"x_max":1203,"o":"m 1163 0 q 1129 -101 1203 -72 q 1026 -79 1056 -131 l 874 228 l 722 -79 q 625 -103 694 -128 q 593 -114 613 -114 l 228 -114 q 159 -88 178 -114 q 140 -31 140 -62 l 140 161 q 159 219 140 193 q 228 244 178 244 l 432 244 q 443 249 442 244 q 444 258 444 253 l 444 308 q 443 318 444 314 q 432 322 442 322 l 185 322 q 133 392 133 322 q 185 463 132 463 l 522 463 q 591 437 572 463 q 610 379 610 411 l 610 188 q 591 130 610 156 q 522 104 572 104 l 318 104 q 307 100 308 104 q 306 90 306 96 l 306 40 q 307 31 306 35 q 318 26 308 26 l 593 26 l 599 26 l 793 425 q 800 440 796 433 l 803 446 q 874 486 829 494 q 946 446 918 494 l 950 435 q 954 428 953 432 l 1163 0 m 992 621 q 909 554 992 554 q 826 621 826 554 l 826 960 q 825 969 826 965 q 814 974 824 974 l 178 974 q 126 1044 126 974 q 178 1114 125 1114 l 904 1114 q 973 1088 954 1114 q 992 1031 992 1063 l 992 621 m 611 624 q 592 566 611 592 q 524 540 574 540 l 74 540 q 22 610 21 540 q 74 681 22 681 l 433 681 q 444 685 443 681 q 446 694 446 689 l 446 854 q 528 921 446 921 q 611 854 611 921 l 611 624 z "},"곯":{"ha":1189,"x_min":21,"x_max":1181,"o":"m 610 188 q 591 130 610 156 q 522 104 572 104 l 318 104 q 307 100 308 104 q 306 90 306 96 l 306 40 q 307 31 306 35 q 318 26 308 26 l 593 26 q 645 -44 646 26 q 593 -114 644 -114 l 228 -114 q 159 -88 178 -114 q 140 -31 140 -62 l 140 161 q 159 219 140 193 q 228 244 178 244 l 432 244 q 443 249 442 244 q 444 258 444 253 l 444 308 q 443 318 444 314 q 432 322 442 322 l 185 322 q 133 392 133 322 q 185 463 132 463 l 522 463 q 590 436 572 463 q 608 393 606 417 q 635 399 619 399 l 800 399 l 800 469 q 883 536 800 536 q 965 469 965 536 l 965 399 l 1126 399 q 1180 328 1181 399 q 1126 258 1179 258 l 1067 258 q 1126 106 1126 193 q 1055 -59 1126 10 q 883 -128 983 -128 q 710 -60 782 -128 q 638 106 638 8 q 697 258 638 193 l 635 258 q 610 264 619 258 l 610 188 m 992 635 q 909 568 992 568 q 826 635 826 568 l 826 960 q 825 969 826 965 q 814 974 824 974 l 178 974 q 126 1044 126 974 q 178 1114 125 1114 l 904 1114 q 973 1088 954 1114 q 992 1031 992 1063 l 992 635 m 611 624 q 592 566 611 592 q 524 540 574 540 l 74 540 q 22 610 21 540 q 74 681 22 681 l 433 681 q 444 685 443 681 q 446 694 446 689 l 446 854 q 528 921 446 921 q 611 854 611 921 l 611 624 m 961 106 q 938 173 961 146 q 883 200 915 200 q 828 173 851 200 q 804 106 804 146 q 828 39 804 67 q 883 11 851 11 q 938 39 915 11 q 961 106 961 67 z "},"곰":{"ha":1189,"x_min":21,"x_max":1090,"o":"m 611 589 q 592 531 611 557 q 524 506 574 506 l 74 506 q 22 576 21 506 q 74 646 22 646 l 433 646 q 444 650 443 646 q 446 660 446 654 l 446 833 q 528 900 446 900 q 611 833 611 900 l 611 589 m 992 593 q 909 526 992 526 q 826 593 826 526 l 826 960 q 825 969 826 965 q 814 974 824 974 l 178 974 q 126 1044 126 974 q 178 1114 125 1114 l 904 1114 q 973 1088 954 1114 q 992 1031 992 1063 l 992 593 m 1090 1 q 1072 -56 1090 -31 q 1003 -82 1053 -82 l 353 -82 q 284 -56 303 -82 q 265 1 265 -31 l 265 314 q 284 372 265 346 q 353 397 303 397 l 1003 397 q 1072 372 1053 397 q 1090 314 1090 346 l 1090 1 m 925 243 q 924 253 925 249 q 913 257 922 257 l 443 257 q 432 253 433 257 q 431 243 431 249 l 431 72 q 432 63 431 67 q 443 58 433 58 l 913 58 q 924 63 922 58 q 925 72 925 67 l 925 243 z "},"곱":{"ha":1189,"x_min":21,"x_max":1090,"o":"m 1090 -1 q 1071 -59 1089 -33 q 1003 -85 1053 -85 l 353 -85 q 284 -59 303 -85 q 265 -1 265 -33 l 265 396 q 348 463 265 463 q 431 396 431 463 l 431 69 q 432 60 431 64 q 443 56 433 56 l 913 56 q 924 60 922 56 q 925 69 925 64 l 925 176 l 504 176 q 452 247 453 176 q 504 317 451 317 l 925 317 l 925 396 q 1008 463 925 463 q 1090 396 1090 463 l 1090 -1 m 992 607 q 909 540 992 540 q 826 607 826 540 l 826 960 q 825 969 826 965 q 814 974 824 974 l 178 974 q 126 1044 126 974 q 178 1114 125 1114 l 904 1114 q 973 1088 954 1114 q 992 1031 992 1063 l 992 607 m 611 603 q 592 545 611 571 q 524 519 574 519 l 74 519 q 22 590 21 519 q 74 660 22 660 l 433 660 q 444 664 443 660 q 446 674 446 668 l 446 847 q 528 914 446 914 q 611 847 611 914 l 611 603 z "},"곳":{"ha":1189,"x_min":21,"x_max":1193,"o":"m 611 575 q 592 517 611 543 q 524 492 574 492 l 74 492 q 22 562 21 492 q 74 632 22 632 l 433 632 q 444 636 443 632 q 446 646 446 640 l 446 833 q 528 900 446 900 q 611 833 611 900 l 611 575 m 992 579 q 909 513 992 513 q 826 579 826 513 l 826 960 q 825 969 826 965 q 814 974 824 974 l 178 974 q 126 1044 126 974 q 178 1114 125 1114 l 904 1114 q 973 1088 954 1114 q 992 1031 992 1063 l 992 579 m 338 -64 q 220 -64 283 -117 q 211 39 157 -11 l 601 415 q 636 436 617 431 q 675 442 656 442 q 715 436 694 442 q 750 415 735 431 l 1140 39 q 1130 -63 1193 -12 q 1014 -64 1067 -114 l 676 271 l 338 -64 z "},"공":{"ha":1189,"x_min":21,"x_max":1008,"o":"m 611 575 q 592 517 611 543 q 524 492 574 492 l 74 492 q 22 562 21 492 q 74 632 22 632 l 433 632 q 444 636 443 632 q 446 646 446 640 l 446 833 q 528 900 446 900 q 611 833 611 900 l 611 575 m 992 579 q 909 513 992 513 q 826 579 826 513 l 826 960 q 825 969 826 965 q 814 974 824 974 l 178 974 q 126 1044 126 974 q 178 1114 125 1114 l 904 1114 q 973 1088 954 1114 q 992 1031 992 1063 l 992 579 m 1008 157 q 913 -48 1008 38 q 679 -133 817 -133 q 444 -49 540 -133 q 347 157 347 36 q 444 363 347 278 q 679 447 540 447 q 913 362 817 447 q 1008 157 1008 276 m 843 157 q 795 263 843 219 q 679 306 747 306 q 563 263 611 306 q 515 157 515 219 q 563 51 515 94 q 679 8 611 8 q 795 51 747 8 q 843 157 843 94 z "},"곶":{"ha":1189,"x_min":21,"x_max":1190,"o":"m 267 301 q 215 372 215 301 q 267 442 214 442 l 1092 442 q 1145 372 1146 442 q 1092 301 1144 301 l 804 301 l 1138 39 q 1131 -58 1190 -3 q 1011 -64 1072 -112 l 678 207 l 349 -64 q 228 -59 288 -114 q 222 39 168 -4 l 550 301 l 267 301 m 992 607 q 909 540 992 540 q 826 607 826 540 l 826 960 q 825 969 826 965 q 814 974 824 974 l 178 974 q 126 1044 126 974 q 178 1114 125 1114 l 904 1114 q 973 1088 954 1114 q 992 1031 992 1063 l 992 607 m 611 600 q 592 542 611 568 q 524 517 574 517 l 74 517 q 22 587 21 517 q 74 657 22 657 l 433 657 q 444 661 443 657 q 446 671 446 665 l 446 847 q 528 914 446 914 q 611 847 611 914 l 611 600 z "},"과":{"ha":1354,"x_min":21,"x_max":1328,"o":"m 1328 649 q 1297 573 1328 604 q 1221 542 1265 542 q 1145 573 1176 542 q 1114 649 1114 604 q 1145 724 1114 693 q 1221 756 1176 756 q 1297 724 1265 756 q 1328 649 1328 693 m 1068 31 q 985 -36 1068 -36 q 903 31 903 -36 l 903 1078 q 985 1144 903 1144 q 1068 1078 1068 1144 l 1068 31 m 793 261 q 710 194 793 194 q 628 261 628 194 l 628 960 q 626 969 628 965 q 615 974 625 974 l 144 974 q 92 1044 93 974 q 144 1114 92 1114 l 706 1114 q 774 1088 756 1114 q 793 1031 793 1063 l 793 261 m 500 215 q 481 158 500 183 q 413 132 463 132 l 74 132 q 22 202 21 132 q 74 272 22 272 l 322 272 q 333 276 332 272 q 335 286 335 281 l 335 706 q 417 772 335 772 q 500 706 500 772 l 500 215 z "},"곽":{"ha":1389,"x_min":21,"x_max":1328,"o":"m 1321 -17 q 1238 -83 1321 -83 q 1156 -17 1156 -83 l 1156 271 q 1154 281 1156 276 q 1143 285 1153 285 l 532 285 q 480 355 481 285 q 532 425 479 425 l 1233 425 q 1302 399 1283 425 q 1321 342 1321 374 l 1321 -17 m 1328 818 q 1297 742 1328 774 q 1221 711 1265 711 q 1145 742 1176 711 q 1114 818 1114 774 q 1145 894 1114 863 q 1221 925 1176 925 q 1297 894 1265 925 q 1328 818 1328 863 m 1068 521 q 985 454 1068 454 q 903 521 903 454 l 903 1078 q 985 1144 903 1144 q 1068 1078 1068 1144 l 1068 521 m 793 529 q 710 463 793 463 q 628 529 628 463 l 628 960 q 626 969 628 965 q 615 974 625 974 l 144 974 q 92 1044 93 974 q 144 1114 92 1114 l 706 1114 q 774 1088 756 1114 q 793 1031 793 1063 l 793 529 m 500 482 q 481 424 500 450 q 413 399 463 399 l 74 399 q 22 469 21 399 q 74 539 22 539 l 322 539 q 333 543 332 539 q 335 553 335 547 l 335 778 q 417 844 335 844 q 500 778 500 844 l 500 482 z "},"관":{"ha":1389,"x_min":21,"x_max":1328,"o":"m 793 515 q 710 449 793 449 q 628 515 628 449 l 628 960 q 626 969 628 965 q 615 974 625 974 l 144 974 q 92 1044 93 974 q 144 1114 92 1114 l 706 1114 q 774 1088 756 1114 q 793 1031 793 1063 l 793 515 m 500 468 q 481 410 500 436 q 413 385 463 385 l 74 385 q 22 455 21 385 q 74 525 22 525 l 322 525 q 333 529 332 525 q 335 539 335 533 l 335 778 q 417 844 335 844 q 500 778 500 844 l 500 468 m 585 -68 q 516 -42 535 -68 q 497 15 497 -17 l 497 344 q 580 411 497 411 q 663 344 663 411 l 663 86 q 664 76 663 81 q 675 72 665 72 l 1272 72 q 1324 2 1324 72 q 1272 -68 1325 -68 l 585 -68 m 1328 760 q 1297 684 1328 715 q 1221 653 1265 653 q 1145 684 1176 653 q 1114 760 1114 715 q 1145 835 1114 804 q 1221 867 1176 867 q 1297 835 1265 867 q 1328 760 1328 804 m 1068 344 q 985 278 1068 278 q 903 344 903 278 l 903 1078 q 985 1144 903 1144 q 1068 1078 1068 1144 l 1068 344 z "},"괄":{"ha":1389,"x_min":21,"x_max":1357,"o":"m 793 590 q 710 524 793 524 q 628 590 628 524 l 628 960 q 626 969 628 965 q 615 974 625 974 l 144 974 q 92 1044 93 974 q 144 1114 92 1114 l 706 1114 q 774 1088 756 1114 q 793 1031 793 1063 l 793 590 m 500 543 q 481 485 500 511 q 413 460 463 460 l 74 460 q 22 530 21 460 q 74 600 22 600 l 322 600 q 333 604 332 600 q 335 614 335 608 l 335 792 q 417 858 335 858 q 500 792 500 858 l 500 543 m 1328 857 q 1297 781 1328 813 q 1221 750 1265 750 q 1145 781 1176 750 q 1114 857 1114 813 q 1145 933 1114 901 q 1221 964 1176 964 q 1297 933 1265 964 q 1328 857 1328 901 m 1068 581 q 985 514 1068 514 q 903 581 903 514 l 903 1079 q 985 1146 903 1146 q 1068 1079 1068 1146 l 1068 581 m 1321 208 q 1302 151 1321 176 q 1233 125 1283 125 l 674 125 q 663 121 664 125 q 661 111 661 117 l 661 54 q 663 44 661 49 q 674 40 664 40 l 1304 40 q 1356 -30 1357 40 q 1304 -100 1356 -100 l 583 -100 q 515 -74 533 -100 q 496 -17 496 -49 l 496 182 q 515 240 496 214 q 583 265 533 265 l 1143 265 q 1154 269 1153 265 q 1156 279 1156 274 l 1156 336 q 1154 346 1156 342 q 1143 350 1153 350 l 547 350 q 495 420 496 350 q 547 490 494 490 l 1233 490 q 1302 465 1283 490 q 1321 407 1321 439 l 1321 208 z "},"괆":{"ha":1389,"x_min":21,"x_max":1328,"o":"m 500 543 q 481 485 500 511 q 443 463 468 468 l 686 463 q 755 437 736 463 q 774 379 774 411 l 774 194 q 755 137 774 163 q 686 111 736 111 l 460 111 q 449 107 450 111 q 447 97 447 103 l 447 54 q 449 44 447 49 q 460 40 450 40 l 757 40 q 809 -30 810 40 q 757 -100 808 -100 l 369 -100 q 301 -74 319 -100 q 282 -17 282 -49 l 282 168 q 301 226 282 200 q 369 251 319 251 l 596 251 q 607 256 606 251 q 608 265 608 260 l 608 308 q 607 318 608 314 q 596 322 606 322 l 326 322 q 274 392 275 322 q 307 460 274 449 l 74 460 q 22 530 21 460 q 74 600 22 600 l 322 600 q 333 604 332 600 q 335 614 335 608 l 335 792 q 417 858 335 858 q 500 792 500 858 l 500 543 m 1321 -17 q 1302 -74 1321 -49 q 1233 -100 1283 -100 l 917 -100 q 848 -74 867 -100 q 829 -17 829 -49 l 829 379 q 848 437 829 411 q 917 463 867 463 l 1233 463 q 1302 437 1283 463 q 1321 379 1321 411 l 1321 -17 m 793 574 q 710 507 793 507 q 628 574 628 507 l 628 960 q 626 969 628 965 q 615 974 625 974 l 144 974 q 92 1044 93 974 q 144 1114 92 1114 l 706 1114 q 774 1088 756 1114 q 793 1031 793 1063 l 793 574 m 1068 564 q 985 497 1068 497 q 903 564 903 497 l 903 1079 q 985 1146 903 1146 q 1068 1079 1068 1146 l 1068 564 m 1156 308 q 1154 318 1156 314 q 1143 322 1153 322 l 1007 322 q 996 318 997 322 q 994 308 994 314 l 994 54 q 996 44 994 49 q 1007 40 997 40 l 1143 40 q 1154 44 1153 40 q 1156 54 1156 49 l 1156 308 m 1328 843 q 1297 767 1328 799 q 1221 736 1265 736 q 1145 767 1176 736 q 1114 843 1114 799 q 1145 919 1114 888 q 1221 950 1176 950 q 1297 919 1265 950 q 1328 843 1328 888 z "},"괌":{"ha":1389,"x_min":21,"x_max":1328,"o":"m 1328 832 q 1297 756 1328 788 q 1221 725 1265 725 q 1145 756 1176 725 q 1114 832 1114 788 q 1145 908 1114 876 q 1221 939 1176 939 q 1297 908 1265 939 q 1328 832 1328 876 m 1068 507 q 985 440 1068 440 q 903 507 903 440 l 903 1078 q 985 1144 903 1144 q 1068 1078 1068 1144 l 1068 507 m 793 507 q 710 440 793 440 q 628 507 628 440 l 628 960 q 626 969 628 965 q 615 974 625 974 l 144 974 q 92 1044 93 974 q 144 1114 92 1114 l 706 1114 q 774 1088 756 1114 q 793 1031 793 1063 l 793 507 m 500 482 q 481 424 500 450 q 413 399 463 399 l 74 399 q 22 469 21 399 q 74 539 22 539 l 322 539 q 333 543 332 539 q 335 553 335 547 l 335 778 q 417 844 335 844 q 500 778 500 844 l 500 482 m 1321 -1 q 1302 -59 1321 -33 q 1233 -85 1283 -85 l 583 -85 q 515 -59 533 -85 q 496 -1 496 -33 l 496 325 q 515 383 496 357 q 583 408 533 408 l 1233 408 q 1302 383 1283 408 q 1321 325 1321 357 l 1321 -1 m 1156 254 q 1154 264 1156 260 q 1143 268 1153 268 l 674 268 q 663 264 664 268 q 661 254 661 260 l 661 69 q 663 60 661 64 q 674 56 664 56 l 1143 56 q 1154 60 1153 56 q 1156 69 1156 64 l 1156 254 z "},"괍":{"ha":1389,"x_min":21,"x_max":1328,"o":"m 1321 -1 q 1301 -59 1319 -33 q 1233 -85 1283 -85 l 583 -85 q 515 -59 533 -85 q 496 -1 496 -33 l 496 417 q 578 483 496 483 q 661 417 661 483 l 661 69 q 663 60 661 64 q 674 56 664 56 l 1143 56 q 1154 60 1153 56 q 1156 69 1156 64 l 1156 189 l 735 189 q 683 259 683 189 q 735 329 682 329 l 1156 329 l 1156 417 q 1238 483 1156 483 q 1321 417 1321 483 l 1321 -1 m 793 557 q 710 490 793 490 q 628 557 628 490 l 628 960 q 626 969 628 965 q 615 974 625 974 l 144 974 q 92 1044 93 974 q 144 1114 92 1114 l 706 1114 q 774 1088 756 1114 q 793 1031 793 1063 l 793 557 m 1068 513 q 985 446 1068 446 q 903 513 903 446 l 903 1078 q 985 1144 903 1144 q 1068 1078 1068 1144 l 1068 513 m 500 524 q 481 466 500 492 q 413 440 463 440 l 74 440 q 22 510 21 440 q 74 581 22 581 l 322 581 q 333 585 332 581 q 335 594 335 589 l 335 806 q 417 872 335 872 q 500 806 500 872 l 500 524 m 1328 818 q 1297 742 1328 774 q 1221 711 1265 711 q 1145 742 1176 711 q 1114 818 1114 774 q 1145 894 1114 863 q 1221 925 1176 925 q 1297 894 1265 925 q 1328 818 1328 863 z "},"괏":{"ha":1389,"x_min":21,"x_max":1328,"o":"m 793 524 q 710 457 793 457 q 628 524 628 457 l 628 960 q 626 969 628 965 q 615 974 625 974 l 144 974 q 92 1044 93 974 q 144 1114 92 1114 l 706 1114 q 774 1088 756 1114 q 793 1031 793 1063 l 793 524 m 500 482 q 481 424 500 450 q 413 399 463 399 l 74 399 q 22 469 21 399 q 74 539 22 539 l 322 539 q 333 543 332 539 q 335 553 335 547 l 335 806 q 417 872 335 872 q 500 806 500 872 l 500 482 m 1068 475 q 985 408 1068 408 q 903 475 903 408 l 903 1078 q 985 1144 903 1144 q 1068 1078 1068 1144 l 1068 475 m 457 -64 q 341 -62 406 -114 q 331 39 276 -11 l 721 415 q 756 436 736 431 q 794 442 775 442 q 834 436 814 442 q 869 415 854 431 l 1260 39 q 1249 -63 1313 -12 q 1133 -64 1186 -114 l 796 271 l 457 -64 m 1328 801 q 1297 726 1328 757 q 1221 694 1265 694 q 1145 726 1176 694 q 1114 801 1114 757 q 1145 877 1114 846 q 1221 908 1176 908 q 1297 877 1265 908 q 1328 801 1328 846 z "},"광":{"ha":1389,"x_min":21,"x_max":1328,"o":"m 793 554 q 710 488 793 488 q 628 554 628 488 l 628 960 q 626 969 628 965 q 615 974 625 974 l 144 974 q 92 1044 93 974 q 144 1114 92 1114 l 706 1114 q 774 1088 756 1114 q 793 1031 793 1063 l 793 554 m 500 482 q 481 424 500 450 q 413 399 463 399 l 74 399 q 22 469 21 399 q 74 539 22 539 l 322 539 q 333 543 332 539 q 335 553 335 547 l 335 806 q 417 872 335 872 q 500 806 500 872 l 500 482 m 1068 533 q 985 467 1068 467 q 903 533 903 467 l 903 1078 q 985 1144 903 1144 q 1068 1078 1068 1144 l 1068 533 m 1328 846 q 1297 770 1328 801 q 1221 739 1265 739 q 1145 770 1176 739 q 1114 846 1114 801 q 1145 922 1114 890 q 1221 953 1176 953 q 1297 922 1265 953 q 1328 846 1328 890 m 1289 157 q 1193 -48 1289 38 q 960 -133 1097 -133 q 724 -49 821 -133 q 628 157 628 36 q 724 363 628 278 q 960 447 821 447 q 1193 362 1097 447 q 1289 157 1289 276 m 1124 157 q 1076 263 1124 219 q 960 306 1028 306 q 844 263 892 306 q 796 157 796 219 q 844 51 796 94 q 960 8 892 8 q 1076 51 1028 8 q 1124 157 1124 94 z "},"괘":{"ha":1389,"x_min":21,"x_max":1243,"o":"m 972 31 q 891 -36 972 -36 q 810 31 810 -36 l 810 1078 q 891 1144 810 1144 q 972 1078 972 1144 l 972 692 l 1044 692 q 1078 681 1065 692 l 1078 1078 q 1160 1144 1078 1144 q 1243 1078 1243 1144 l 1243 31 q 1160 -36 1243 -36 q 1078 31 1078 -36 l 1078 563 q 1044 551 1065 551 l 972 551 l 972 31 m 704 233 q 621 167 700 167 q 542 233 542 167 l 542 960 q 540 969 542 965 q 529 974 539 974 l 121 974 q 69 1044 69 974 q 121 1114 68 1114 l 617 1114 q 685 1088 667 1114 q 704 1031 704 1063 l 704 233 m 438 214 q 419 156 438 182 q 350 131 400 131 l 74 131 q 22 201 21 131 q 74 271 22 271 l 263 271 q 274 275 272 271 q 275 285 275 279 l 275 764 q 356 831 275 831 q 438 764 438 831 l 438 214 z "},"괜":{"ha":1389,"x_min":21,"x_max":1325,"o":"m 972 346 q 891 279 972 279 q 810 346 810 279 l 810 1078 q 891 1144 810 1144 q 972 1078 972 1144 l 972 803 l 1051 803 q 1078 796 1067 803 l 1078 1078 q 1160 1144 1078 1144 q 1243 1078 1243 1144 l 1243 346 q 1160 279 1243 279 q 1078 346 1078 279 l 1078 668 q 1051 663 1067 663 l 972 663 l 972 346 m 704 492 q 621 425 700 425 q 542 492 542 425 l 542 960 q 540 969 542 965 q 529 974 539 974 l 121 974 q 69 1044 69 974 q 121 1114 68 1114 l 617 1114 q 685 1088 667 1114 q 704 1031 704 1063 l 704 492 m 585 -68 q 516 -42 535 -68 q 497 15 497 -17 l 497 344 q 580 411 497 411 q 663 344 663 411 l 663 86 q 664 76 663 81 q 675 72 665 72 l 1272 72 q 1324 2 1324 72 q 1272 -68 1325 -68 l 585 -68 m 438 444 q 419 387 438 413 q 350 361 400 361 l 74 361 q 22 431 21 361 q 74 501 22 501 l 263 501 q 274 506 272 501 q 275 515 275 510 l 275 806 q 356 872 275 872 q 438 806 438 872 l 438 444 z "},"괠":{"ha":1389,"x_min":21,"x_max":1357,"o":"m 1321 208 q 1302 151 1321 176 q 1233 125 1283 125 l 674 125 q 663 121 664 125 q 661 111 661 117 l 661 54 q 663 44 661 49 q 674 40 664 40 l 1304 40 q 1356 -30 1357 40 q 1304 -100 1356 -100 l 583 -100 q 515 -74 533 -100 q 496 -17 496 -49 l 496 182 q 515 240 496 214 q 583 265 533 265 l 1143 265 q 1154 269 1153 265 q 1156 279 1156 274 l 1156 336 q 1154 346 1156 342 q 1143 350 1153 350 l 547 350 q 495 420 496 350 q 547 490 494 490 l 1233 490 q 1302 465 1283 490 q 1321 407 1321 439 l 1321 208 m 972 582 q 891 515 972 515 q 810 582 810 515 l 810 1078 q 891 1144 810 1144 q 972 1078 972 1144 l 972 914 l 1044 914 q 1078 903 1065 914 l 1078 1078 q 1160 1144 1078 1144 q 1243 1078 1243 1144 l 1243 582 q 1160 515 1243 515 q 1078 582 1078 515 l 1078 785 q 1044 774 1065 774 l 972 774 l 972 582 m 704 589 q 621 522 700 522 q 542 589 542 522 l 542 960 q 540 969 542 965 q 529 974 539 974 l 121 974 q 69 1044 69 974 q 121 1114 68 1114 l 617 1114 q 685 1088 667 1114 q 704 1031 704 1063 l 704 589 m 438 542 q 419 484 438 510 q 350 458 400 458 l 74 458 q 22 528 21 458 q 74 599 22 599 l 263 599 q 274 603 272 599 q 275 613 275 607 l 275 819 q 356 886 275 886 q 438 819 438 886 l 438 542 z "},"괩":{"ha":1389,"x_min":21,"x_max":1321,"o":"m 1321 -1 q 1301 -59 1319 -33 q 1233 -85 1283 -85 l 583 -85 q 515 -59 533 -85 q 496 -1 496 -33 l 496 417 q 578 483 496 483 q 661 417 661 483 l 661 69 q 663 60 661 64 q 674 56 664 56 l 1143 56 q 1154 60 1153 56 q 1156 69 1156 64 l 1156 189 l 735 189 q 683 259 683 189 q 735 329 682 329 l 1156 329 l 1156 417 q 1238 483 1156 483 q 1321 417 1321 483 l 1321 -1 m 972 568 q 891 501 972 501 q 810 568 810 501 l 810 1078 q 891 1144 810 1144 q 972 1078 972 1144 l 972 907 l 1044 907 q 1078 896 1065 907 l 1078 1078 q 1160 1144 1078 1144 q 1243 1078 1243 1144 l 1243 568 q 1160 501 1243 501 q 1078 568 1078 501 l 1078 778 q 1044 767 1065 767 l 972 767 l 972 568 m 704 575 q 621 508 700 508 q 542 575 542 508 l 542 960 q 540 969 542 965 q 529 974 539 974 l 121 974 q 69 1044 69 974 q 121 1114 68 1114 l 617 1114 q 685 1088 667 1114 q 704 1031 704 1063 l 704 575 m 438 542 q 419 484 438 510 q 350 458 400 458 l 74 458 q 22 528 21 458 q 74 599 22 599 l 263 599 q 274 603 272 599 q 275 613 275 607 l 275 819 q 356 886 275 886 q 438 819 438 886 l 438 542 z "},"괬":{"ha":1389,"x_min":21,"x_max":1397,"o":"m 824 -83 q 783 -78 801 -85 q 753 -53 764 -71 l 588 247 l 421 -53 q 318 -75 392 -104 q 285 26 244 -46 l 508 431 q 542 465 522 456 q 586 475 561 475 q 632 465 613 475 q 665 431 651 456 l 821 150 l 976 431 q 1010 465 990 456 q 1054 475 1029 475 q 1100 465 1081 475 q 1133 431 1119 456 l 1357 26 q 1324 -75 1397 -46 q 1221 -53 1250 -104 l 1056 247 l 889 -53 q 861 -78 879 -71 q 824 -83 843 -85 m 972 540 q 891 474 972 474 q 810 540 810 474 l 810 1078 q 891 1144 810 1144 q 972 1078 972 1144 l 972 893 l 1044 893 q 1078 882 1065 893 l 1078 1078 q 1160 1144 1078 1144 q 1243 1078 1243 1144 l 1243 540 q 1160 474 1243 474 q 1078 540 1078 474 l 1078 764 q 1044 753 1065 753 l 972 753 l 972 540 m 704 561 q 621 494 700 494 q 542 561 542 494 l 542 960 q 540 969 542 965 q 529 974 539 974 l 121 974 q 69 1044 69 974 q 121 1114 68 1114 l 617 1114 q 685 1088 667 1114 q 704 1031 704 1063 l 704 561 m 438 528 q 419 470 438 496 q 350 444 400 444 l 74 444 q 22 515 21 444 q 74 585 22 585 l 263 585 q 274 589 272 585 q 275 599 275 593 l 275 806 q 356 872 275 872 q 438 806 438 872 l 438 528 z "},"괭":{"ha":1389,"x_min":21,"x_max":1289,"o":"m 1289 157 q 1193 -48 1289 38 q 960 -133 1097 -133 q 724 -49 821 -133 q 628 157 628 36 q 724 363 628 278 q 960 447 821 447 q 1193 362 1097 447 q 1289 157 1289 276 m 972 529 q 891 463 972 463 q 810 529 810 463 l 810 1078 q 891 1144 810 1144 q 972 1078 972 1144 l 972 888 l 1044 888 q 1078 876 1065 888 l 1078 1078 q 1160 1144 1078 1144 q 1243 1078 1243 1144 l 1243 515 q 1160 449 1243 449 q 1078 515 1078 449 l 1078 758 q 1044 747 1065 747 l 972 747 l 972 529 m 704 501 q 621 435 700 435 q 542 501 542 435 l 542 960 q 540 969 542 965 q 529 974 539 974 l 121 974 q 69 1044 69 974 q 121 1114 68 1114 l 617 1114 q 685 1088 667 1114 q 704 1031 704 1063 l 704 501 m 438 440 q 419 383 438 408 q 350 357 400 357 l 74 357 q 22 427 21 357 q 74 497 22 497 l 263 497 q 274 501 272 497 q 275 511 275 506 l 275 792 q 356 858 275 858 q 438 792 438 858 l 438 440 m 1124 157 q 1076 263 1124 219 q 960 306 1028 306 q 844 263 892 306 q 796 157 796 219 q 844 51 796 94 q 960 8 892 8 q 1076 51 1028 8 q 1124 157 1124 94 z "},"괴":{"ha":1321,"x_min":21,"x_max":1156,"o":"m 1156 31 q 1073 -36 1156 -36 q 990 31 990 -36 l 990 1078 q 1073 1144 990 1144 q 1156 1078 1156 1144 l 1156 31 m 826 261 q 744 194 826 194 q 661 261 661 194 l 661 960 q 660 969 661 965 q 649 974 658 974 l 144 974 q 92 1044 93 974 q 144 1114 92 1114 l 739 1114 q 808 1088 789 1114 q 826 1031 826 1063 l 826 261 m 500 215 q 481 158 500 183 q 413 132 463 132 l 74 132 q 22 202 21 132 q 74 272 22 272 l 322 272 q 333 276 332 272 q 335 286 335 281 l 335 706 q 417 772 335 772 q 500 706 500 772 l 500 215 z "},"괵":{"ha":1321,"x_min":21,"x_max":1256,"o":"m 500 496 q 481 438 500 464 q 463 422 474 428 l 467 422 l 1168 422 q 1237 397 1218 422 q 1256 339 1256 371 l 1256 -19 q 1173 -86 1256 -86 q 1090 -19 1090 -86 l 1090 268 q 1089 278 1090 274 q 1078 282 1088 282 l 467 282 q 414 351 415 282 q 436 414 414 397 q 413 413 425 413 l 74 413 q 22 483 21 413 q 74 553 22 553 l 322 553 q 333 557 332 553 q 335 567 335 561 l 335 792 q 417 858 335 858 q 500 792 500 858 l 500 496 m 826 526 q 744 460 826 460 q 661 526 661 460 l 661 960 q 660 969 661 965 q 649 974 658 974 l 144 974 q 92 1044 93 974 q 144 1114 92 1114 l 739 1114 q 808 1088 789 1114 q 826 1031 826 1063 l 826 526 m 1156 518 q 1073 451 1156 451 q 990 518 990 451 l 990 1078 q 1073 1144 990 1144 q 1156 1078 1156 1144 l 1156 518 z "},"괸":{"ha":1321,"x_min":21,"x_max":1272,"o":"m 518 -68 q 449 -42 468 -68 q 431 15 431 -17 l 431 358 q 443 401 431 385 q 413 399 429 399 l 74 399 q 22 469 21 399 q 74 539 22 539 l 322 539 q 333 543 332 539 q 335 553 335 547 l 335 792 q 417 858 335 858 q 500 792 500 858 l 500 482 q 481 424 500 450 q 479 421 479 422 q 513 425 494 425 q 596 358 596 425 l 596 86 q 597 76 596 81 q 608 72 599 72 l 1219 72 q 1272 2 1271 72 q 1219 -68 1272 -68 l 518 -68 m 826 529 q 744 463 826 463 q 661 529 661 463 l 661 960 q 660 969 661 965 q 649 974 658 974 l 144 974 q 92 1044 93 974 q 144 1114 92 1114 l 739 1114 q 808 1088 789 1114 q 826 1031 826 1063 l 826 529 m 1156 358 q 1073 292 1156 292 q 990 358 990 292 l 990 1078 q 1073 1144 990 1144 q 1156 1078 1156 1144 l 1156 358 z "},"괼":{"ha":1321,"x_min":21,"x_max":1292,"o":"m 1256 208 q 1237 151 1256 176 q 1168 125 1218 125 l 608 125 q 597 121 599 125 q 596 111 596 117 l 596 54 q 597 44 596 49 q 608 40 599 40 l 1239 40 q 1291 -30 1292 40 q 1239 -100 1290 -100 l 518 -100 q 449 -74 468 -100 q 431 -17 431 -49 l 431 182 q 449 240 431 214 q 518 265 468 265 l 1078 265 q 1089 269 1088 265 q 1090 279 1090 274 l 1090 336 q 1089 346 1090 342 q 1078 350 1088 350 l 482 350 q 429 419 431 350 q 436 461 429 444 q 413 460 425 460 l 74 460 q 22 530 21 460 q 74 600 22 600 l 322 600 q 333 604 332 600 q 335 614 335 608 l 335 806 q 417 872 335 872 q 500 806 500 872 l 500 543 q 485 490 500 514 l 1168 490 q 1237 465 1218 490 q 1256 407 1256 439 l 1256 208 m 826 590 q 744 524 826 524 q 661 590 661 524 l 661 960 q 660 969 661 965 q 649 974 658 974 l 144 974 q 92 1044 93 974 q 144 1114 92 1114 l 739 1114 q 808 1088 789 1114 q 826 1031 826 1063 l 826 590 m 1156 581 q 1073 514 1156 514 q 990 581 990 514 l 990 1079 q 1073 1146 990 1146 q 1156 1079 1156 1146 l 1156 581 z "},"굄":{"ha":1321,"x_min":21,"x_max":1256,"o":"m 1256 -1 q 1237 -59 1256 -33 q 1168 -85 1218 -85 l 518 -85 q 449 -59 468 -85 q 431 -1 431 -33 l 431 356 q 449 413 431 388 q 453 418 451 415 q 413 413 436 413 l 74 413 q 22 483 21 413 q 74 553 22 553 l 322 553 q 333 557 332 553 q 335 567 335 561 l 335 806 q 417 872 335 872 q 500 806 500 872 l 500 496 q 481 438 500 464 l 476 432 q 518 439 493 439 l 1168 439 q 1237 413 1218 439 q 1256 356 1256 388 l 1256 -1 m 826 538 q 744 471 826 471 q 661 538 661 471 l 661 960 q 660 969 661 965 q 649 974 658 974 l 144 974 q 92 1044 93 974 q 144 1114 92 1114 l 739 1114 q 808 1088 789 1114 q 826 1031 826 1063 l 826 538 m 1090 285 q 1089 294 1090 290 q 1078 299 1088 299 l 608 299 q 597 294 599 299 q 596 285 596 290 l 596 69 q 597 60 596 64 q 608 56 599 56 l 1078 56 q 1089 60 1088 56 q 1090 69 1090 64 l 1090 285 m 1156 538 q 1073 471 1156 471 q 990 538 990 471 l 990 1078 q 1073 1144 990 1144 q 1156 1078 1156 1144 l 1156 538 z "},"굅":{"ha":1321,"x_min":21,"x_max":1256,"o":"m 500 538 q 481 479 500 506 q 513 483 494 483 q 596 417 596 483 l 596 69 q 597 60 596 64 q 608 56 599 56 l 1078 56 q 1089 60 1088 56 q 1090 69 1090 64 l 1090 189 l 669 189 q 617 259 618 189 q 669 329 617 329 l 1090 329 l 1090 417 q 1173 483 1090 483 q 1256 417 1256 483 l 1256 -1 q 1236 -59 1254 -33 q 1168 -85 1218 -85 l 518 -85 q 449 -59 468 -85 q 431 -1 431 -33 l 431 417 q 442 456 431 440 q 413 454 428 454 l 74 454 q 22 524 21 454 q 74 594 22 594 l 322 594 q 333 599 332 594 q 335 608 335 603 l 335 819 q 417 886 335 886 q 500 819 500 886 l 500 538 m 826 571 q 744 504 826 504 q 661 571 661 504 l 661 960 q 660 969 661 965 q 649 974 658 974 l 144 974 q 92 1044 93 974 q 144 1114 92 1114 l 739 1114 q 808 1088 789 1114 q 826 1031 826 1063 l 826 571 m 1156 554 q 1073 488 1156 488 q 990 554 990 488 l 990 1078 q 1073 1144 990 1144 q 1156 1078 1156 1144 l 1156 554 z "},"굇":{"ha":1321,"x_min":21,"x_max":1326,"o":"m 826 524 q 744 457 826 457 q 661 524 661 457 l 661 960 q 660 969 661 965 q 649 974 658 974 l 144 974 q 92 1044 93 974 q 144 1114 92 1114 l 739 1114 q 808 1088 789 1114 q 826 1031 826 1063 l 826 524 m 500 482 q 481 424 500 450 q 413 399 463 399 l 74 399 q 22 469 21 399 q 74 539 22 539 l 322 539 q 333 543 332 539 q 335 553 335 547 l 335 806 q 417 872 335 872 q 500 806 500 872 l 500 482 m 1156 444 q 1073 378 1156 378 q 990 444 990 378 l 990 1078 q 1073 1144 990 1144 q 1156 1078 1156 1144 l 1156 444 m 471 -64 q 355 -62 419 -114 q 344 39 290 -11 l 735 415 q 769 436 750 431 q 808 442 789 442 q 848 436 828 442 q 883 415 868 431 l 1274 39 q 1263 -63 1326 -12 q 1147 -64 1200 -114 l 810 271 l 471 -64 z "},"굉":{"ha":1321,"x_min":21,"x_max":1225,"o":"m 826 554 q 744 488 826 488 q 661 554 661 488 l 661 960 q 660 969 661 965 q 649 974 658 974 l 144 974 q 92 1044 93 974 q 144 1114 92 1114 l 739 1114 q 808 1088 789 1114 q 826 1031 826 1063 l 826 554 m 500 482 q 481 424 500 450 q 413 399 463 399 l 74 399 q 22 469 21 399 q 74 539 22 539 l 322 539 q 333 543 332 539 q 335 553 335 547 l 335 806 q 417 872 335 872 q 500 806 500 872 l 500 482 m 1156 519 q 1073 453 1156 453 q 990 519 990 453 l 990 1078 q 1073 1144 990 1144 q 1156 1078 1156 1144 l 1156 519 m 1225 157 q 1129 -48 1225 38 q 896 -133 1033 -133 q 660 -49 757 -133 q 564 157 564 36 q 660 363 564 278 q 896 447 757 447 q 1129 362 1033 447 q 1225 157 1225 276 m 1060 157 q 1012 263 1060 219 q 896 306 964 306 q 780 263 828 306 q 732 157 732 219 q 780 51 732 94 q 896 8 828 8 q 1012 51 964 8 q 1060 157 1060 94 z "},"교":{"ha":1090,"x_min":21,"x_max":992,"o":"m 992 243 q 909 176 992 176 q 826 243 826 176 l 826 960 q 825 969 826 965 q 814 974 824 974 l 178 974 q 126 1044 126 974 q 178 1114 125 1114 l 904 1114 q 973 1088 954 1114 q 992 1031 992 1063 l 992 243 m 449 181 q 430 123 449 149 q 361 97 411 97 l 74 97 q 22 167 21 97 q 74 238 22 238 l 271 238 q 282 242 281 238 q 283 251 283 246 l 283 686 q 366 753 283 753 q 449 686 449 753 l 449 181 m 724 160 q 641 93 724 93 q 558 160 558 93 l 558 686 q 641 753 558 753 q 724 686 724 753 l 724 160 z "},"굔":{"ha":1189,"x_min":21,"x_max":1094,"o":"m 992 564 q 909 497 992 497 q 826 564 826 497 l 826 960 q 825 969 826 965 q 814 974 824 974 l 186 974 q 134 1044 135 974 q 186 1114 133 1114 l 904 1114 q 973 1088 954 1114 q 992 1031 992 1063 l 992 564 m 449 514 q 430 456 449 482 q 361 431 411 431 l 74 431 q 22 501 21 431 q 74 571 22 571 l 271 571 q 282 575 281 571 q 283 585 283 579 l 283 811 q 366 878 283 878 q 449 811 449 878 l 449 514 m 724 493 q 641 426 724 426 q 558 493 558 426 l 558 811 q 641 878 558 878 q 724 811 724 878 l 724 493 m 354 -68 q 285 -42 304 -68 q 267 15 267 -17 l 267 317 q 349 383 267 383 q 432 317 432 383 l 432 86 q 433 76 432 81 q 444 72 435 72 l 1042 72 q 1094 2 1093 72 q 1042 -68 1094 -68 l 354 -68 z "},"굘":{"ha":1189,"x_min":21,"x_max":1126,"o":"m 1090 194 q 1072 137 1090 163 q 1003 111 1053 111 l 443 111 q 432 107 433 111 q 431 97 431 103 l 431 54 q 432 44 431 49 q 443 40 433 40 l 1074 40 q 1126 -30 1126 40 q 1074 -100 1125 -100 l 353 -100 q 284 -74 303 -100 q 265 -17 265 -49 l 265 168 q 284 226 265 200 q 353 251 303 251 l 913 251 q 924 256 922 251 q 925 265 925 260 l 925 308 q 924 318 925 314 q 913 322 922 322 l 317 322 q 265 392 265 322 q 317 463 264 463 l 1003 463 q 1072 437 1053 463 q 1090 379 1090 411 l 1090 194 m 992 657 q 909 590 992 590 q 826 657 826 590 l 826 960 q 825 969 826 965 q 814 974 824 974 l 186 974 q 134 1044 135 974 q 186 1114 133 1114 l 904 1114 q 973 1088 954 1114 q 992 1031 992 1063 l 992 657 m 449 607 q 430 549 449 575 q 361 524 411 524 l 74 524 q 22 594 21 524 q 74 664 22 664 l 271 664 q 282 668 281 664 q 283 678 283 672 l 283 839 q 366 906 283 906 q 449 839 449 906 l 449 607 m 724 586 q 641 519 724 519 q 558 586 558 519 l 558 839 q 641 906 558 906 q 724 839 724 906 l 724 586 z "},"굡":{"ha":1189,"x_min":21,"x_max":1090,"o":"m 1090 -1 q 1071 -59 1089 -33 q 1003 -85 1053 -85 l 353 -85 q 284 -59 303 -85 q 265 -1 265 -33 l 265 410 q 348 476 265 476 q 431 410 431 476 l 431 69 q 432 60 431 64 q 443 56 433 56 l 913 56 q 924 60 922 56 q 925 69 925 64 l 925 181 l 504 181 q 452 251 453 181 q 504 321 451 321 l 925 321 l 925 410 q 1008 476 925 476 q 1090 410 1090 476 l 1090 -1 m 992 650 q 909 583 992 583 q 826 650 826 583 l 826 960 q 825 969 826 965 q 814 974 824 974 l 186 974 q 134 1044 135 974 q 186 1114 133 1114 l 904 1114 q 973 1088 954 1114 q 992 1031 992 1063 l 992 650 m 449 600 q 430 542 449 568 q 361 517 411 517 l 74 517 q 22 587 21 517 q 74 657 22 657 l 271 657 q 282 661 281 657 q 283 671 283 665 l 283 839 q 366 906 283 906 q 449 839 449 906 l 449 600 m 724 579 q 641 513 724 513 q 558 579 558 513 l 558 839 q 641 906 558 906 q 724 839 724 906 l 724 579 z "},"굣":{"ha":1189,"x_min":21,"x_max":1194,"o":"m 992 599 q 909 532 992 532 q 826 599 826 532 l 826 960 q 825 969 826 965 q 814 974 824 974 l 186 974 q 134 1044 135 974 q 186 1114 133 1114 l 904 1114 q 973 1088 954 1114 q 992 1031 992 1063 l 992 599 m 449 549 q 430 491 449 517 q 361 465 411 465 l 74 465 q 22 535 21 465 q 74 606 22 606 l 271 606 q 282 610 281 606 q 283 619 283 614 l 283 839 q 366 906 283 906 q 449 839 449 906 l 449 549 m 724 542 q 641 475 724 475 q 558 542 558 475 l 558 839 q 641 906 558 906 q 724 839 724 906 l 724 542 m 339 -64 q 223 -62 288 -114 q 213 39 158 -11 l 603 415 q 638 436 618 431 q 676 442 657 442 q 716 436 696 442 q 751 415 736 431 l 1142 39 q 1131 -63 1194 -12 q 1015 -64 1068 -114 l 678 271 l 339 -64 z "},"구":{"ha":1090,"x_min":21,"x_max":992,"o":"m 714 31 q 631 -36 714 -36 q 549 31 549 -36 l 549 442 q 547 451 549 447 q 536 456 546 456 l 74 456 q 22 526 22 456 q 74 596 21 596 l 626 596 q 695 570 676 596 q 714 513 714 544 l 714 31 m 992 576 q 909 510 992 510 q 826 576 826 510 l 826 960 q 825 969 826 965 q 814 974 824 974 l 217 974 q 165 1044 165 974 q 217 1114 164 1114 l 904 1114 q 973 1088 954 1114 q 992 1031 992 1063 l 992 576 z "},"국":{"ha":1189,"x_min":21,"x_max":1092,"o":"m 1092 -17 q 1009 -83 1092 -83 q 926 -17 926 -83 l 926 243 q 925 253 926 249 q 914 257 924 257 l 313 257 q 260 327 261 257 q 313 397 260 397 l 585 397 l 585 535 q 583 544 585 540 q 572 549 582 549 l 74 549 q 22 619 22 549 q 74 689 21 689 l 663 689 q 731 663 713 689 q 750 606 750 638 l 750 397 l 1004 397 q 1073 372 1054 397 q 1092 314 1092 346 l 1092 -17 m 992 660 q 909 593 992 593 q 826 660 826 593 l 826 960 q 825 969 826 965 q 814 974 824 974 l 217 974 q 165 1044 165 974 q 217 1114 164 1114 l 904 1114 q 973 1088 954 1114 q 992 1031 992 1063 l 992 660 z "},"군":{"ha":1189,"x_min":21,"x_max":1093,"o":"m 756 286 q 673 219 756 219 q 590 286 590 219 l 590 493 q 589 503 590 499 q 578 507 588 507 l 74 507 q 22 577 22 507 q 74 647 21 647 l 668 647 q 737 622 718 647 q 756 564 756 596 l 756 286 m 992 660 q 909 593 992 593 q 826 660 826 593 l 826 960 q 825 969 826 965 q 814 974 824 974 l 217 974 q 165 1044 165 974 q 217 1114 164 1114 l 904 1114 q 973 1088 954 1114 q 992 1031 992 1063 l 992 660 m 353 -68 q 284 -42 303 -68 q 265 15 265 -17 l 265 331 q 348 397 265 397 q 431 331 431 397 l 431 86 q 432 76 431 81 q 443 72 433 72 l 1040 72 q 1092 2 1092 72 q 1040 -68 1093 -68 l 353 -68 z "},"굳":{"ha":1189,"x_min":21,"x_max":1128,"o":"m 353 -82 q 284 -56 303 -82 q 265 1 265 -31 l 265 314 q 284 372 265 346 q 353 397 303 397 l 590 397 l 590 521 q 589 531 590 526 q 578 535 588 535 l 74 535 q 22 605 22 535 q 74 675 21 675 l 668 675 q 737 649 718 675 q 756 592 756 624 l 756 397 l 1040 397 q 1094 327 1093 397 q 1040 257 1096 257 l 443 257 q 432 253 433 257 q 431 243 431 249 l 431 72 q 432 63 431 67 q 443 58 433 58 l 1072 58 q 1126 -12 1125 58 q 1072 -82 1128 -82 l 353 -82 m 992 660 q 909 593 992 593 q 826 660 826 593 l 826 960 q 825 969 826 965 q 814 974 824 974 l 217 974 q 165 1044 165 974 q 217 1114 164 1114 l 904 1114 q 973 1088 954 1114 q 992 1031 992 1063 l 992 660 z "},"굴":{"ha":1189,"x_min":21,"x_max":1126,"o":"m 1090 201 q 1072 144 1090 169 q 1003 118 1053 118 l 443 118 q 432 114 433 118 q 431 104 431 110 l 431 54 q 432 44 431 49 q 443 40 433 40 l 1074 40 q 1126 -30 1126 40 q 1074 -100 1125 -100 l 353 -100 q 284 -74 303 -100 q 265 -17 265 -49 l 265 175 q 284 233 265 207 q 353 258 303 258 l 913 258 q 924 263 922 258 q 925 272 925 267 l 925 322 q 924 332 925 328 q 913 336 922 336 l 317 336 q 265 406 265 336 q 317 476 264 476 l 590 476 l 590 563 q 589 572 590 568 q 578 576 588 576 l 74 576 q 22 647 22 576 q 74 717 21 717 l 668 717 q 737 691 718 717 q 756 633 756 665 l 756 476 l 1003 476 q 1072 451 1053 476 q 1090 393 1090 425 l 1090 201 m 992 701 q 909 635 992 635 q 826 701 826 635 l 826 960 q 825 969 826 965 q 814 974 824 974 l 217 974 q 165 1044 165 974 q 217 1114 164 1114 l 904 1114 q 973 1088 954 1114 q 992 1031 992 1063 l 992 701 z "},"굵":{"ha":1189,"x_min":21,"x_max":1124,"o":"m 632 197 q 613 140 632 165 q 544 114 594 114 l 318 114 q 307 110 308 114 q 306 100 306 106 l 306 54 q 307 44 306 49 q 318 40 308 40 l 615 40 q 667 -30 668 40 q 615 -100 667 -100 l 228 -100 q 159 -74 178 -100 q 140 -17 140 -49 l 140 171 q 159 228 140 203 q 228 254 178 254 l 454 254 q 465 258 464 254 q 467 268 467 263 l 467 314 q 465 324 467 319 q 454 328 464 328 l 185 328 q 133 398 133 328 q 185 468 132 468 l 544 468 q 558 467 551 468 l 558 563 q 557 572 558 568 q 546 576 556 576 l 74 576 q 22 647 22 576 q 74 717 21 717 l 636 717 q 705 691 686 717 q 724 633 724 665 l 724 468 l 1036 468 q 1105 442 1086 468 q 1124 385 1124 417 l 1124 -39 q 1041 -106 1124 -106 q 958 -39 958 -106 l 958 314 q 957 324 958 319 q 946 328 956 328 l 701 328 q 654 358 667 328 q 640 358 647 358 l 632 358 l 632 197 m 992 701 q 909 635 992 635 q 826 701 826 635 l 826 960 q 825 969 826 965 q 814 974 824 974 l 217 974 q 165 1044 165 974 q 217 1114 164 1114 l 904 1114 q 973 1088 954 1114 q 992 1031 992 1063 l 992 701 z "},"굶":{"ha":1189,"x_min":21,"x_max":1124,"o":"m 610 188 q 591 130 610 156 q 522 104 572 104 l 318 104 q 307 100 308 104 q 306 90 306 96 l 306 40 q 307 31 306 35 q 318 26 308 26 l 593 26 q 645 -44 646 26 q 593 -114 644 -114 l 228 -114 q 159 -88 178 -114 q 140 -31 140 -62 l 140 161 q 159 219 140 193 q 228 244 178 244 l 432 244 q 443 249 442 244 q 444 258 444 253 l 444 308 q 443 318 444 314 q 432 322 442 322 l 185 322 q 133 392 133 322 q 185 463 132 463 l 522 463 q 557 458 542 463 l 557 467 l 557 563 q 556 572 557 568 q 544 576 554 576 l 74 576 q 22 647 22 576 q 74 717 21 717 l 635 717 q 703 691 685 717 q 722 633 722 665 l 722 467 l 722 460 q 753 463 735 463 l 1036 463 q 1105 437 1086 463 q 1124 379 1124 411 l 1124 -31 q 1105 -88 1124 -62 q 1036 -114 1086 -114 l 753 -114 q 684 -88 703 -114 q 665 -31 665 -62 l 665 379 q 668 403 665 392 q 639 400 656 400 q 607 403 621 400 q 610 379 610 392 l 610 188 m 992 701 q 909 635 992 635 q 826 701 826 635 l 826 960 q 825 969 826 965 q 814 974 824 974 l 217 974 q 165 1044 165 974 q 217 1114 164 1114 l 904 1114 q 973 1088 954 1114 q 992 1031 992 1063 l 992 701 m 958 308 q 957 318 958 314 q 946 322 956 322 l 843 322 q 832 318 833 322 q 831 308 831 314 l 831 40 q 832 31 831 35 q 843 26 833 26 l 946 26 q 957 31 956 26 q 958 40 958 35 l 958 308 z "},"굻":{"ha":1189,"x_min":21,"x_max":1181,"o":"m 722 499 q 639 432 722 432 q 585 443 606 432 q 590 436 588 440 q 608 393 606 417 q 635 399 619 399 l 800 399 l 800 469 q 883 536 800 536 q 965 469 965 536 l 965 399 l 1126 399 q 1180 328 1181 399 q 1126 258 1179 258 l 1067 258 q 1126 106 1126 193 q 1055 -59 1126 10 q 883 -128 983 -128 q 710 -60 782 -128 q 638 106 638 8 q 697 258 638 193 l 635 258 q 610 264 619 258 l 610 188 q 591 130 610 156 q 522 104 572 104 l 318 104 q 307 100 308 104 q 306 90 306 96 l 306 40 q 307 31 306 35 q 318 26 308 26 l 593 26 q 645 -44 646 26 q 593 -114 644 -114 l 228 -114 q 159 -88 178 -114 q 140 -31 140 -62 l 140 161 q 159 219 140 193 q 228 244 178 244 l 432 244 q 443 249 442 244 q 444 258 444 253 l 444 308 q 443 318 444 314 q 432 322 442 322 l 185 322 q 133 392 133 322 q 185 463 132 463 l 522 463 q 574 451 554 463 q 557 499 557 468 l 557 563 q 556 572 557 568 q 544 576 554 576 l 74 576 q 22 647 22 576 q 74 717 21 717 l 635 717 q 703 691 685 717 q 722 633 722 665 l 722 499 m 992 701 q 909 635 992 635 q 826 701 826 635 l 826 960 q 825 969 826 965 q 814 974 824 974 l 217 974 q 165 1044 165 974 q 217 1114 164 1114 l 904 1114 q 973 1088 954 1114 q 992 1031 992 1063 l 992 701 m 961 106 q 938 173 961 146 q 883 200 915 200 q 828 173 851 200 q 804 106 804 146 q 828 39 804 67 q 883 11 851 11 q 938 39 915 11 q 961 106 961 67 z "},"굼":{"ha":1189,"x_min":21,"x_max":1090,"o":"m 1090 1 q 1072 -56 1090 -31 q 1003 -82 1053 -82 l 353 -82 q 284 -56 303 -82 q 265 1 265 -31 l 265 328 q 284 385 265 360 q 353 411 303 411 l 590 411 l 590 521 q 589 531 590 526 q 578 535 588 535 l 74 535 q 22 605 22 535 q 74 675 21 675 l 668 675 q 737 649 718 675 q 756 592 756 624 l 756 411 l 1003 411 q 1072 385 1053 411 q 1090 328 1090 360 l 1090 1 m 992 660 q 909 593 992 593 q 826 660 826 593 l 826 960 q 825 969 826 965 q 814 974 824 974 l 217 974 q 165 1044 165 974 q 217 1114 164 1114 l 904 1114 q 973 1088 954 1114 q 992 1031 992 1063 l 992 660 m 925 257 q 924 267 925 263 q 913 271 922 271 l 443 271 q 432 267 433 271 q 431 257 431 263 l 431 72 q 432 63 431 67 q 443 58 433 58 l 913 58 q 924 63 922 58 q 925 72 925 67 l 925 257 z "},"굽":{"ha":1189,"x_min":21,"x_max":1090,"o":"m 1090 -1 q 1071 -59 1089 -33 q 1003 -85 1053 -85 l 353 -85 q 284 -59 303 -85 q 265 -1 265 -33 l 265 410 q 348 476 265 476 q 431 410 431 476 l 431 69 q 432 60 431 64 q 443 56 433 56 l 913 56 q 924 60 922 56 q 925 69 925 64 l 925 181 l 504 181 q 452 251 453 181 q 504 321 451 321 l 925 321 l 925 410 q 1008 476 925 476 q 1090 410 1090 476 l 1090 -1 m 992 688 q 909 621 992 621 q 826 688 826 621 l 826 960 q 825 969 826 965 q 814 974 824 974 l 217 974 q 165 1044 165 974 q 217 1114 164 1114 l 904 1114 q 973 1088 954 1114 q 992 1031 992 1063 l 992 688 m 761 444 q 678 378 761 378 q 596 444 596 378 l 596 563 q 594 572 596 568 q 583 576 593 576 l 74 576 q 22 647 22 576 q 74 717 21 717 l 674 717 q 742 691 724 717 q 761 633 761 665 l 761 444 z "},"굿":{"ha":1189,"x_min":21,"x_max":1193,"o":"m 338 -64 q 220 -64 283 -117 q 211 39 157 -11 l 590 404 l 590 511 q 589 521 590 517 q 578 525 588 525 l 74 525 q 22 595 22 525 q 74 665 21 665 l 668 665 q 737 640 718 665 q 756 582 756 614 l 756 410 l 1140 39 q 1130 -63 1193 -12 q 1014 -64 1067 -114 l 676 271 l 338 -64 m 992 643 q 909 576 992 576 q 826 643 826 576 l 826 960 q 825 969 826 965 q 814 974 824 974 l 217 974 q 165 1044 165 974 q 217 1114 164 1114 l 904 1114 q 973 1088 954 1114 q 992 1031 992 1063 l 992 643 z "},"궁":{"ha":1189,"x_min":21,"x_max":1008,"o":"m 1008 157 q 913 -48 1008 38 q 679 -133 817 -133 q 444 -49 540 -133 q 347 157 347 36 q 443 363 347 278 q 590 438 507 418 l 590 532 q 589 542 590 538 q 578 546 588 546 l 74 546 q 22 616 22 546 q 74 686 21 686 l 668 686 q 737 660 718 686 q 756 603 756 635 l 756 440 q 913 361 844 422 q 1008 157 1008 276 m 992 674 q 909 607 992 607 q 826 674 826 607 l 826 960 q 825 969 826 965 q 814 974 824 974 l 217 974 q 165 1044 165 974 q 217 1114 164 1114 l 904 1114 q 973 1088 954 1114 q 992 1031 992 1063 l 992 674 m 843 157 q 795 263 843 219 q 679 306 747 306 q 563 263 611 306 q 515 157 515 219 q 563 51 515 94 q 679 8 611 8 q 795 51 747 8 q 843 157 843 94 z "},"궂":{"ha":1189,"x_min":21,"x_max":1190,"o":"m 761 442 l 1092 442 q 1145 372 1146 442 q 1092 301 1144 301 l 804 301 l 1138 39 q 1131 -58 1190 -3 q 1011 -64 1072 -112 l 678 207 l 349 -64 q 228 -59 288 -114 q 222 39 168 -4 l 550 301 l 267 301 q 215 372 215 301 q 267 442 214 442 l 596 442 l 596 450 l 596 569 q 594 579 596 575 q 583 583 593 583 l 74 583 q 22 653 22 583 q 74 724 21 724 l 674 724 q 742 698 724 724 q 761 640 761 672 l 761 450 l 761 442 m 992 688 q 909 621 992 621 q 826 688 826 621 l 826 960 q 825 969 826 965 q 814 974 824 974 l 217 974 q 165 1044 165 974 q 217 1114 164 1114 l 904 1114 q 973 1088 954 1114 q 992 1031 992 1063 l 992 688 z "},"궈":{"ha":1321,"x_min":21,"x_max":1156,"o":"m 938 357 q 906 281 938 313 q 831 250 875 250 q 755 281 786 250 q 724 357 724 313 q 755 433 724 401 q 831 464 786 464 q 906 433 875 464 q 938 357 938 401 m 1156 31 q 1073 -36 1156 -36 q 990 31 990 -36 l 990 1078 q 1073 1144 990 1144 q 1156 1078 1156 1144 l 1156 31 m 554 31 q 472 -36 554 -36 q 389 31 389 -36 l 389 469 q 388 479 389 475 q 376 483 386 483 l 74 483 q 22 553 22 483 q 74 624 21 624 l 467 624 q 535 598 517 624 q 554 540 554 572 l 554 31 m 793 618 q 710 551 793 551 q 628 618 628 551 l 628 960 q 626 969 628 965 q 615 974 625 974 l 153 974 q 101 1044 101 974 q 153 1114 100 1114 l 706 1114 q 774 1088 756 1114 q 793 1031 793 1063 l 793 618 z "},"궉":{"ha":1321,"x_min":21,"x_max":1254,"o":"m 1254 -19 q 1172 -86 1254 -86 q 1089 -19 1089 -86 l 1089 254 q 1088 264 1089 260 q 1076 268 1086 268 l 465 268 q 413 338 414 268 q 433 399 413 383 q 392 461 392 413 l 392 581 q 390 590 392 586 q 379 594 389 594 l 74 594 q 22 665 22 594 q 74 735 21 735 l 469 735 q 538 709 519 735 q 557 651 557 683 l 557 461 q 532 408 557 425 l 1167 408 q 1235 383 1217 408 q 1254 325 1254 357 l 1254 -19 m 782 785 q 699 718 782 718 q 617 785 617 718 l 617 960 q 615 969 617 965 q 604 974 614 974 l 153 974 q 101 1044 101 974 q 153 1114 100 1114 l 694 1114 q 763 1088 744 1114 q 782 1031 782 1063 l 782 785 m 1156 493 q 1073 426 1156 426 q 990 493 990 426 l 990 1078 q 1073 1144 990 1144 q 1156 1078 1156 1144 l 1156 493 m 940 607 q 909 531 940 563 q 833 500 878 500 q 758 531 789 500 q 726 607 726 563 q 758 683 726 651 q 833 714 789 714 q 909 683 878 714 q 940 607 940 651 z "},"권":{"ha":1321,"x_min":21,"x_max":1258,"o":"m 518 -68 q 449 -42 468 -68 q 431 15 431 -17 l 431 283 q 364 350 364 290 l 364 539 q 363 549 364 544 q 351 553 361 553 l 74 553 q 22 623 22 553 q 74 693 21 693 l 442 693 q 510 667 492 693 q 529 610 529 642 l 529 382 q 596 317 596 376 l 596 86 q 597 76 596 81 q 608 72 599 72 l 1206 72 q 1258 2 1257 72 q 1206 -68 1258 -68 l 518 -68 m 796 688 q 713 621 796 621 q 631 688 631 621 l 631 960 q 629 969 631 965 q 618 974 628 974 l 153 974 q 101 1044 101 974 q 153 1114 100 1114 l 708 1114 q 777 1088 758 1114 q 796 1031 796 1063 l 796 688 m 1156 336 q 1073 269 1156 269 q 990 336 990 269 l 990 1078 q 1073 1144 990 1144 q 1156 1078 1156 1144 l 1156 336 m 940 482 q 909 406 940 438 q 833 375 878 375 q 758 406 789 375 q 726 482 726 438 q 758 558 726 526 q 833 589 789 589 q 909 558 878 589 q 940 482 940 526 z "},"궐":{"ha":1321,"x_min":21,"x_max":1290,"o":"m 1254 194 q 1235 137 1254 163 q 1167 111 1217 111 l 607 111 q 596 107 597 111 q 594 97 594 103 l 594 54 q 596 44 594 49 q 607 40 597 40 l 1238 40 q 1290 -30 1290 40 q 1238 -100 1289 -100 l 517 -100 q 448 -74 467 -100 q 429 -17 429 -49 l 429 168 q 448 226 429 200 q 517 251 467 251 l 1076 251 q 1088 256 1086 251 q 1089 265 1089 260 l 1089 308 q 1088 318 1089 314 q 1076 322 1086 322 l 474 322 q 421 392 422 322 q 422 410 421 401 q 364 475 364 418 l 364 594 q 363 604 364 600 q 351 608 361 608 l 74 608 q 22 678 22 608 q 74 749 21 749 l 442 749 q 510 723 492 749 q 529 665 529 697 l 529 475 q 528 463 529 468 l 1167 463 q 1235 437 1217 463 q 1254 379 1254 411 l 1254 194 m 782 799 q 699 732 782 732 q 617 799 617 732 l 617 960 q 615 969 617 965 q 604 974 614 974 l 153 974 q 101 1044 101 974 q 153 1114 100 1114 l 694 1114 q 763 1088 744 1114 q 782 1031 782 1063 l 782 799 m 1156 551 q 1073 485 1156 485 q 990 551 990 485 l 990 1078 q 1073 1144 990 1144 q 1156 1078 1156 1144 l 1156 551 m 940 607 q 909 531 940 563 q 833 500 878 500 q 758 531 789 500 q 726 607 726 563 q 758 683 726 651 q 833 714 789 714 q 909 683 878 714 q 940 607 940 651 z "},"궜":{"ha":1321,"x_min":21,"x_max":1331,"o":"m 757 -83 q 716 -78 735 -85 q 686 -53 697 -71 l 521 233 l 354 -53 q 251 -75 325 -104 q 218 26 178 -46 l 432 400 q 392 461 392 414 l 392 581 q 390 590 392 586 q 379 594 389 594 l 74 594 q 22 665 22 594 q 74 735 21 735 l 469 735 q 538 709 519 735 q 557 651 557 683 l 557 461 l 557 454 q 565 451 561 453 q 599 417 585 442 l 754 144 l 910 417 q 943 451 924 442 q 988 461 963 461 q 1033 451 1014 461 q 1067 417 1053 442 l 1290 26 q 1257 -75 1331 -46 q 1154 -53 1183 -104 l 989 233 l 822 -53 q 794 -78 813 -71 q 757 -83 776 -85 m 782 785 q 699 718 782 718 q 617 785 617 718 l 617 960 q 615 969 617 965 q 604 974 614 974 l 153 974 q 101 1044 101 974 q 153 1114 100 1114 l 694 1114 q 763 1088 744 1114 q 782 1031 782 1063 l 782 785 m 1156 538 q 1073 471 1156 471 q 990 538 990 471 l 990 1078 q 1073 1144 990 1144 q 1156 1078 1156 1144 l 1156 538 m 940 607 q 909 531 940 563 q 833 500 878 500 q 758 531 789 500 q 726 607 726 563 q 758 683 726 651 q 833 714 789 714 q 909 683 878 714 q 940 607 940 651 z "},"궝":{"ha":1321,"x_min":21,"x_max":1222,"o":"m 940 607 q 909 531 940 563 q 833 500 878 500 q 758 531 789 500 q 726 607 726 563 q 758 683 726 651 q 833 714 789 714 q 909 683 878 714 q 940 607 940 651 m 1156 517 q 1073 450 1156 450 q 990 517 990 450 l 990 1078 q 1073 1144 990 1144 q 1156 1078 1156 1144 l 1156 517 m 557 419 q 474 353 557 353 q 392 419 392 353 l 392 581 q 390 590 392 586 q 379 594 389 594 l 74 594 q 22 665 22 594 q 74 735 21 735 l 469 735 q 538 709 519 735 q 557 651 557 683 l 557 419 m 782 785 q 699 718 782 718 q 617 785 617 718 l 617 960 q 615 969 617 965 q 604 974 614 974 l 153 974 q 101 1044 101 974 q 153 1114 100 1114 l 694 1114 q 763 1088 744 1114 q 782 1031 782 1063 l 782 785 m 1222 157 q 1126 -48 1222 38 q 893 -133 1031 -133 q 658 -49 754 -133 q 561 157 561 36 q 658 363 561 278 q 893 447 754 447 q 1126 362 1031 447 q 1222 157 1222 276 m 1057 157 q 1009 263 1057 219 q 893 306 961 306 q 777 263 825 306 q 729 157 729 219 q 777 51 729 94 q 893 8 825 8 q 1009 51 961 8 q 1057 157 1057 94 z "},"궤":{"ha":1354,"x_min":21,"x_max":1222,"o":"m 1222 31 q 1140 -36 1222 -36 q 1057 31 1057 -36 l 1057 1078 q 1140 1144 1057 1144 q 1222 1078 1222 1144 l 1222 31 m 975 31 q 892 -36 975 -36 q 810 31 810 -36 l 810 1078 q 892 1144 810 1144 q 975 1078 975 1144 l 975 31 m 492 58 q 409 -8 492 -8 q 326 58 326 -8 l 326 469 q 325 479 326 475 q 314 483 324 483 l 74 483 q 22 553 22 483 q 74 624 21 624 l 404 624 q 473 598 454 624 q 492 540 492 572 l 492 58 m 710 618 q 627 551 710 551 q 544 618 544 551 l 544 960 q 543 969 544 965 q 532 974 542 974 l 153 974 q 101 1044 101 974 q 153 1114 100 1114 l 622 1114 q 691 1088 672 1114 q 710 1031 710 1063 l 710 618 m 771 357 q 740 281 771 313 q 664 250 708 250 q 588 281 619 250 q 557 357 557 313 q 588 433 557 401 q 664 464 619 464 q 740 433 708 464 q 771 357 771 401 z "},"궷":{"ha":1389,"x_min":21,"x_max":1382,"o":"m 526 -64 q 410 -62 475 -114 q 400 39 346 -11 l 790 415 q 821 435 804 429 q 810 475 810 450 l 810 1078 q 892 1144 810 1144 q 975 1078 975 1144 l 975 475 q 938 415 975 431 l 939 415 l 1329 39 q 1319 -63 1382 -12 q 1203 -64 1256 -114 l 865 271 l 526 -64 m 1222 419 q 1140 353 1222 353 q 1057 419 1057 353 l 1057 1078 q 1140 1144 1057 1144 q 1222 1078 1222 1144 l 1222 419 m 710 771 q 627 704 710 704 q 544 771 544 704 l 544 960 q 543 969 544 965 q 532 974 542 974 l 153 974 q 101 1044 101 974 q 153 1114 100 1114 l 622 1114 q 691 1088 672 1114 q 710 1031 710 1063 l 710 771 m 513 392 q 430 325 513 325 q 347 392 347 325 l 347 581 q 346 590 347 586 q 335 594 344 594 l 74 594 q 22 665 22 594 q 74 735 21 735 l 425 735 q 494 709 475 735 q 513 651 513 683 l 513 392 m 779 565 q 750 493 779 522 q 678 464 721 464 q 606 493 635 464 q 576 565 576 522 q 606 638 576 608 q 678 667 635 667 q 750 638 721 667 q 779 565 779 608 z "},"귀":{"ha":1321,"x_min":21,"x_max":1156,"o":"m 1156 31 q 1073 -36 1156 -36 q 990 31 990 -36 l 990 1078 q 1073 1144 990 1144 q 1156 1078 1156 1144 l 1156 31 m 554 31 q 472 -36 554 -36 q 389 31 389 -36 l 389 456 q 388 465 389 461 q 376 469 386 469 l 74 469 q 22 540 22 469 q 74 610 21 610 l 467 610 q 535 584 517 610 q 554 526 554 558 l 554 31 m 807 604 q 724 538 807 538 q 642 604 642 538 l 642 960 q 640 969 642 965 q 629 974 639 974 l 153 974 q 101 1044 101 974 q 153 1114 100 1114 l 719 1114 q 788 1088 769 1114 q 807 1031 807 1063 l 807 604 z "},"귁":{"ha":1321,"x_min":21,"x_max":1256,"o":"m 1256 -17 q 1173 -83 1256 -83 q 1090 -17 1090 -83 l 1090 271 q 1089 281 1090 276 q 1078 285 1088 285 l 467 285 q 414 342 419 285 q 364 406 364 353 l 364 553 q 363 563 364 558 q 351 567 361 567 l 74 567 q 22 637 22 567 q 74 707 21 707 l 442 707 q 510 681 492 707 q 529 624 529 656 l 529 425 l 1168 425 q 1237 399 1218 425 q 1256 342 1256 374 l 1256 -17 m 807 646 q 724 579 807 579 q 642 646 642 579 l 642 960 q 640 969 642 965 q 629 974 639 974 l 153 974 q 101 1044 101 974 q 153 1114 100 1114 l 719 1114 q 788 1088 769 1114 q 807 1031 807 1063 l 807 646 m 1156 531 q 1073 464 1156 464 q 990 531 990 464 l 990 1078 q 1073 1144 990 1144 q 1156 1078 1156 1144 l 1156 531 z "},"귄":{"ha":1321,"x_min":21,"x_max":1297,"o":"m 585 -68 q 516 -42 535 -68 q 497 15 497 -17 l 497 293 q 446 283 478 283 q 364 350 364 283 l 364 525 q 363 535 364 531 q 351 539 361 539 l 74 539 q 22 609 22 539 q 74 679 21 679 l 442 679 q 510 653 492 679 q 529 596 529 628 l 529 374 q 579 383 549 383 q 663 317 663 383 l 663 86 q 664 76 663 81 q 675 72 665 72 l 1244 72 q 1297 2 1296 72 q 1244 -68 1297 -68 l 585 -68 m 807 646 q 724 579 807 579 q 642 646 642 579 l 642 960 q 640 969 642 965 q 629 974 639 974 l 153 974 q 101 1044 101 974 q 153 1114 100 1114 l 719 1114 q 788 1088 769 1114 q 807 1031 807 1063 l 807 646 m 1156 336 q 1073 269 1156 269 q 990 336 990 269 l 990 1078 q 1073 1144 990 1144 q 1156 1078 1156 1144 l 1156 336 z "},"귈":{"ha":1321,"x_min":21,"x_max":1292,"o":"m 1256 208 q 1237 151 1256 176 q 1168 125 1218 125 l 608 125 q 597 121 599 125 q 596 111 596 117 l 596 54 q 597 44 596 49 q 608 40 599 40 l 1239 40 q 1291 -30 1292 40 q 1239 -100 1290 -100 l 518 -100 q 449 -74 468 -100 q 431 -17 431 -49 l 431 182 q 449 240 431 214 q 518 265 468 265 l 1078 265 q 1089 269 1088 265 q 1090 279 1090 274 l 1090 336 q 1089 346 1090 342 q 1078 350 1088 350 l 482 350 q 432 394 440 350 q 364 461 364 400 l 364 581 q 363 590 364 586 q 351 594 361 594 l 74 594 q 22 665 22 594 q 74 735 21 735 l 442 735 q 510 709 492 735 q 529 651 529 683 l 529 490 l 1168 490 q 1237 465 1218 490 q 1256 407 1256 439 l 1256 208 m 807 660 q 724 593 807 593 q 642 660 642 593 l 642 960 q 640 969 642 965 q 629 974 639 974 l 153 974 q 101 1044 101 974 q 153 1114 100 1114 l 719 1114 q 788 1088 769 1114 q 807 1031 807 1063 l 807 660 m 1156 586 q 1073 519 1156 519 q 990 586 990 519 l 990 1078 q 1073 1144 990 1144 q 1156 1078 1156 1144 l 1156 586 z "},"귐":{"ha":1321,"x_min":21,"x_max":1256,"o":"m 1256 1 q 1237 -56 1256 -31 q 1168 -82 1218 -82 l 518 -82 q 449 -56 468 -82 q 431 1 431 -31 l 431 325 q 364 392 364 332 l 364 553 q 363 563 364 558 q 351 567 361 567 l 74 567 q 22 637 22 567 q 74 707 21 707 l 442 707 q 510 681 492 707 q 529 624 529 656 l 529 425 l 1168 425 q 1237 399 1218 425 q 1256 342 1256 374 l 1256 1 m 807 646 q 724 579 807 579 q 642 646 642 579 l 642 960 q 640 969 642 965 q 629 974 639 974 l 153 974 q 101 1044 101 974 q 153 1114 100 1114 l 719 1114 q 788 1088 769 1114 q 807 1031 807 1063 l 807 646 m 1090 271 q 1089 281 1090 276 q 1078 285 1088 285 l 608 285 q 597 281 599 285 q 596 271 596 276 l 596 72 q 597 63 596 67 q 608 58 599 58 l 1078 58 q 1089 63 1088 58 q 1090 72 1090 67 l 1090 271 m 1156 531 q 1073 464 1156 464 q 990 531 990 464 l 990 1078 q 1073 1144 990 1144 q 1156 1078 1156 1144 l 1156 531 z "},"귑":{"ha":1321,"x_min":21,"x_max":1256,"o":"m 1256 -1 q 1236 -59 1254 -33 q 1168 -85 1218 -85 l 518 -85 q 449 -59 468 -85 q 431 -1 431 -33 l 431 381 q 364 447 364 388 l 364 567 q 363 576 364 572 q 351 581 361 581 l 74 581 q 22 651 22 581 q 74 721 21 721 l 442 721 q 510 695 492 721 q 529 638 529 669 l 529 451 q 596 386 596 446 l 596 69 q 597 60 596 64 q 608 56 599 56 l 1078 56 q 1089 60 1088 56 q 1090 69 1090 64 l 1090 172 l 669 172 q 617 242 618 172 q 669 313 617 313 l 1090 313 l 1090 386 q 1173 453 1090 453 q 1256 386 1256 453 l 1256 -1 m 807 660 q 724 593 807 593 q 642 660 642 593 l 642 960 q 640 969 642 965 q 629 974 639 974 l 153 974 q 101 1044 101 974 q 153 1114 100 1114 l 719 1114 q 788 1088 769 1114 q 807 1031 807 1063 l 807 660 m 1156 514 q 1073 447 1156 447 q 990 514 990 447 l 990 1078 q 1073 1144 990 1144 q 1156 1078 1156 1144 l 1156 514 z "},"귓":{"ha":1321,"x_min":21,"x_max":1326,"o":"m 1156 406 q 1073 339 1156 339 q 990 406 990 339 l 990 1078 q 1073 1144 990 1144 q 1156 1078 1156 1144 l 1156 406 m 529 364 q 447 297 529 297 q 364 364 364 297 l 364 553 q 363 563 364 558 q 351 567 361 567 l 74 567 q 22 637 22 567 q 74 707 21 707 l 442 707 q 510 681 492 707 q 529 624 529 656 l 529 364 m 807 646 q 724 579 807 579 q 642 646 642 579 l 642 960 q 640 969 642 965 q 629 974 639 974 l 153 974 q 101 1044 101 974 q 153 1114 100 1114 l 719 1114 q 788 1088 769 1114 q 807 1031 807 1063 l 807 646 m 471 -61 q 355 -60 419 -111 q 344 42 290 -8 l 735 418 q 769 439 750 433 q 808 444 789 444 q 848 439 828 444 q 883 418 868 433 l 1274 42 q 1263 -60 1326 -10 q 1147 -61 1200 -111 l 810 274 l 471 -61 z "},"규":{"ha":1090,"x_min":21,"x_max":992,"o":"m 510 31 q 427 -36 510 -36 q 344 31 344 -36 l 344 428 q 343 438 344 433 q 332 442 342 442 l 74 442 q 22 512 22 442 q 74 582 21 582 l 422 582 q 491 556 472 582 q 510 499 510 531 l 510 31 m 856 31 q 773 -36 856 -36 q 690 31 690 -36 l 690 508 q 773 575 690 575 q 856 508 856 575 l 856 31 m 992 632 q 909 565 992 565 q 826 632 826 565 l 826 960 q 825 969 826 965 q 814 974 824 974 l 217 974 q 165 1044 165 974 q 217 1114 164 1114 l 904 1114 q 973 1088 954 1114 q 992 1031 992 1063 l 992 632 z "},"균":{"ha":1189,"x_min":21,"x_max":1093,"o":"m 621 308 q 538 242 621 242 q 456 308 456 242 l 456 497 q 454 507 456 503 q 443 511 453 511 l 74 511 q 22 581 22 511 q 74 651 21 651 l 533 651 q 602 626 583 651 q 621 568 621 600 l 621 308 m 907 308 q 824 242 907 242 q 742 308 742 242 l 742 585 q 824 651 742 651 q 907 585 907 651 l 907 308 m 992 715 q 909 649 992 649 q 826 715 826 649 l 826 960 q 825 969 826 965 q 814 974 824 974 l 217 974 q 165 1044 165 974 q 217 1114 164 1114 l 904 1114 q 973 1088 954 1114 q 992 1031 992 1063 l 992 715 m 353 -68 q 284 -42 303 -68 q 265 15 265 -17 l 265 303 q 348 369 265 369 q 431 303 431 369 l 431 86 q 432 76 431 81 q 443 72 433 72 l 1040 72 q 1092 2 1092 72 q 1040 -68 1093 -68 l 353 -68 z "},"귤":{"ha":1189,"x_min":21,"x_max":1126,"o":"m 1090 201 q 1072 144 1090 169 q 1003 118 1053 118 l 443 118 q 432 114 433 118 q 431 104 431 110 l 431 54 q 432 44 431 49 q 443 40 433 40 l 1074 40 q 1126 -30 1126 40 q 1074 -100 1125 -100 l 353 -100 q 284 -74 303 -100 q 265 -17 265 -49 l 265 175 q 284 233 265 207 q 353 258 303 258 l 913 258 q 924 263 922 258 q 925 272 925 267 l 925 322 q 924 332 925 328 q 913 336 922 336 l 317 336 q 265 406 265 336 q 317 476 264 476 l 403 476 l 403 567 q 401 576 403 572 q 390 581 400 581 l 74 581 q 22 651 22 581 q 74 721 21 721 l 481 721 q 549 695 531 721 q 568 638 568 669 l 568 476 l 710 476 l 710 654 q 792 721 710 721 q 875 654 875 721 l 875 476 l 1003 476 q 1072 451 1053 476 q 1090 393 1090 425 l 1090 201 m 992 771 q 909 704 992 704 q 826 771 826 704 l 826 960 q 825 969 826 965 q 814 974 824 974 l 217 974 q 165 1044 165 974 q 217 1114 164 1114 l 904 1114 q 973 1088 954 1114 q 992 1031 992 1063 l 992 771 z "},"그":{"ha":1090,"x_min":21,"x_max":1075,"o":"m 958 368 q 876 301 958 301 q 793 368 793 301 l 793 960 q 792 969 793 965 q 781 974 790 974 l 178 974 q 126 1044 126 974 q 178 1114 125 1114 l 871 1114 q 940 1088 921 1114 q 958 1031 958 1063 l 958 368 m 74 97 q 22 167 22 97 q 74 238 21 238 l 1021 238 q 1074 167 1075 238 q 1021 97 1074 97 l 74 97 z "},"극":{"ha":1189,"x_min":21,"x_max":1171,"o":"m 74 535 q 22 605 22 535 q 74 675 21 675 l 826 675 l 826 960 q 825 969 826 965 q 814 974 824 974 l 217 974 q 165 1044 165 974 q 217 1114 164 1114 l 904 1114 q 973 1088 954 1114 q 992 1031 992 1063 l 992 675 l 1117 675 q 1170 605 1171 675 q 1117 535 1169 535 l 74 535 m 1092 -17 q 1009 -83 1092 -83 q 926 -17 926 -83 l 926 257 q 925 267 926 263 q 914 271 924 271 l 313 271 q 260 341 261 271 q 313 411 260 411 l 1004 411 q 1073 385 1054 411 q 1092 328 1092 360 l 1092 -17 z "},"근":{"ha":1189,"x_min":21,"x_max":1171,"o":"m 74 488 q 22 558 22 488 q 74 628 21 628 l 826 628 l 826 960 q 825 969 826 965 q 814 974 824 974 l 217 974 q 165 1044 165 974 q 217 1114 164 1114 l 904 1114 q 973 1088 954 1114 q 992 1031 992 1063 l 992 628 l 1117 628 q 1170 558 1171 628 q 1117 488 1169 488 l 74 488 m 353 -68 q 284 -42 303 -68 q 265 15 265 -17 l 265 344 q 348 411 265 411 q 431 344 431 411 l 431 86 q 432 76 431 81 q 443 72 433 72 l 1054 72 q 1106 2 1106 72 q 1054 -68 1107 -68 l 353 -68 z "},"귿":{"ha":1189,"x_min":21,"x_max":1171,"o":"m 74 543 q 22 613 22 543 q 74 683 21 683 l 826 683 l 826 960 q 825 969 826 965 q 814 974 824 974 l 217 974 q 165 1044 165 974 q 217 1114 164 1114 l 904 1114 q 973 1088 954 1114 q 992 1031 992 1063 l 992 683 l 1117 683 q 1170 613 1171 683 q 1117 543 1169 543 l 74 543 m 353 -82 q 284 -56 303 -82 q 265 1 265 -31 l 265 328 q 284 385 265 360 q 353 411 303 411 l 1040 411 q 1094 341 1093 411 q 1040 271 1096 271 l 443 271 q 432 267 433 271 q 431 257 431 263 l 431 72 q 432 63 431 67 q 443 58 433 58 l 1072 58 q 1126 -12 1125 58 q 1072 -82 1128 -82 l 353 -82 z "},"글":{"ha":1189,"x_min":21,"x_max":1171,"o":"m 1090 201 q 1072 144 1090 169 q 1003 118 1053 118 l 443 118 q 432 114 433 118 q 431 104 431 110 l 431 54 q 432 44 431 49 q 443 40 433 40 l 1074 40 q 1126 -30 1126 40 q 1074 -100 1125 -100 l 353 -100 q 284 -74 303 -100 q 265 -17 265 -49 l 265 175 q 284 233 265 207 q 353 258 303 258 l 913 258 q 924 263 922 258 q 925 272 925 267 l 925 322 q 924 332 925 328 q 913 336 922 336 l 317 336 q 265 406 265 336 q 317 476 264 476 l 1003 476 q 1072 451 1053 476 q 1090 393 1090 425 l 1090 201 m 74 556 q 22 626 22 556 q 74 696 21 696 l 826 696 l 826 960 q 825 969 826 965 q 814 974 824 974 l 215 974 q 163 1044 164 974 q 215 1114 163 1114 l 904 1114 q 973 1088 954 1114 q 992 1031 992 1063 l 992 696 l 1117 696 q 1170 626 1171 696 q 1117 556 1169 556 l 74 556 z "},"긁":{"ha":1189,"x_min":21,"x_max":1171,"o":"m 74 556 q 22 626 22 556 q 74 696 21 696 l 826 696 l 826 960 q 825 969 826 965 q 814 974 824 974 l 215 974 q 163 1044 164 974 q 215 1114 163 1114 l 904 1114 q 973 1088 954 1114 q 992 1031 992 1063 l 992 696 l 1117 696 q 1170 626 1171 696 q 1117 556 1169 556 l 74 556 m 632 197 q 613 140 632 165 q 544 114 594 114 l 318 114 q 307 110 308 114 q 306 100 306 106 l 306 54 q 307 44 306 49 q 318 40 308 40 l 615 40 q 667 -30 668 40 q 615 -100 667 -100 l 228 -100 q 159 -74 178 -100 q 140 -17 140 -49 l 140 171 q 159 228 140 203 q 228 254 178 254 l 454 254 q 465 258 464 254 q 467 268 467 263 l 467 314 q 465 324 467 319 q 454 328 464 328 l 185 328 q 133 398 133 328 q 185 468 132 468 l 544 468 q 613 442 594 468 q 632 385 632 417 l 632 197 m 1124 -39 q 1041 -106 1124 -106 q 958 -39 958 -106 l 958 314 q 957 324 958 319 q 946 328 956 328 l 701 328 q 649 398 650 328 q 701 468 649 468 l 1036 468 q 1105 442 1086 468 q 1124 385 1124 417 l 1124 -39 z "},"금":{"ha":1189,"x_min":21,"x_max":1171,"o":"m 1090 1 q 1072 -56 1090 -31 q 1003 -82 1053 -82 l 353 -82 q 284 -56 303 -82 q 265 1 265 -31 l 265 314 q 284 372 265 346 q 353 397 303 397 l 1003 397 q 1072 372 1053 397 q 1090 314 1090 346 l 1090 1 m 74 529 q 22 599 22 529 q 74 669 21 669 l 826 669 l 826 960 q 825 969 826 965 q 814 974 824 974 l 217 974 q 165 1044 165 974 q 217 1114 164 1114 l 904 1114 q 973 1088 954 1114 q 992 1031 992 1063 l 992 669 l 1117 669 q 1170 599 1171 669 q 1117 529 1169 529 l 74 529 m 925 243 q 924 253 925 249 q 913 257 922 257 l 443 257 q 432 253 433 257 q 431 243 431 249 l 431 72 q 432 63 431 67 q 443 58 433 58 l 913 58 q 924 63 922 58 q 925 72 925 67 l 925 243 z "},"급":{"ha":1189,"x_min":21,"x_max":1171,"o":"m 74 529 q 22 599 22 529 q 74 669 21 669 l 826 669 l 826 960 q 825 969 826 965 q 814 974 824 974 l 217 974 q 165 1044 165 974 q 217 1114 164 1114 l 904 1114 q 973 1088 954 1114 q 992 1031 992 1063 l 992 669 l 1117 669 q 1170 599 1171 669 q 1117 529 1169 529 l 74 529 m 1090 -1 q 1071 -59 1089 -33 q 1003 -85 1053 -85 l 353 -85 q 284 -59 303 -85 q 265 -1 265 -33 l 265 410 q 348 476 265 476 q 431 410 431 476 l 431 69 q 432 60 431 64 q 443 56 433 56 l 913 56 q 924 60 922 56 q 925 69 925 64 l 925 182 l 504 182 q 452 252 453 182 q 504 322 451 322 l 925 322 l 925 410 q 1008 476 925 476 q 1090 410 1090 476 l 1090 -1 z "},"긋":{"ha":1189,"x_min":21,"x_max":1193,"o":"m 74 506 q 22 576 22 506 q 74 646 21 646 l 826 646 l 826 960 q 825 969 826 965 q 814 974 824 974 l 217 974 q 165 1044 165 974 q 217 1114 164 1114 l 904 1114 q 973 1088 954 1114 q 992 1031 992 1063 l 992 646 l 1117 646 q 1170 576 1171 646 q 1117 506 1169 506 l 74 506 m 338 -61 q 220 -61 283 -114 q 211 42 157 -8 l 601 418 q 636 439 617 433 q 675 444 656 444 q 715 439 694 444 q 750 418 735 433 l 1140 42 q 1130 -60 1193 -10 q 1014 -61 1067 -111 l 676 274 l 338 -61 z "},"긍":{"ha":1189,"x_min":21,"x_max":1171,"o":"m 74 529 q 22 599 22 529 q 74 669 21 669 l 826 669 l 826 960 q 825 969 826 965 q 814 974 824 974 l 217 974 q 165 1044 165 974 q 217 1114 164 1114 l 904 1114 q 973 1088 954 1114 q 992 1031 992 1063 l 992 669 l 1117 669 q 1170 599 1171 669 q 1117 529 1169 529 l 74 529 m 1008 157 q 913 -48 1008 38 q 679 -133 817 -133 q 444 -49 540 -133 q 347 157 347 36 q 444 363 347 278 q 679 447 540 447 q 913 362 817 447 q 1008 157 1008 276 m 843 157 q 795 263 843 219 q 679 306 747 306 q 563 263 611 306 q 515 157 515 219 q 563 51 515 94 q 679 8 611 8 q 795 51 747 8 q 843 157 843 94 z "},"긔":{"ha":1321,"x_min":21,"x_max":1156,"o":"m 1156 31 q 1073 -36 1156 -36 q 990 31 990 -36 l 990 1078 q 1073 1144 990 1144 q 1156 1078 1156 1144 l 1156 31 m 799 456 q 716 389 799 389 q 633 456 633 389 l 633 960 q 632 969 633 965 q 621 974 631 974 l 131 974 q 78 1044 79 974 q 131 1114 78 1114 l 711 1114 q 780 1088 761 1114 q 799 1031 799 1063 l 799 456 m 74 132 q 22 202 22 132 q 74 272 21 272 l 888 272 q 941 202 942 272 q 888 132 940 132 l 74 132 z "},"기":{"ha":1289,"x_min":17,"x_max":1124,"o":"m 1124 31 q 1041 -36 1124 -36 q 958 31 958 -36 l 958 1078 q 1041 1144 958 1144 q 1124 1078 1124 1144 l 1124 31 m 153 101 q 45 136 74 72 q 72 224 17 200 q 404 441 225 289 q 583 790 583 593 l 583 960 q 582 969 583 965 q 571 974 581 974 l 121 974 q 69 1044 69 974 q 121 1114 68 1114 l 661 1114 q 730 1088 711 1114 q 749 1031 749 1063 l 749 747 q 598 405 749 601 q 153 101 447 208 z "},"긱":{"ha":1321,"x_min":17,"x_max":1256,"o":"m 1256 -17 q 1173 -83 1256 -83 q 1090 -17 1090 -83 l 1090 271 q 1089 281 1090 276 q 1078 285 1088 285 l 467 285 q 415 355 415 285 q 467 425 414 425 l 1168 425 q 1237 399 1218 425 q 1256 342 1256 374 l 1256 -17 m 1156 521 q 1073 454 1156 454 q 990 521 990 454 l 990 1078 q 1073 1144 990 1144 q 1156 1078 1156 1144 l 1156 521 m 749 853 q 603 563 749 732 q 153 290 458 393 q 45 328 74 264 q 72 413 17 393 q 406 595 228 468 q 583 868 583 722 l 583 960 q 582 969 583 965 q 571 974 581 974 l 121 974 q 69 1044 69 974 q 121 1114 68 1114 l 661 1114 q 730 1088 711 1114 q 749 1031 749 1063 l 749 853 z "},"긴":{"ha":1321,"x_min":17,"x_max":1258,"o":"m 518 -68 q 449 -42 468 -68 q 431 15 431 -17 l 431 358 q 513 425 431 425 q 596 358 596 425 l 596 86 q 597 76 596 81 q 608 72 599 72 l 1206 72 q 1258 2 1257 72 q 1206 -68 1258 -68 l 518 -68 m 749 853 q 603 563 749 732 q 153 290 458 393 q 45 328 74 264 q 72 413 17 393 q 406 595 228 468 q 583 868 583 722 l 583 960 q 582 969 583 965 q 571 974 581 974 l 121 974 q 69 1044 69 974 q 121 1114 68 1114 l 661 1114 q 730 1088 711 1114 q 749 1031 749 1063 l 749 853 m 1156 358 q 1073 292 1156 292 q 990 358 990 292 l 990 1078 q 1073 1144 990 1144 q 1156 1078 1156 1144 l 1156 358 z "},"긷":{"ha":1321,"x_min":17,"x_max":1293,"o":"m 518 -82 q 449 -56 468 -82 q 431 1 431 -31 l 431 342 q 449 399 431 374 q 518 425 468 425 l 1206 425 q 1260 355 1258 425 q 1206 285 1261 285 l 608 285 q 597 281 599 285 q 596 271 596 276 l 596 72 q 597 63 596 67 q 608 58 599 58 l 1238 58 q 1292 -12 1290 58 q 1238 -82 1293 -82 l 518 -82 m 749 853 q 603 563 749 732 q 153 290 458 393 q 45 328 74 264 q 72 413 17 393 q 406 595 228 468 q 583 868 583 722 l 583 960 q 582 969 583 965 q 571 974 581 974 l 121 974 q 69 1044 69 974 q 121 1114 68 1114 l 661 1114 q 730 1088 711 1114 q 749 1031 749 1063 l 749 853 m 1156 521 q 1073 454 1156 454 q 990 521 990 454 l 990 1078 q 1073 1144 990 1144 q 1156 1078 1156 1144 l 1156 521 z "},"길":{"ha":1321,"x_min":17,"x_max":1292,"o":"m 749 853 q 603 563 749 732 q 531 490 571 525 l 1168 490 q 1237 465 1218 490 q 1256 407 1256 439 l 1256 208 q 1237 151 1256 176 q 1168 125 1218 125 l 608 125 q 597 121 599 125 q 596 111 596 117 l 596 54 q 597 44 596 49 q 608 40 599 40 l 1239 40 q 1291 -30 1292 40 q 1239 -100 1290 -100 l 518 -100 q 449 -74 468 -100 q 431 -17 431 -49 l 431 182 q 449 240 431 214 q 518 265 468 265 l 1078 265 q 1089 269 1088 265 q 1090 279 1090 274 l 1090 336 q 1089 346 1090 342 q 1078 350 1088 350 l 482 350 q 429 417 432 350 q 153 290 314 344 q 45 328 74 264 q 72 413 17 393 q 406 595 228 468 q 583 868 583 722 l 583 960 q 582 969 583 965 q 571 974 581 974 l 121 974 q 69 1044 69 974 q 121 1114 68 1114 l 661 1114 q 730 1088 711 1114 q 749 1031 749 1063 l 749 853 m 1156 581 q 1073 514 1156 514 q 990 581 990 514 l 990 1079 q 1073 1146 990 1146 q 1156 1079 1156 1146 l 1156 581 z "},"긺":{"ha":1321,"x_min":17,"x_max":1256,"o":"m 708 208 q 690 151 708 176 q 621 125 671 125 l 394 125 q 383 121 385 125 q 382 111 382 117 l 382 54 q 383 44 382 49 q 394 40 385 40 l 692 40 q 744 -30 744 40 q 692 -100 743 -100 l 304 -100 q 235 -74 254 -100 q 217 -17 217 -49 l 217 182 q 235 240 217 214 q 304 265 254 265 l 531 265 q 542 269 540 265 q 543 279 543 274 l 543 336 q 542 346 543 342 q 531 350 540 350 l 261 350 q 211 393 219 350 q 153 374 182 383 q 45 412 74 347 q 72 496 17 476 q 406 658 228 551 q 583 910 583 764 l 583 960 q 582 969 583 965 q 571 974 581 974 l 121 974 q 69 1044 69 974 q 121 1114 68 1114 l 661 1114 q 730 1088 711 1114 q 749 1031 749 1063 l 749 894 q 603 625 749 774 q 422 490 532 551 l 621 490 q 690 465 671 490 q 708 407 708 439 l 708 208 m 1256 -17 q 1237 -74 1256 -49 q 1168 -100 1218 -100 l 851 -100 q 783 -74 801 -100 q 764 -17 764 -49 l 764 407 q 783 465 764 439 q 851 490 801 490 l 1168 490 q 1237 465 1218 490 q 1256 407 1256 439 l 1256 -17 m 1156 581 q 1073 514 1156 514 q 990 581 990 514 l 990 1079 q 1073 1146 990 1146 q 1156 1079 1156 1146 l 1156 581 m 1090 336 q 1089 346 1090 342 q 1078 350 1088 350 l 942 350 q 931 346 932 350 q 929 336 929 342 l 929 54 q 931 44 929 49 q 942 40 932 40 l 1078 40 q 1089 44 1088 40 q 1090 54 1090 49 l 1090 336 z "},"김":{"ha":1321,"x_min":17,"x_max":1256,"o":"m 1156 521 q 1073 454 1156 454 q 990 521 990 454 l 990 1078 q 1073 1144 990 1144 q 1156 1078 1156 1144 l 1156 521 m 1256 1 q 1237 -56 1256 -31 q 1168 -82 1218 -82 l 518 -82 q 449 -56 468 -82 q 431 1 431 -31 l 431 342 q 449 399 431 374 q 518 425 468 425 l 1168 425 q 1237 399 1218 425 q 1256 342 1256 374 l 1256 1 m 1090 271 q 1089 281 1090 276 q 1078 285 1088 285 l 608 285 q 597 281 599 285 q 596 271 596 276 l 596 72 q 597 63 596 67 q 608 58 599 58 l 1078 58 q 1089 63 1088 58 q 1090 72 1090 67 l 1090 271 m 749 853 q 603 563 749 732 q 153 290 458 393 q 45 328 74 264 q 72 413 17 393 q 406 595 228 468 q 583 868 583 722 l 583 960 q 582 969 583 965 q 571 974 581 974 l 121 974 q 69 1044 69 974 q 121 1114 68 1114 l 661 1114 q 730 1088 711 1114 q 749 1031 749 1063 l 749 853 z "},"깁":{"ha":1321,"x_min":17,"x_max":1256,"o":"m 1256 -1 q 1236 -59 1254 -33 q 1168 -85 1218 -85 l 518 -85 q 449 -59 468 -85 q 431 -1 431 -33 l 431 417 q 153 290 314 344 q 45 328 74 264 q 72 413 17 393 q 406 595 228 468 q 583 868 583 722 l 583 960 q 582 969 583 965 q 571 974 581 974 l 121 974 q 69 1044 69 974 q 121 1114 68 1114 l 661 1114 q 730 1088 711 1114 q 749 1031 749 1063 l 749 853 q 603 563 749 732 q 522 483 568 521 q 596 417 596 479 l 596 69 q 597 60 596 64 q 608 56 599 56 l 1078 56 q 1089 60 1088 56 q 1090 69 1090 64 l 1090 189 l 669 189 q 617 259 618 189 q 669 329 617 329 l 1090 329 l 1090 417 q 1173 483 1090 483 q 1256 417 1256 483 l 1256 -1 m 1156 554 q 1073 488 1156 488 q 990 554 990 488 l 990 1078 q 1073 1144 990 1144 q 1156 1078 1156 1144 l 1156 554 z "},"깃":{"ha":1321,"x_min":17,"x_max":1354,"o":"m 1156 458 q 1073 392 1156 392 q 990 458 990 392 l 990 1078 q 1073 1144 990 1144 q 1156 1078 1156 1144 l 1156 458 m 749 853 q 603 563 749 732 q 153 290 458 393 q 45 328 74 264 q 72 413 17 393 q 406 595 228 468 q 583 868 583 722 l 583 960 q 582 969 583 965 q 571 974 581 974 l 121 974 q 69 1044 69 974 q 121 1114 68 1114 l 661 1114 q 730 1088 711 1114 q 749 1031 749 1063 l 749 853 m 499 -64 q 383 -62 447 -114 q 372 39 318 -11 l 763 415 q 797 436 778 431 q 836 442 817 442 q 876 436 856 442 q 911 415 896 431 l 1301 39 q 1291 -63 1354 -12 q 1175 -64 1228 -114 l 838 271 l 499 -64 z "},"깅":{"ha":1321,"x_min":17,"x_max":1224,"o":"m 1156 533 q 1073 467 1156 467 q 990 533 990 467 l 990 1078 q 1073 1144 990 1144 q 1156 1078 1156 1144 l 1156 533 m 749 853 q 603 563 749 732 q 153 290 458 393 q 45 328 74 264 q 72 413 17 393 q 406 595 228 468 q 583 868 583 722 l 583 960 q 582 969 583 965 q 571 974 581 974 l 121 974 q 69 1044 69 974 q 121 1114 68 1114 l 661 1114 q 730 1088 711 1114 q 749 1031 749 1063 l 749 853 m 1224 157 q 1128 -48 1224 38 q 894 -133 1032 -133 q 659 -49 756 -133 q 563 157 563 36 q 659 363 563 278 q 894 447 756 447 q 1128 362 1032 447 q 1224 157 1224 276 m 1058 157 q 1010 263 1058 219 q 894 306 963 306 q 778 263 826 306 q 731 157 731 219 q 778 51 731 94 q 894 8 826 8 q 1010 51 963 8 q 1058 157 1058 94 z "},"깆":{"ha":1321,"x_min":17,"x_max":1332,"o":"m 447 304 q 394 374 396 304 q 396 396 394 386 q 153 290 290 336 q 45 328 74 264 q 72 413 17 393 q 406 595 228 468 q 583 868 583 722 l 583 960 q 582 969 583 965 q 571 974 581 974 l 121 974 q 69 1044 69 974 q 121 1114 68 1114 l 661 1114 q 730 1088 711 1114 q 749 1031 749 1063 l 749 853 q 603 563 749 732 q 471 444 549 499 l 807 444 q 836 447 821 450 q 861 444 849 449 l 1231 444 q 1284 374 1285 444 q 1231 304 1283 304 l 1015 304 l 1278 42 q 1268 -60 1332 -8 q 1151 -61 1204 -111 l 833 261 l 517 -61 q 401 -60 465 -111 q 390 42 336 -8 l 653 304 l 447 304 m 1156 540 q 1073 474 1156 474 q 990 540 990 474 l 990 1078 q 1073 1144 990 1144 q 1156 1078 1156 1144 l 1156 540 z "},"깊":{"ha":1321,"x_min":17,"x_max":1336,"o":"m 443 318 q 390 388 392 318 l 390 393 q 153 290 288 335 q 45 328 74 264 q 72 413 17 393 q 406 595 228 468 q 583 868 583 722 l 583 960 q 582 969 583 965 q 571 974 581 974 l 121 974 q 69 1044 69 974 q 121 1114 68 1114 l 661 1114 q 730 1088 711 1114 q 749 1031 749 1063 l 749 853 q 603 563 749 732 q 490 458 556 507 l 1240 458 q 1294 388 1294 458 q 1240 318 1293 318 l 443 318 m 401 -85 q 349 -15 350 -85 q 401 56 349 56 l 563 56 l 563 239 q 645 306 563 306 q 728 239 728 306 l 728 56 l 958 56 l 958 239 q 1041 306 958 306 q 1124 239 1124 306 l 1124 56 l 1282 56 q 1335 -15 1336 56 q 1282 -85 1335 -85 l 401 -85 m 1156 554 q 1073 488 1156 488 q 990 554 990 488 l 990 1078 q 1073 1144 990 1144 q 1156 1078 1156 1144 l 1156 554 z "},"까":{"ha":1354,"x_min":-6,"x_max":1328,"o":"m 776 163 q 694 96 776 96 q 611 163 611 96 l 611 960 q 610 969 611 965 q 599 974 608 974 l 482 974 q 450 983 463 974 l 450 775 q 396 440 450 619 q 142 111 342 260 q 35 121 76 64 q 40 217 -6 178 q 223 456 161 318 q 285 790 285 593 l 285 960 q 283 969 285 965 q 272 974 282 974 l 107 974 q 55 1044 56 974 q 107 1114 54 1114 l 363 1114 q 431 1088 413 1114 q 435 1082 433 1085 q 482 1114 446 1114 l 689 1114 q 758 1088 739 1114 q 776 1031 776 1063 l 776 163 m 1068 31 q 985 -36 1068 -36 q 903 31 903 -36 l 903 1078 q 985 1144 903 1144 q 1068 1078 1068 1144 l 1068 31 m 1328 649 q 1297 573 1328 604 q 1221 542 1265 542 q 1145 573 1176 542 q 1114 649 1114 604 q 1145 724 1114 693 q 1221 756 1176 756 q 1297 724 1265 756 q 1328 649 1328 693 z "},"깍":{"ha":1389,"x_min":-4,"x_max":1328,"o":"m 776 521 q 694 454 776 454 q 611 521 611 454 l 611 960 q 610 969 611 965 q 599 974 608 974 l 482 974 q 450 983 463 974 l 450 817 q 392 572 450 713 q 142 292 333 431 q 36 301 76 244 q 40 397 -4 358 q 221 596 157 499 q 285 832 285 693 l 285 960 q 283 969 285 965 q 272 974 282 974 l 107 974 q 55 1044 56 974 q 107 1114 54 1114 l 363 1114 q 431 1088 413 1114 q 435 1082 433 1085 q 482 1114 446 1114 l 689 1114 q 758 1088 739 1114 q 776 1031 776 1063 l 776 521 m 1321 -17 q 1238 -83 1321 -83 q 1156 -17 1156 -83 l 1156 271 q 1154 281 1156 276 q 1143 285 1153 285 l 532 285 q 480 355 481 285 q 532 425 479 425 l 1233 425 q 1302 399 1283 425 q 1321 342 1321 374 l 1321 -17 m 1068 521 q 985 454 1068 454 q 903 521 903 454 l 903 1078 q 985 1144 903 1144 q 1068 1078 1068 1144 l 1068 521 m 1328 818 q 1297 742 1328 774 q 1221 711 1265 711 q 1145 742 1176 711 q 1114 818 1114 774 q 1145 894 1114 863 q 1221 925 1176 925 q 1297 894 1265 925 q 1328 818 1328 863 z "},"깎":{"ha":1389,"x_min":-4,"x_max":1328,"o":"m 776 521 q 694 454 776 454 q 611 521 611 454 l 611 960 q 610 969 611 965 q 599 974 608 974 l 482 974 q 450 983 463 974 l 450 817 q 392 572 450 713 q 142 292 333 431 q 36 301 76 244 q 40 397 -4 358 q 221 596 157 499 q 285 832 285 693 l 285 960 q 283 969 285 965 q 272 974 282 974 l 107 974 q 55 1044 56 974 q 107 1114 54 1114 l 363 1114 q 431 1088 413 1114 q 435 1082 433 1085 q 482 1114 446 1114 l 689 1114 q 758 1088 739 1114 q 776 1031 776 1063 l 776 521 m 1068 521 q 985 454 1068 454 q 903 521 903 454 l 903 1078 q 985 1144 903 1144 q 1068 1078 1068 1144 l 1068 521 m 1328 832 q 1297 756 1328 788 q 1221 725 1265 725 q 1145 756 1176 725 q 1114 832 1114 788 q 1145 908 1114 876 q 1221 939 1176 939 q 1297 908 1265 939 q 1328 832 1328 876 m 1325 -17 q 1242 -83 1325 -83 q 1160 -17 1160 -83 l 1160 268 q 1158 278 1160 274 q 1147 282 1157 282 l 894 282 q 842 352 843 282 q 894 422 842 422 l 1238 422 q 1306 397 1288 422 q 1325 339 1325 371 l 1325 -17 m 811 -17 q 728 -83 811 -83 q 646 -17 646 -83 l 646 268 q 644 278 646 274 q 633 282 643 282 l 381 282 q 328 352 329 282 q 381 422 328 422 l 724 422 q 792 397 774 422 q 811 339 811 371 l 811 -17 z "}}}
